<svg xmlns="http://www.w3.org/2000/svg" version="1.1" xmlns:xlink="http://www.w3.org/1999/xlink" width="512" height="512" x="0" y="0" viewBox="0 0 512 512" style="enable-background:new 0 0 512 512" xml:space="preserve"><g><path fill-rule="evenodd" d="m389.313 375.514 10.41-8.825L384.575 349l-10.4 8.833 15.141 17.685zM276.585 239.679a60.357 60.357 0 1 1 .415 85.356 60.6 60.6 0 0 1-.417-85.356zm7.772 7.729a49.4 49.4 0 1 0 69.855-.375 49.579 49.579 0 0 0-69.855.375zm-177.245-116.9a5.5 5.5 0 0 1 10.993 0c0 7.968 8 12.771 15.29 12.771s15.291-4.8 15.291-12.771c0-9.679-8.069-11.352-16.117-13.02-12.4-2.571-24.76-5.135-24.76-23.5 0-11.946 9.516-21.061 20.787-23.24v-6.191a5.5 5.5 0 1 1 10.992 0v6.184c11.271 2.178 20.787 11.294 20.787 23.24a5.5 5.5 0 0 1-10.992 0c0-8-8.038-12.771-15.291-12.771-7.29 0-15.29 4.8-15.29 12.771 0 9.46 7.968 11.113 15.957 12.769 12.443 2.58 24.919 5.167 24.919 23.755 0 11.677-9.114 20.687-20.09 23.1v6.329a5.5 5.5 0 1 1-10.992 0v-6.064c-11.56-1.939-21.484-11.149-21.484-23.365zm208.941-95.744v60.884h60.884zM187.807 148.745a5.5 5.5 0 1 1 0-10.992h79.271a5.5 5.5 0 1 1 0 10.992zm0-31.982a5.5 5.5 0 0 1 0-10.993h79.271a5.5 5.5 0 0 1 0 10.993zm0-31.983a5.5 5.5 0 1 1 0-10.992h48.835a5.5 5.5 0 1 1 0 10.992zm-88.19 373.24v26.987H421.4V440.69a15.772 15.772 0 0 1-3.521-3.08L395.7 411.531v40.993a5.5 5.5 0 0 1-5.5 5.5zm321.783-94a12.473 12.473 0 0 0-12.593-3.574l-17.741-20.726c.059-.351.1-.7.133-1.058a12.15 12.15 0 0 0-2.97-9.008 84.221 84.221 0 0 0 7.472-81.818V101.144a5.479 5.479 0 0 0-1.609-3.886L361.8 64.972h59.6v299.044zm-8.066 7.432 34.607 40.7A4.914 4.914 0 0 1 447.4 419l-14.246 12.077a4.961 4.961 0 0 1-6.9-.549l-34.605-40.692a1.5 1.5 0 0 1 .154-2.05l19.454-16.492a1.522 1.522 0 0 1 2.079.156zM350.812 53.98H426.9a5.5 5.5 0 0 1 5.5 5.5v317.449l23.922 28.131a15.846 15.846 0 0 1-1.834 22.311l-14.246 12.077a15.776 15.776 0 0 1-7.842 3.575V490.5a5.5 5.5 0 0 1-5.5 5.5H94.121a5.5 5.5 0 0 1-5.5-5.5v-32.48H57.43a5.5 5.5 0 0 1-5.5-5.5V21.5a5.5 5.5 0 0 1 5.5-5.5h253.127a5.481 5.481 0 0 1 3.935 1.659zm2.644 304.774c.373-.169.745-.339 1.116-.513a12.21 12.21 0 0 0 8.437 4.388c.291.023.583.037.875.04l17.733 20.712a12.425 12.425 0 0 0 1.657 13.537l1.436 1.689v48.421H62.927V26.993h242.134v74.151a5.5 5.5 0 0 0 5.5 5.5h74.152v123.12q-.839-1.052-1.715-2.086a84.073 84.073 0 0 0-118.527-9.691 84.825 84.825 0 0 0-8 7.747H99.675a5.5 5.5 0 0 0-5.5 5.5v155.59a5.5 5.5 0 0 0 5.5 5.5H347.96a5.5 5.5 0 0 0 5.5-5.5v-28.07zM133.4 354.292h-28.229v27.029H133.4zm142.339 0H144.391v27.029h198.073v-18.5a84.275 84.275 0 0 1-66.727-8.526zM133.4 317.227h-28.229V343.3H133.4zm109.061 0h-98.07V343.3h116.821a84.856 84.856 0 0 1-18.753-26.072zm-98.07-48.057h91.4a83.946 83.946 0 0 1 12.272-32.446H144.391zm-39.22 0H133.4v-32.446h-28.229zm28.229 10.993h-28.229v26.072H133.4zm101.409 0h-90.418v26.072h93.914a84.107 84.107 0 0 1-3.5-26.072zm28.342 49.264a73.114 73.114 0 1 1 114.037-3.153 5.485 5.485 0 0 0-.1 7.2l2.883 3.395a1.287 1.287 0 0 1-.131 1.761l-14.77 12.54c-1.029.765-1.368.748-2.258-.176l-2.659-3.118a5.476 5.476 0 0 0-6.756-1.293c-2.667 1.43-5.311 2.353-7.884 3.637a73.185 73.185 0 0 1-82.361-20.794z" fill="#000000" opacity="1" data-original="#000000"></path></g></svg>