<svg xmlns="http://www.w3.org/2000/svg" version="1.1" xmlns:xlink="http://www.w3.org/1999/xlink" width="512" height="512" x="0" y="0" viewBox="0 0 512 512" style="enable-background:new 0 0 512 512" xml:space="preserve" class=""><g><path fill-rule="evenodd" d="M346.955 425.969H114.324v14.584h232.631zm-63.795-12.775a62.857 62.857 0 0 1-24.594-43.641h-55.852a62.854 62.854 0 0 1-24.595 43.641zm179.994-198.109a68.5 68.5 0 1 0 0 96.868 68.5 68.5 0 0 0 0-96.868zM430.765 343.2v1.474a12.152 12.152 0 0 1-12.1 12.1H40.885a12.153 12.153 0 0 1-12.1-12.1v-8.052h350.4a81.606 81.606 0 0 0 51.582 6.578zm12.776-155.7a81.3 81.3 0 0 1 0 152.022v5.148a24.933 24.933 0 0 1-24.876 24.875h-147.24a50.19 50.19 0 0 0 49.584 43.64h30.638a8.074 8.074 0 0 1 5.7 2.382l.013-.013a8.062 8.062 0 0 1 2.37 5.715v23.966a8.062 8.062 0 0 1-2.37 5.715l-.013-.013a8.074 8.074 0 0 1-5.7 2.382H109.633a8.072 8.072 0 0 1-5.7-2.382l-.013.013a8.062 8.062 0 0 1-2.37-5.715v-23.957a8.062 8.062 0 0 1 2.37-5.715l.013.013a8.072 8.072 0 0 1 5.7-2.382h30.638a50.191 50.191 0 0 0 49.584-43.64H40.885a24.932 24.932 0 0 1-24.875-24.876V83.546a24.931 24.931 0 0 1 24.875-24.874h377.78a24.932 24.932 0 0 1 24.876 24.874v103.962zM379.9 267.429a6.374 6.374 0 0 1 8.683-9.333l17.623 16.422 34.427-35.35a6.37 6.37 0 0 1 9.132 8.882l-38.679 39.721a6.375 6.375 0 0 1-9.008.324zm-240.187-94.242c-10.118-10.118-27.5-2.918-27.5 11.39s17.377 21.509 27.5 11.39a16.109 16.109 0 0 0 0-22.78zM128.324 155.7a28.883 28.883 0 1 0 28.882 28.882 28.885 28.885 0 0 0-28.882-28.882zM88.2 252.8h80.25c-17.911-30.64-62.339-30.64-80.25 0zm101.64-123.03H66.809V252.8h7.131c14.9-34.53 58.021-46.769 88.782-24.758a59.458 59.458 0 0 1 19.985 24.758h7.132V129.773zM60.421 117a6.387 6.387 0 0 0-6.387 6.387V259.19a6.387 6.387 0 0 0 6.387 6.388h135.805a6.388 6.388 0 0 0 6.388-6.388v-135.8a6.388 6.388 0 0 0-6.388-6.39zm172.208 13.2h98.26a6.388 6.388 0 0 0 0-12.775h-98.26a6.388 6.388 0 0 0 0 12.775zm0 45.127h149.786a6.388 6.388 0 0 0 0-12.775H232.629a6.388 6.388 0 0 0 0 12.775zm0 45.128h42.231a6.388 6.388 0 0 0 0-12.775h-42.231a6.388 6.388 0 0 0 0 12.775zm0 45.128h100.847a81.046 81.046 0 0 0 26.8 58.273H28.785V83.546a12.153 12.153 0 0 1 12.1-12.1h377.78a12.152 12.152 0 0 1 12.1 12.1v100.288a81.237 81.237 0 0 0-75.087 23.841h-58.5a6.388 6.388 0 0 0 0 12.775h48.61a80.77 80.77 0 0 0-11.637 32.35H232.629a6.388 6.388 0 0 0 0 12.775z" fill="#000000" opacity="1" data-original="#000000" class=""></path></g></svg>