<svg xmlns="http://www.w3.org/2000/svg" version="1.1" xmlns:xlink="http://www.w3.org/1999/xlink" width="512" height="512" x="0" y="0" viewBox="0 0 512 512" style="enable-background:new 0 0 512 512" xml:space="preserve"><g><path fill-rule="evenodd" d="m355.45 141.29-11.731 44.729a5.479 5.479 0 0 1-9.209 2.468l-12.646-12.918-70.715 65a5.483 5.483 0 0 1-5.024 1.288l-53.494-13.205-86.717 44.647a5.483 5.483 0 0 1-5.024-9.748l88.548-45.588a5.454 5.454 0 0 1 3.821-.45l52.63 12.991 68.3-62.773-11.731-11.983a5.481 5.481 0 0 1 2.726-9.195l43.527-11.914a5.475 5.475 0 0 1 6.738 6.655zm-16.471 19.616 3.464-13.206-25.65 7.021 9.032 9.227q.141.132.273.276l.029.032 9.443 9.647 3.409-13zm-51.426 126.406v-56.929a5.5 5.5 0 0 1 5.5-5.5h32.159a5.5 5.5 0 0 1 5.5 5.5v48.511h46.708V101.72h-69.238a5.5 5.5 0 0 1-5.5-5.5V26.992H76.19V420.4h203.535v-60.172h-176.37a5.5 5.5 0 0 1 0-10.993h9.622v-54.822a5.5 5.5 0 0 1 5.5-5.5h32.159a5.5 5.5 0 0 1 5.5 5.5v54.822h15.041v-91.5a5.5 5.5 0 0 1 5.5-5.5h32.159a5.5 5.5 0 0 1 5.5 5.5v91.5h15.041v-78.528a5.5 5.5 0 0 1 5.5-5.5h32.159a5.5 5.5 0 0 1 5.5 5.5v78.528h7.212v-42.682a27.569 27.569 0 0 1 7.828-19.241zm32.159-8.418v-43.015h-21.166v44.469a27.476 27.476 0 0 1 8.838-1.454zm-58.192 70.341h-21.166V276.2h21.166v73.032zm-58.192 0v-86h-21.166v86zm-58.192 0h-21.167v-49.326h21.167zm200.955-297.6L312.118 17.66a5.478 5.478 0 0 0-3.935-1.66H70.693a5.5 5.5 0 0 0-5.5 5.5v404.4a5.5 5.5 0 0 0 5.5 5.5h28.928v30.137a5.5 5.5 0 0 0 5.5 5.5h174.604v1.315A27.727 27.727 0 0 0 307.384 496h111.76a27.727 27.727 0 0 0 27.656-27.659V306.553a27.745 27.745 0 0 0-23.973-27.412V57.13a5.5 5.5 0 0 0-5.5-5.5zm65.747 227.26h-23.432V96.224a5.477 5.477 0 0 0-1.609-3.886l-29.713-29.712h54.754v216.268zm-301.224 152.5h169.111v24.641H110.614v-24.644zm.569-361.095a5.5 5.5 0 0 1 0-10.993h88.484a5.5 5.5 0 0 1 0 10.993zm0 30.006a5.5 5.5 0 0 1 0-10.992h143.629a5.5 5.5 0 0 1 0 10.992zm202.5-65.543 26.247 26.252 29.711 29.711h-55.962V34.764zm105.461 255.123a16.73 16.73 0 0 1 16.666 16.667v161.788a16.728 16.728 0 0 1-16.666 16.666h-111.76a16.728 16.728 0 0 1-16.666-16.666V306.553a16.616 16.616 0 0 1 4.9-11.767q.471-.471.979-.9l.061-.052a16.57 16.57 0 0 1 10.726-3.944h111.76zm-109.751 12.9h108.593a7.846 7.846 0 0 1 5.545 2.316l.011-.011a7.839 7.839 0 0 1 2.305 5.556v40.754a7.87 7.87 0 0 1-7.861 7.861H309.393a7.824 7.824 0 0 1-5.535-2.305l-.021-.022a7.819 7.819 0 0 1-2.305-5.534v-40.75a7.848 7.848 0 0 1 2.316-5.545l-.011-.011a7.838 7.838 0 0 1 5.556-2.305zm105.461 10.992v34.491H312.525v-34.487zM154.488 115.311A48.8 48.8 0 1 0 189 129.6a48.65 48.65 0 0 0-34.507-14.294zm26.735 22.066a37.811 37.811 0 1 0 11.077 26.735 37.689 37.689 0 0 0-11.073-26.735zm-44.565 37.392a15.472 15.472 0 0 0 5.442 11.66 18.063 18.063 0 0 0 7.095 3.807v1.705a5.5 5.5 0 0 0 10.992 0v-1.951a17.976 17.976 0 0 0 6.282-3.561 15.472 15.472 0 0 0 5.442-11.66c0-12.7-8.2-14.4-16.375-16.1-3.744-.776-7.479-1.551-7.479-5.217a4.585 4.585 0 0 1 1.663-3.415 7.942 7.942 0 0 1 9.942 0 4.582 4.582 0 0 1 1.664 3.415 5.5 5.5 0 1 0 10.992 0 15.47 15.47 0 0 0-5.442-11.659 18.034 18.034 0 0 0-6.689-3.69v-1.822a5.5 5.5 0 0 0-10.992 0v1.823a18.038 18.038 0 0 0-6.689 3.688 15.475 15.475 0 0 0-5.442 11.66c0 12.576 8.131 14.262 16.282 15.952 3.782.784 7.573 1.57 7.573 5.363a4.583 4.583 0 0 1-1.664 3.416 7.941 7.941 0 0 1-9.941 0 4.583 4.583 0 0 1-1.664-3.416 5.5 5.5 0 0 0-10.992 0zm258.776 288.2a5.5 5.5 0 0 1 0-10.993h12.123a5.5 5.5 0 0 1 0 10.993zm0-35.926a5.5 5.5 0 1 1 0-10.992h12.123a5.5 5.5 0 0 1 0 10.992zM357.2 462.964a5.5 5.5 0 1 1 0-10.993h12.123a5.5 5.5 0 0 1 0 10.993zm-38.232 0a5.5 5.5 0 0 1 0-10.993h12.123a5.5 5.5 0 0 1 0 10.993zm38.232-35.926a5.5 5.5 0 1 1 0-10.992h12.123a5.5 5.5 0 0 1 0 10.992zm-38.232 0a5.5 5.5 0 1 1 0-10.992h12.123a5.5 5.5 0 1 1 0 10.992zm76.464-35.925a5.5 5.5 0 1 1 0-10.993h12.122a5.5 5.5 0 1 1 0 10.993zm-38.232 0a5.5 5.5 0 1 1 0-10.993h12.123a5.5 5.5 0 0 1 0 10.993zm-38.232 0a5.5 5.5 0 0 1 0-10.993h12.123a5.5 5.5 0 0 1 0 10.993z" fill="#000000" opacity="1" data-original="#000000"></path></g></svg>