<svg xmlns="http://www.w3.org/2000/svg" version="1.1" xmlns:xlink="http://www.w3.org/1999/xlink" width="512" height="512" x="0" y="0" viewBox="0 0 512 512" style="enable-background:new 0 0 512 512" xml:space="preserve" class=""><g><path fill-rule="evenodd" d="M98.843 420.942a7.425 7.425 0 0 1 0-14.849h.031a7.425 7.425 0 0 1 0 14.849zm0-49.235a7.424 7.424 0 1 1 0-14.848h.031a7.424 7.424 0 0 1 0 14.848zm0-49.234a7.425 7.425 0 0 1 0-14.849h.031a7.425 7.425 0 0 1 0 14.849zM228.889 176.1a14.96 14.96 0 1 0 4.38 10.576 14.912 14.912 0 0 0-4.38-10.576zM182.1 247.108a63.774 63.774 0 0 0 72.435 0 40.392 40.392 0 0 0-72.435 0zm81.289-97.529a63.743 63.743 0 0 1 2.531 87.46 55.423 55.423 0 0 0-31.936-25 29.785 29.785 0 1 0-31.333 0 55.423 55.423 0 0 0-31.936 25 63.74 63.74 0 0 1 92.674-87.46zm-45.071-33.517a78.592 78.592 0 1 1-55.57 23.019 78.342 78.342 0 0 1 55.57-23.019zm110.7-42.675v40.493h40.494zm50.992 377.674c-19.532-7-34.323-17.406-45.5-30.119H128.419a7.425 7.425 0 1 1 0-14.849h195.218a121.789 121.789 0 0 1-8.464-16.8 148.082 148.082 0 0 1-5.957-17.589h-180.8a7.424 7.424 0 1 1 0-14.848h177.427A262.946 262.946 0 0 1 302 322.473H128.419a7.425 7.425 0 1 1 0-14.849h173.105q-.051-3.639-.05-7.256a7.426 7.426 0 0 1 5.638-7.207l72.9-24.485V128.729h-58.418a7.424 7.424 0 0 1-7.424-7.424V62.889H56.615v423.263h323.4v-35.091zm-32.557-87.641a7.408 7.408 0 1 1 10.093-10.846l20.106 18.736 39.355-40.41a7.4 7.4 0 1 1 10.614 10.324l-44.3 45.49a7.407 7.407 0 0 1-10.469.377l-25.4-23.669zm49.347 85.691h43.989v-32.489c-10.613 13.506-24.878 24.721-43.989 32.489zm58.837-57.693q.459-1.056.9-2.122c11.262-27.265 13.7-58.834 13.7-88.928h-.021a7.4 7.4 0 0 0-5.054-7.018l-9.523-3.2V84.263a7.4 7.4 0 0 0-2.174-5.249l-65.8-65.8A7.4 7.4 0 0 0 382.372 11h-272.4a7.424 7.424 0 0 0-7.424 7.424V48.04H49.191a7.425 7.425 0 0 0-7.424 7.425v438.111A7.424 7.424 0 0 0 49.191 501h338.243a7.424 7.424 0 0 0 7.424-7.424v-29.617h53.353a7.424 7.424 0 0 0 7.424-7.424v-65.117zm-14.412-4.012c-10.007 21.946-26.969 40.047-55.369 50-30-10.514-47.235-30.116-56.992-53.738a137.481 137.481 0 0 1-6.567-20.592 7.217 7.217 0 0 0-.233-.991c-3.5-15.1-5.011-31.18-5.521-47.2v-.125q-.144-4.551-.187-9.088l69.5-23.345 36.128 12.135 23.3 7.825a7.285 7.285 0 0 0 1.144.384l8.933 3c-.279 26.926-2.839 54.582-12.511 78q-.559 1.353-1.153 2.688a7.268 7.268 0 0 0-.471 1.048zm-.436-295.718v193.476l-45.929-15.427V121.3a7.4 7.4 0 0 0-2.174-5.249l-65.8-65.8a7.4 7.4 0 0 0-5.288-2.214h-204.2V25.848h257.549v58.416a7.424 7.424 0 0 0 7.424 7.424zM389.8 36.346l40.489 40.494H389.8z" fill="#000000" opacity="1" data-original="#000000" class=""></path></g></svg>