<svg xmlns="http://www.w3.org/2000/svg" version="1.1" xmlns:xlink="http://www.w3.org/1999/xlink" width="512" height="512" x="0" y="0" viewBox="0 0 512 512" style="enable-background:new 0 0 512 512" xml:space="preserve"><g><path fill-rule="evenodd" d="m91.975 221.822 8.734-28.476a25.575 25.575 0 0 1 24.656-18.241h304.148v-43.258a14.852 14.852 0 0 0-14.813-14.814H190.985a25.133 25.133 0 0 1-19.332-8.743l-35.161-39.86a14.2 14.2 0 0 0-11.131-5.006H68.052a14.85 14.85 0 0 0-14.814 14.814v143.584zm348.531-46.717h29.638a25.65 25.65 0 0 1 24.656 33.373l-57.259 186.687a25.572 25.572 0 0 1-24.656 18.24h-63.419a71.821 71.821 0 0 1-121.607 0h-29.147v16.285a29.951 29.951 0 0 1-29.878 29.879H45.883a29.951 29.951 0 0 1-29.878-29.879V251.7a29.97 29.97 0 0 1 26.24-29.656V78.238a25.849 25.849 0 0 1 25.807-25.807h57.309a25.133 25.133 0 0 1 19.332 8.743l35.161 39.86a14.206 14.206 0 0 0 11.131 5.007H414.7a25.847 25.847 0 0 1 25.807 25.806v43.258zm-85.382 227.308a71.789 71.789 0 1 0-132.923 0h-23.489V251.7a29.951 29.951 0 0 0-29.878-29.878h-65.4l7.747-25.256a14.526 14.526 0 0 1 14.184-10.466h344.779a14.692 14.692 0 0 1 14.179 19.159l-57.259 186.685a14.529 14.529 0 0 1-14.179 10.469zm-186.29-169.6H45.883A18.954 18.954 0 0 0 27 251.7v177.99a18.956 18.956 0 0 0 18.886 18.886h122.948a18.956 18.956 0 0 0 18.886-18.886V251.7a18.954 18.954 0 0 0-18.886-18.885zm-120.741 15.3a8.109 8.109 0 0 0-8.1 8.1v44.835a8.109 8.109 0 0 0 8.1 8.1H167.56a8.109 8.109 0 0 0 8.1-8.1v-44.839a8.076 8.076 0 0 0-2.375-5.723l-.011.01a8.087 8.087 0 0 0-5.712-2.385zM164.665 259.1H50.988v39.045h113.677zm166.988 73.132a60.8 60.8 0 1 0 17.806 42.99 60.606 60.606 0 0 0-17.806-42.99zm-67.368 59.305a20.794 20.794 0 0 0 7.329 15.661 24.934 24.934 0 0 0 11.864 5.7v4.922a5.5 5.5 0 0 0 10.992 0v-5.18a24.81 24.81 0 0 0 10.619-5.438 20.794 20.794 0 0 0 7.329-15.661c0-17.081-11.381-19.441-22.731-21.8-6.9-1.431-13.787-2.859-13.787-10.835a9.9 9.9 0 0 1 3.55-7.417 15.019 15.019 0 0 1 19.048 0 9.9 9.9 0 0 1 3.55 7.417 5.5 5.5 0 0 0 10.993 0 20.8 20.8 0 0 0-7.329-15.662 24.891 24.891 0 0 0-11.242-5.578v-5.046a5.5 5.5 0 1 0-10.992 0v5.046a24.891 24.891 0 0 0-11.242 5.578 20.8 20.8 0 0 0-7.328 15.662c0 16.885 11.28 19.225 22.589 21.57 6.955 1.442 13.928 2.888 13.928 11.06a9.9 9.9 0 0 1-3.55 7.417 15.019 15.019 0 0 1-19.048 0 9.9 9.9 0 0 1-3.549-7.417 5.5 5.5 0 1 0-10.993 0zM142.75 423.224h18.833v-10.993h-24.329v10.993zm0-39.523h18.833v-10.993h-24.329V383.7zm-42.06 39.523h18.833v-10.993H95.194v10.993zm-42.06 0h18.833v-10.993H53.134v10.993zm42.06-39.524h18.833v-10.992H95.194V383.7zm-42.06 0h18.833v-10.992H53.134V383.7zm84.12-39.523h18.833v-10.992h-24.329v10.993zm-42.06 0h18.833v-10.992H95.194v10.993zm-42.06 0h18.833v-10.992H53.134v10.993z" fill="#000000" opacity="1" data-original="#000000"></path></g></svg>