<svg xmlns="http://www.w3.org/2000/svg" version="1.1" xmlns:xlink="http://www.w3.org/1999/xlink" width="512" height="512" x="0" y="0" viewBox="0 0 512 512" style="enable-background:new 0 0 512 512" xml:space="preserve" class=""><g><path d="M251.98 241.25h32.449a12.346 12.346 0 0 1 12.322 12.322V265.8L471.8 241.256a5.452 5.452 0 0 1 1.158-.162l5.307-.744h.021a9.05 9.05 0 0 0 5.175-2.384 5.107 5.107 0 0 0 1.545-3.672v-98.817a6.023 6.023 0 0 0-5.99-5.99h-33.94v14.575a5.5 5.5 0 0 1-5.5 5.5h-63.11a5.5 5.5 0 0 1-5.5-5.5v-14.575H163.14v14.575a5.5 5.5 0 0 1-5.5 5.5H94.534a5.5 5.5 0 0 1-5.5-5.5v-14.575H55.1a6.023 6.023 0 0 0-5.992 5.99V214.8H175.6a5.481 5.481 0 0 1 3.935 1.659l47.233 47.233 12.886 1.76v-11.88a12.346 12.346 0 0 1 12.326-12.322Zm44.771 35.62 170.9-23.958v164.531a12.565 12.565 0 0 1-12.514 12.514h-3.872a66.691 66.691 0 0 0-113.474-63.266 61.113 61.113 0 0 0-98.681 63.266h-9.516V275.135l10.067 1.375v3.345a28.547 28.547 0 0 0 57.093 0v-2.985Zm-12.322-24.627a1.347 1.347 0 0 1 1.329 1.329v26.283a17.554 17.554 0 0 1-35.107 0v-26.283a1.347 1.347 0 0 1 1.329-1.329ZM138.769 98.585a49.4 49.4 0 0 1 10.522-27.794c6.483-7.932 15.347-12.819 25.157-12.819h185.219c9.805 0 18.665 4.882 25.146 12.806l.011-.008a49.432 49.432 0 0 1 10.522 27.815h25.613c-1.082-17.684-7.526-33.528-17.317-45.048-9.864-11.606-23.143-18.75-37.659-18.75H168.132c-14.515 0-27.8 7.144-37.659 18.75-9.791 11.52-16.235 27.364-17.316 45.048Zm245.589 0h-7.887a5.5 5.5 0 0 0-5.5 5.5v14.413H163.14v-14.417a5.5 5.5 0 0 0-5.5-5.5h-7.888a38.213 38.213 0 0 1 8.041-20.881c4.419-5.408 10.3-8.74 16.655-8.74h185.219c6.356 0 12.235 3.332 16.655 8.74l.01.013-.01.008a38.185 38.185 0 0 1 8.036 20.86Zm-282.176 0c1.108-20.392 8.545-38.752 19.918-52.133C134.02 32.427 150.241 23.8 168.132 23.8h197.851c17.891 0 34.112 8.632 46.032 22.657 11.373 13.381 18.81 31.741 19.918 52.133h7.648a5.5 5.5 0 0 1 5.5 5.5v14.413h33.94A17.02 17.02 0 0 1 496 135.477v98.817a15.886 15.886 0 0 1-4.766 11.444 20.108 20.108 0 0 1-11.466 5.472l-1.127.158v166.075a23.562 23.562 0 0 1-23.507 23.507h-8.114a66.658 66.658 0 0 1-107.887 16.856 61.126 61.126 0 0 1-95.621-16.856h-13.921v41.759a5.5 5.5 0 0 1-5.5 5.5H21.5a5.5 5.5 0 0 1-5.5-5.5V220.292a5.5 5.5 0 0 1 5.5-5.5h16.615v-79.315A17.02 17.02 0 0 1 55.1 118.494h33.938v-14.413a5.5 5.5 0 0 1 5.5-5.5Zm331.9 25.426v14.554h-52.115v-28.988h52.118v14.434ZM54.55 264.871a5.5 5.5 0 0 1 0-10.993h48.179a5.5 5.5 0 0 1 0 10.993Zm0 27.963h78.205a5.5 5.5 0 1 0 0-10.992H54.55a5.5 5.5 0 1 0 0 10.992Zm121.424 44.248V352.3h14.137v-15.218Zm0 26.206V378.5h14.137v-15.212Zm0 26.206v15.214h14.137v-15.214Zm0 26.207v15.214h14.137V415.7Zm-10.993 15.214V415.7H85.538v15.214Zm0-26.207v-15.214H85.538v15.214Zm0-26.206v-15.214H85.538V378.5Zm0-26.206v-15.214H85.538V352.3Zm-90.436 78.619V415.7h-14.19v15.214Zm0-26.207v-15.214h-14.19v15.214Zm0-26.206v-15.214h-14.19V378.5Zm0-26.206v-15.214h-14.19V352.3Zm-19.686-26.207a5.5 5.5 0 0 0-5.5 5.5v104.822a5.5 5.5 0 0 0 5.5 5.5h140.748a5.5 5.5 0 0 0 5.5-5.5V331.586a5.5 5.5 0 0 0-5.5-5.5H54.859ZM181.1 233.56l29.726 29.727H181.1V233.56Zm37.5 40.719v202.934H26.993V225.788h143.115v43a5.5 5.5 0 0 0 5.5 5.5Zm-66.451-164.7v28.988h-52.118v-28.99Zm194.357 340.11a55.757 55.757 0 0 0 91.924-16.374 55.712 55.712 0 0 0-93.009-58.694 61.1 61.1 0 0 1 1.085 75.07ZM333.2 377.424a50.1 50.1 0 1 0 14.674 35.426 49.943 49.943 0 0 0-14.674-35.426Zm-56.756 49.107a18.311 18.311 0 0 0 6.439 13.789l-.01.011a21.743 21.743 0 0 0 9.666 4.843v3.4a5.5 5.5 0 1 0 10.993 0v-3.662a21.653 21.653 0 0 0 8.6-4.583 18.318 18.318 0 0 0 6.45-13.8c0-15.042-9.9-17.1-19.773-19.143-5.432-1.126-10.851-2.25-10.851-8.221a7.429 7.429 0 0 1 2.672-5.555 11.186 11.186 0 0 1 7.405-2.634 11.19 11.19 0 0 1 7.4 2.634 7.429 7.429 0 0 1 2.672 5.555 5.5 5.5 0 1 0 10.993 0 18.318 18.318 0 0 0-6.451-13.8 21.689 21.689 0 0 0-9.123-4.718v-3.527a5.5 5.5 0 0 0-10.993 0v3.527a21.685 21.685 0 0 0-9.122 4.718 18.317 18.317 0 0 0-6.451 13.8c0 14.88 9.815 16.915 19.654 18.956 5.478 1.135 10.971 2.274 10.971 8.408a7.433 7.433 0 0 1-2.672 5.556 11.7 11.7 0 0 1-14.789 0h-.024a7.43 7.43 0 0 1-2.673-5.556 5.5 5.5 0 0 0-10.992 0Zm87.773.075a19.618 19.618 0 0 0 6.911 14.776 23.423 23.423 0 0 0 10.808 5.3v4.2a5.5 5.5 0 1 0 10.992 0v-4.458a23.315 23.315 0 0 0 9.659-5.034 19.617 19.617 0 0 0 6.91-14.776c0-16.111-10.675-18.324-21.323-20.532-6.2-1.286-12.389-2.569-12.389-9.591a8.726 8.726 0 0 1 3.132-6.531 13.453 13.453 0 0 1 17.031 0 8.726 8.726 0 0 1 3.132 6.531 5.5 5.5 0 1 0 10.992 0 19.617 19.617 0 0 0-6.91-14.775 23.362 23.362 0 0 0-10.234-5.172v-4.32a5.5 5.5 0 0 0-10.992 0v4.32a23.358 23.358 0 0 0-10.233 5.172 19.614 19.614 0 0 0-6.911 14.775c0 15.931 10.583 18.126 21.192 20.325 6.252 1.3 12.521 2.6 12.521 9.8a8.725 8.725 0 0 1-3.132 6.531 13.45 13.45 0 0 1-17.031 0 8.725 8.725 0 0 1-3.132-6.531 5.5 5.5 0 0 0-10.993 0Z" class="" style="fill-rule:evenodd" fill="#000000" opacity="1" data-original="#000000"></path></g></svg>