<svg xmlns="http://www.w3.org/2000/svg" xmlns:xlink="http://www.w3.org/1999/xlink" width="81.754" height="86.388" viewBox="0 0 81.754 86.388">
  <defs>
    <radialGradient id="radial-gradient" cx="0.973" cy="0.393" r="0.991" gradientTransform="matrix(0.647, 0.762, -0.762, 0.647, 0.31, -0.528)" gradientUnits="objectBoundingBox">
      <stop offset="0" stop-color="#2875f3"/>
      <stop offset="0.37" stop-color="#1b63d8"/>
      <stop offset="1" stop-color="#003da1"/>
    </radialGradient>
    <radialGradient id="radial-gradient-2" cx="0.6" cy="0.04" r="0.984" gradientTransform="translate(-0.002)" gradientUnits="objectBoundingBox">
      <stop offset="0" stop-color="#9ffffa"/>
      <stop offset="0.18" stop-color="#95f9f4"/>
      <stop offset="0.48" stop-color="#79e8e3"/>
      <stop offset="0.87" stop-color="#4dcec7"/>
      <stop offset="1" stop-color="#3dc4bd"/>
    </radialGradient>
  </defs>
  <g id="_15" data-name="15" transform="translate(-342.825 0.003)">
    <ellipse id="Ellipse_4" data-name="Ellipse 4" cx="26.67" cy="15.4" rx="26.67" ry="15.4" transform="translate(348.06 54.8)" fill="#003893" opacity="0.5"/>
    <circle id="Ellipse_5" data-name="Ellipse 5" cx="29" cy="29" r="29" transform="matrix(0.647, -0.762, 0.762, 0.647, 342.825, 48.832)" fill="url(#radial-gradient)"/>
    <path id="Path_53" data-name="Path 53" d="M388.92,83.42a.86.86,0,0,0-.26.24,1.472,1.472,0,0,1-.22.21.62.62,0,0,0-.11.64c0,.2.08.39-.15.54,0,.07,0,.11-.08.14a1,1,0,0,0-.19.34.86.86,0,0,1-.21.4.2.2,0,0,1-.1.14,1.47,1.47,0,0,0-.38.45l-.1.15a.088.088,0,0,1-.09.09l-.09.15c-.15.25-.23.37-.54.4a1.7,1.7,0,0,1-.39,0h-.48l.21.12a.1.1,0,0,1,.08,0,.06.06,0,0,1,0,.07c0,.07,0,.1.06.12.23.17.24.27.07.47a.13.13,0,0,1-.08.08.19.19,0,0,1-.11.19.323.323,0,0,1-.13.09,3,3,0,0,0-.32.09,2.918,2.918,0,0,1-.6.14h-.21v.26a.37.37,0,0,1,0,.29.65.65,0,0,1-.29.13.93.93,0,0,1-.38-.09c-.1,0,0,.23,0,.29a.06.06,0,0,0,.06,0h.07a.31.31,0,0,1,.12,0,.13.13,0,0,1,.11,0c.05.07.12.15,0,.22l-.16.07h-.06a.129.129,0,0,0-.1.06.24.24,0,0,0,0,.2v.14a.293.293,0,0,1-.2.17h-.1a.14.14,0,0,1-.1.06c0,.06,0,.1-.09.13s0,.06,0,.09l.05.06h.29c.19,0,.2,0,.22.12a.181.181,0,0,1-.14.24.726.726,0,0,1-.14.11c-.06.03-.06,0-.09,0a.15.15,0,0,0,0,.08s0,.06,0,.08l-1-.07h-.48l-.65-.07a.26.26,0,0,0-.07-.11c-.05,0,0-.06,0-.08s.05-.07,0-.08,0,0-.15,0h-.06a.072.072,0,0,1-.08.07h-.14c-.02,0,0-.08.05-.12s.1,0,.05-.1.13-.07.14-.07h.23c.03,0,0-.14-.13-.17s-.07,0-.08,0,0-.05.06-.06a.19.19,0,0,1,.11,0,.08.08,0,0,1,0-.13.14.14,0,0,0,0-.06.527.527,0,0,0,0-.13c0-.12,0-.26,0-.39h0a.053.053,0,0,1-.05-.06c0-.06-.08,0-.06.08a.59.59,0,0,1,.05.29c0,.07-.06.1-.14.11h-.05c-.16,0-.17-.07-.18-.15v-.45a.27.27,0,0,1,0-.1,1.57,1.57,0,0,0-.17-.79c-.06-.1-.08-.15,0-.36a1.94,1.94,0,0,0,0-1.77.225.225,0,0,1,0-.28,1.37,1.37,0,0,1-.06-.78V85.5a1.67,1.67,0,0,0-.05-.84.89.89,0,0,1-.06-.51,1.219,1.219,0,0,0,0-.33,4,4,0,0,0-.4-1.16h-.12a.34.34,0,0,1-.23-.13.11.11,0,0,1-.11,0,2.231,2.231,0,0,0-.46-.13,2,2,0,0,1-.58-.18h-.08a.27.27,0,0,1-.14-.07,1.12,1.12,0,0,1-.69-.73.14.14,0,0,1-.13-.13.127.127,0,0,1-.14-.11.13.13,0,0,1-.1-.07,1.86,1.86,0,0,1-.44-.59,2.111,2.111,0,0,0-.44-.5,4,4,0,0,1-.35-.37h-.09a.72.72,0,0,1-.43-.36.57.57,0,0,1,.19-.81.125.125,0,0,1,.07-.11.33.33,0,0,0-.1,0,.34.34,0,0,1-.21,0,.4.4,0,0,1-.13-.27v-.08a.23.23,0,0,1,0-.26.5.5,0,0,0,.09-.4.34.34,0,0,1,.21-.4.34.34,0,0,0,.18-.29.322.322,0,0,1,.26-.37h.05v-.11a.12.12,0,0,1,.06-.15.38.38,0,0,1-.15-.34,1.32,1.32,0,0,0-.43-1.06c-.08,0-.08-.11-.09-.17a.19.19,0,0,0,0-.08c-.06,0-.11,0-.13-.08h-.25a.2.2,0,0,1-.14.14h0a.12.12,0,0,0,0,.11.14.14,0,0,1,.12.12c0,.06,0,.11-.07.11a.16.16,0,0,1-.15.13.09.09,0,0,1-.1,0,.46.46,0,0,0-.16-.11.35.35,0,0,1-.21-.19c-.4.06-.65.1-.88-.3-.13,0-.2,0-.23-.12h-.13a.1.1,0,0,1-.12-.07.17.17,0,0,1-.14,0,.18.18,0,0,1-.05-.14.91.91,0,0,0-.43-.56,1.37,1.37,0,0,1-.38-.38l-.25.06a.41.41,0,0,1-.3-.06,1,1,0,0,0-.39,0,.87.87,0,0,1-.61-.17,1.231,1.231,0,0,1-.29-.22q-.39-.35-.63-.3a.38.38,0,0,0-.21.1.72.72,0,0,1-.34.16,1.14,1.14,0,0,1-.68-.18h-.35l-.41-.07a.21.21,0,0,1-.17-.09,1,1,0,0,0-.61-.21.46.46,0,0,1-.35-.21l-.3-.14c-.07,0-.1,0-.13-.06s0-.06-.06-.07a.23.23,0,0,1-.05-.29.79.79,0,0,0-.17-.69l-.39-.35-.13-.14a.1.1,0,0,1-.08-.05c-.12,0-.16-.13-.19-.23-.27-.08-.52-.12-.48-.53-.08,0-.13,0-.17-.11a.15.15,0,0,1-.19-.12c0-.1-.09-.12-.16-.15h-.07a.67.67,0,0,1-.24-.23h-.17c-.02,0,0-.11,0-.25a.21.21,0,0,1-.11-.17.47.47,0,0,1-.14-.26.38.38,0,0,0-.08-.17l-.11-.06a.33.33,0,0,1-.21,0,2.09,2.09,0,0,0,.18.58.09.09,0,0,1,.09.07q.13,0,.15.15c.09,0,.15,0,.19.16h0A1,1,0,0,1,364,69h.05c.2,0,.27.23.34.41a1.261,1.261,0,0,0,.07.17v.09c.06.13.11.24.24.26a.09.09,0,0,1,.09.08v.06c0,.06.12.06.13.1a.29.29,0,0,1,0,.19s-.07.14-.14.16-.1-.06-.13-.13a.562.562,0,0,0-.05-.08c-.06,0-.1-.06-.11-.11a.07.07,0,0,1-.08,0h0a.23.23,0,0,1-.14-.07.21.21,0,0,0-.17-.06.06.06,0,0,1-.06,0,.21.21,0,0,1,0-.14.82.82,0,0,0-.08-.4.21.21,0,0,1-.13-.07.2.2,0,0,0-.11,0,.3.3,0,0,1-.15,0s-.09,0-.1-.06a.26.26,0,0,1-.19-.08.16.16,0,0,1-.13-.1L363,69a.09.09,0,0,1-.06-.09.15.15,0,0,1,0-.11h0a.062.062,0,0,1,.06.07.075.075,0,0,0,.1.07h.05c.06,0,0-.11,0-.19s-.07,0-.07-.1-.1,0-.13-.11a.37.37,0,0,1-.35-.27.588.588,0,0,1,0-.08,1.22,1.22,0,0,1-.19-.45.13.13,0,0,1-.09-.11.05.05,0,0,1-.06,0,.053.053,0,0,1-.05-.06c0-.22-.18-.31-.42-.42a.17.17,0,0,0-.13,0s-.06,0-.09.11a.07.07,0,0,1-.05,0,.08.08,0,0,1-.07,0c0-.15,0-.16-.11-.16s-.15-.09-.16-.2v-.08l-.1-.08c-.12-.06-.19-.08-.23-.17s-.06-.11-.06-.17v-.08h-.1a.71.71,0,0,0-.18-.27,1,1,0,0,1-.16-.22,2,2,0,0,1-.32-.75,1,1,0,0,0,0-.55,1.57,1.57,0,0,1-.05-.69,2,2,0,0,0,0-.41V63a1.739,1.739,0,0,0-.08-.67v-.12c-.08-.29-.19-.67-.64-.73,0-.09-.08-.09-.14-.09s-.27,0-.26-.21a.1.1,0,0,1-.1-.12.24.24,0,0,1,.1-.15l.07-.08c-.06-.05-.07-.17-.08-.29s0-.27-.12-.25-.23-.1-.24-.35l-.09.1a.14.14,0,0,1-.16,0,.16.16,0,0,1-.06-.15.239.239,0,0,0,0-.08.21.21,0,0,1,0-.25v-.22c0-.01,0,0-.05,0s-.08,0-.08-.09-.07-.1-.11-.07,0,.08,0,.1a.37.37,0,0,1-.05.27h0a.06.06,0,0,1-.09,0s0,.09-.06.1a.16.16,0,0,1-.12-.2c0-.26-.06-.33-.16-.38s0-.1,0-.17a.11.11,0,0,0,0-.08v.08a.74.74,0,0,1-.05.22c-.09,0-.11-.11-.12-.2s0,0,0-.07,0-.07-.05-.12,0-.11-.07-.11v-.07c0-.23-.08-.3-.15-.29s-.14,0-.14-.07V58.1a28.16,28.16,0,0,1,3.14-9.31v.11h.06a.17.17,0,0,0,0-.09,1.232,1.232,0,0,1,.12-.28.38.38,0,0,1,.05-.11v-.08a.25.25,0,0,1,.08-.14c.07,0,.06,0,.05.08a.209.209,0,0,0,0,.06c0,.07,0,.07,0,.1a.155.155,0,0,1-.05.13c-.05.04.09,0,.12-.15a.43.43,0,0,1,.15-.25h0l.08-.06c.05,0,.12-.08.16,0s.06,0,.06,0a.07.07,0,0,1,.11,0h.1a4.1,4.1,0,0,0,.59-.15.32.32,0,0,0,.1-.1.551.551,0,0,1,.11-.1c.1-.07.19,0,.23,0s.07,0,.06.05.09.14.07.19a.39.39,0,0,1-.12.16.49.49,0,0,0-.16.2.11.11,0,0,0,0,.11c.18-.08.36-.19.49-.26h.06a1.849,1.849,0,0,0,.37-.37l.07-.08a.4.4,0,0,1,.13-.13c.05,0,.09,0,.1.08a.31.31,0,0,1,.36.07h.05a.19.19,0,0,1,0-.1.06.06,0,0,1-.05-.06.11.11,0,0,1,0-.07.32.32,0,0,0,.05-.16.289.289,0,0,0-.11-.07h0a.11.11,0,0,1-.08,0,.15.15,0,0,1,0-.12l.06-.15v-.06a.839.839,0,0,1,.15-.18.688.688,0,0,0,.11-.13h0a1.12,1.12,0,0,0-.38.42.45.45,0,0,1-.13.16l-.17.12c-.15.11-.31.23-.45.35l-.09.07c-.1.06-.14,0-.15-.07h0c0-.22-.1-.19-.23-.15h-.26a.31.31,0,0,1-.18,0h0a.06.06,0,0,1,0-.06h0a.12.12,0,0,1,0-.12c0-.06.06-.09.12-.16l.18-.18a2.781,2.781,0,0,1,.46-.43,1,1,0,0,1,.22-.12c.05,0,.06,0,.07-.06a.34.34,0,0,0-.29,0,1.17,1.17,0,0,0-.16.15.83.83,0,0,1-.19.18,1.469,1.469,0,0,1-.24.13l-.12.06c-.07,0-.08,0-.09-.11a.12.12,0,0,1,0-.11.82.82,0,0,1,.19-.26c.07-.09.17-.19.26-.32a1.29,1.29,0,0,0-.17.16l-.11.1-.08.07h-.05c-.05,0,.05-.13.09-.18-.13.07-.18.09-.19.06a1,1,0,0,1,.15-.39c.32-.46.66-.91,1-1.35a.591.591,0,0,1-.05.19.149.149,0,0,0,0,.06.17.17,0,0,0,.07-.09.27.27,0,0,1,.06-.17.38.38,0,0,1,.12-.13.11.11,0,0,1,.09,0h.24a.46.46,0,0,1-.07.18.65.65,0,0,0,.26-.36c-.06,0-.1,0-.05-.14a.12.12,0,0,1,.05,0,.16.16,0,0,1,.09,0c.15,0,.15,0,.2.08h0v.47c.07-.07.08-.12.06-.17a1.7,1.7,0,0,1,0-.4,1.814,1.814,0,0,1,0-.2.21.21,0,0,1,0-.17.311.311,0,0,0,0-.08c.06-.08.08-.09.1-.09a.23.23,0,0,0,.11,0,.15.15,0,0,0,0-.1.27.27,0,0,1,.08-.16.19.19,0,0,1,.07-.12s0,0,0-.05h.07a.81.81,0,0,1,.29-.13s.05,0,0,.07,0,.11,0,.18a.34.34,0,0,0,0,.12.37.37,0,0,1-.09.22.94.94,0,0,0,0,.67,1,1,0,0,1,.06.51v.06a.56.56,0,0,1,.18.13h.09c.11,0,.21-.07.26,0l.11.05a.14.14,0,0,0,.09,0c.09,0,.2,0,.15.15a.281.281,0,0,0,0,.09.19.19,0,0,1-.07.19l-.12.07c-.09.05-.15.05-.19,0s0,0,0,.05v.08h.14s0,.18.11.21,0,.05-.11.19L365,46a.821.821,0,0,1-.19.21h-.09l-.36.13h-.13a.2.2,0,0,0,.07.24c.06,0,.14.1.33,0h.06c.1-.06.15-.06.22,0s.09,0,.09.06a.11.11,0,0,0,.07,0,1.231,1.231,0,0,0,.22-.15,1.569,1.569,0,0,1,.3-.2.61.61,0,0,1,.17-.07h.07a.33.33,0,0,0,.13-.13.19.19,0,0,0,0-.17.16.16,0,0,1,0-.14c0-.06.07-.09.27-.23h-.4s-.13,0-.14-.06a.4.4,0,0,1,.15-.29A.36.36,0,0,0,366,45l.06-.15v-.06c0-.08,0-.16.09-.18s.07,0,.11,0l.21.08a1.68,1.68,0,0,1,.27.21l.12.09h.09a.785.785,0,0,1-.13.19.44.44,0,0,1-.12.17.18.18,0,0,1-.1.11.15.15,0,0,1-.09,0h-.08c0,.07.17,0,.2,0h.12c.01,0,0,0,0,.08v.36a.11.11,0,0,0,.05.11c.05,0,0,0,0-.07-.06,0-.05-.11,0-.18s0-.1,0-.13a.14.14,0,0,1,.07-.1h.1a.56.56,0,0,0,.19-.16.37.37,0,0,1,.08-.18v-.18a1.511,1.511,0,0,0-.16.09h-.1c-.02,0,0-.07,0-.16s.1-.34-.07-.4-.12,0-.14,0a.16.16,0,0,1-.17-.06c-.13,0-.25-.05-.27-.15a.4.4,0,0,1,.08-.22.26.26,0,0,0,0-.23.39.39,0,0,1,.08-.46h0c.05-.05.08-.08,0-.13s.06-.19.14-.29a.12.12,0,0,0,0-.1.13.13,0,0,1,0-.12c-.06,0-.06-.12,0-.23h0s-.14,0-.13-.23a3.8,3.8,0,0,0,0-.46c0-.06.05-.1.09-.14s.05,0,0-.08.07-.2.16-.27a2.679,2.679,0,0,1,.32-.22.7.7,0,0,1,.23-.08,2.407,2.407,0,0,0,.55-.19,1.427,1.427,0,0,1,.44-.12c.03.02,0,.08-.09.19a3.149,3.149,0,0,0-.24.36,2.461,2.461,0,0,1-.22.34.75.75,0,0,0-.1.17.52.52,0,0,1-.25.28h-.06l-.16.06h-.07c-.07,0-.08,0-.08.06s.13,0,.14,0a.167.167,0,0,1-.07.15v.06a.18.18,0,0,1,0,.09.19.19,0,0,1-.05.1c-.07.07-.11.13-.09.19s.07,0,.1,0,.13,0,.15.07,0,.07.05.07.15.12.16.22a.44.44,0,0,0,.05.22.319.319,0,0,1,.25.16c.05.09.1,0,.12,0s.15,0,.14.06-.05.07-.15.13,0,0,0,.07a.22.22,0,0,1-.11.15v.1c0,.01.06,0,.11,0h.24c.14,0,.23-.06.26,0s0,.1-.07.26c.06,0,.12,0,.12.09s.12,0,.15,0a.17.17,0,0,1,0,.18c0,.06,0,.07,0,.07h.07a.12.12,0,0,1,.05-.1s0-.07,0-.11a.43.43,0,0,1,.05-.3.57.57,0,0,1,.22-.22.3.3,0,0,1,.21,0,.22.22,0,0,1,.18.08c.07,0,.08,0,.07.06a.29.29,0,0,1,.16.2.271.271,0,0,0,.06.12.11.11,0,0,1,0,.11c-.18.12-.15.19-.1.28v.08a.26.26,0,0,1,.21.14.14.14,0,0,0,.13,0,.29.29,0,0,0,.14-.15.08.08,0,0,0,0-.12.19.19,0,0,1-.14-.21v-.18a.24.24,0,0,1,.13-.08c.11,0,.12,0,.13.06a.14.14,0,0,0,0,.06,1.071,1.071,0,0,0,.07-.19,1.46,1.46,0,0,1,.35-.64v-.07a.15.15,0,0,1-.06,0,.24.24,0,0,1-.14-.33v-.07a.108.108,0,0,1,.08-.11h.06l.3-.09.48-.15a.3.3,0,0,1,.24,0q.07,0,.06.15a.14.14,0,0,0,0,.07.12.12,0,0,0,.11,0h.32c.01,0,0,.07-.09.12a.26.26,0,0,1,.08.27.67.67,0,0,1-.24.29.2.2,0,0,1,0,.17c0,.14,0,.15.1.23h.06c.17.09.18.24,0,.44a.24.24,0,0,1-.1.17.58.58,0,0,1-.18.24s0,.08-.06.1,0,0-.06.07a.57.57,0,0,1-.29.25l-.05.06a.41.41,0,0,0,0,.19.4.4,0,0,1,.22.24.18.18,0,0,1-.06.05h-.3a.53.53,0,0,0-.26-.16.63.63,0,0,1-.26-.16h-.12l-.15.08a.148.148,0,0,1,.16.14.252.252,0,0,1-.1.22.29.29,0,0,1-.15.23.35.35,0,0,1-.12.24c.15.22,0,.46-.11.69a1.944,1.944,0,0,0-.14.3.59.59,0,0,1-.36.33h-.18c-.11,0-.14.11-.16.26s0,0,0,.06c-.17.16-.2.28-.12.4a.08.08,0,0,1,0,.09h-.06a.11.11,0,0,1-.06.06.18.18,0,0,1-.1.09.44.44,0,0,1-.15.11h-.14s.06.08.05.12-.06.06-.13.09a.51.51,0,0,1-.14.4.42.42,0,0,0-.12.24c0,.09-.09.17-.16.23s-.11.12-.09.17a.27.27,0,0,1,0,.3,5.482,5.482,0,0,0,0,.81v.36c.55-.13.67.19.78.5a1.429,1.429,0,0,0,.15.33.65.65,0,0,0,.15-.1.42.42,0,0,1,.16-.11.21.21,0,0,1,.17,0,.77.77,0,0,1,.4.07h.11a.2.2,0,0,1,.2.05c.1,0,.21,0,.26.13a.19.19,0,0,1,.11.12.83.83,0,0,0,.36,0c.17,0,.33,0,.39.14a1.67,1.67,0,0,0,.66-.06h.2a.26.26,0,0,1,.21,0,.547.547,0,0,1,.05.22,2.161,2.161,0,0,0,.07.7c0,.17.08.22.18.2h.11a.16.16,0,0,1,.12,0l.06.1c.07.07.12.11.08.19a.07.07,0,0,1-.07.06h-.25v.06c0,.06.13.07.16.14s0,.1.09.11l.11.08a.16.16,0,0,1,.11.12.08.08,0,0,0,0,.05c.05.07.09.1.11.09s0,0,.06-.08a.17.17,0,0,1,.11-.11h.15a.32.32,0,0,1-.08-.17c0-.09.09-.15.17-.21a2.329,2.329,0,0,1-.24-.8.51.51,0,0,0-.07-.17.67.67,0,0,1-.06-.17c-.1-.02-.1-.02-.1-.1s.05-.11.14-.2h0c.05-.07.1-.16.19-.18s.05-.09.08-.11a.671.671,0,0,1,.2-.21c0-.11,0-.19.12-.24a.56.56,0,0,1,.12-.31,3.479,3.479,0,0,0-.22-1,1.009,1.009,0,0,0-.07-.23.36.36,0,0,0-.22-.2h-.09c-.13-.09-.19-.16-.18-.25s.07-.16.21-.26.15-.32.15-.51a1.06,1.06,0,0,0-.09-.35.72.72,0,0,1,0-.71v-.07c0-.01,0,0-.08,0a.2.2,0,0,1-.14-.19.45.45,0,0,1,.14-.36c0-.06,0-.07.05-.08a.08.08,0,0,1,0-.08.09.09,0,0,1,.06,0h.08a2.611,2.611,0,0,1,.39,0,.73.73,0,0,0,.33,0,.6.6,0,0,0,.27-.17.35.35,0,0,1,.17-.12.29.29,0,0,1,.27.1c.15,0,.2,0,.24.13a.24.24,0,0,0,.11.13.1.1,0,0,1,.05.06s.05.06.09,0a.07.07,0,0,1,.08,0,.11.11,0,0,1,0,.08q-.06.1,0,.15h.24a.42.42,0,0,1,.29,0,.1.1,0,0,1,.09-.1h.07a.15.15,0,0,1,.08.23.36.36,0,0,0,0,.39.13.13,0,0,1,0,.18v.08a.45.45,0,0,1,.1.3v.15c0,.05,0,.16.09.15h.18a.371.371,0,0,0,.13.14c.07.03.13.06.14.16s0,.05,0,.05h.05a1.62,1.62,0,0,0,.1-.18.7.7,0,0,1,.3-.36.57.57,0,0,0,.06-.39.33.33,0,0,1,.07-.3.31.31,0,0,1,.09-.18.182.182,0,0,1,.14-.16c.05-.01.11,0,.15.12a1.5,1.5,0,0,0,.39.61.38.38,0,0,1,.1.31c.08,0,.1.07.12.13s0,.1.08.1a.34.34,0,0,0,.1.24.861.861,0,0,1,.07.1.07.07,0,0,1,.06,0,.129.129,0,0,1,0,.06c.06,0,.05.09.05.13v.06a.25.25,0,0,1,.11.15.11.11,0,0,1,.1.09.16.16,0,0,1-.05.12c-.09.36,0,.48.42.62v.06c.05.08.1.19.22.22s.24,0,.27.13h.11a.12.12,0,0,0,.07,0s.07-.06.1-.06.1,0,.13.15.13.08.13.13,0,.1-.13.19a.23.23,0,0,1,.2,0,.3.3,0,0,1,.05.18c.49.06.5.07.58.51a1,1,0,0,0,.05.16.44.44,0,0,1,0,.34v.06a.876.876,0,0,1-.07.14.21.21,0,0,1,.17.13.39.39,0,0,1,0,.35v.11a.35.35,0,0,1-.06.17.22.22,0,0,0,0,.11.21.21,0,0,0,.15,0c.1,0,.16,0,.17.07a.15.15,0,0,1,0,.14,1.36,1.36,0,0,0,.45,0h.29a.29.29,0,0,1,0,.26.249.249,0,0,0,0,.09h.14a.11.11,0,0,1,.11.07.2.2,0,0,1-.09.24.14.14,0,0,0-.06.08h.06v-.05a.15.15,0,0,1,.09-.07.09.09,0,0,1,.06,0,1.1,1.1,0,0,1,.09.87c0,.06-.09.13-.15.14s-.11,0-.15-.13-.17,0-.2-.06,0-.12,0-.19v-.14a1,1,0,0,1-.27.34.521.521,0,0,0-.11.1.16.16,0,0,1-.1.05c-.07,0-.12-.05-.14-.16a.183.183,0,0,0-.22-.17l-.45.08h-.28a.23.23,0,0,1-.27-.1.24.24,0,0,1,0-.29h0a.27.27,0,0,1,.05-.39.41.41,0,0,0,.11-.19,2.87,2.87,0,0,1,.17-.67.29.29,0,0,0,0-.16.24.24,0,0,1,0-.23l.05-.09.05-.17h-.1a.79.79,0,0,0-.51.43,1,1,0,0,1-.8.54h-.48a3.68,3.68,0,0,0-.56.06,2.31,2.31,0,0,0-.7.24.05.05,0,0,1,0,.06.13.13,0,0,1,0,.12.16.16,0,0,1,0,.12c0,.18-.14.21-.24.24h-.12c0,.08,0,.11-.09.13s0,.1,0,.1h.15a.15.15,0,0,1,.09-.06.13.13,0,0,1,.09-.07.14.14,0,0,1,.1-.08.73.73,0,0,1,.42-.21h.3a.3.3,0,0,1,.35.25c.06.2-.05.29-.16.38s0,.08-.07.09a.34.34,0,0,1,.08.42l.05.08a.35.35,0,0,1,.09.17.565.565,0,0,0,.05-.08.124.124,0,0,1,.1-.12.32.32,0,0,0,.39.22h.12a.45.45,0,0,1,.28,0,.21.21,0,0,1,0,.2v.06h.17a.179.179,0,0,0,.06-.05.49.49,0,0,1,.05-.25v-.09l.05-.12v-.08a.281.281,0,0,1,0-.09.1.1,0,0,1,.07,0c.13,0,.19.07.18.17a.28.28,0,0,1,0,.09.22.22,0,0,0,0,.11h.1a.15.15,0,0,1,.15.11.16.16,0,0,1-.08.19.17.17,0,0,1-.15.14.19.19,0,0,1-.11.07h-.07a.14.14,0,0,0,0,.09.12.12,0,0,1,0,.09l-.21.13a4.65,4.65,0,0,1-.78.45s0,.06,0,.07c-.27.43-.29.44-.31.45s-.06.09-.1.1-.1,0-.21-.12a.44.44,0,0,1-.15-.36.54.54,0,0,1,.27-.39.741.741,0,0,1,.09-.12.09.09,0,0,0,0-.06.14.14,0,0,0-.11,0c0,.11-.12.13-.2.15h-.14c-.09,0-.15,0-.16.22a.5.5,0,0,1-.4.39h-.15a.18.18,0,0,0-.1.07v.06a.1.1,0,0,1-.06,0c-.25.1-.3.33-.35.57a1.551,1.551,0,0,1,0,.21.166.166,0,0,0,.06.16.35.35,0,0,1,.08.13h0s.05-.08.1-.09.1.15.08.2a.223.223,0,0,1-.15.13h-.1a.92.92,0,0,0-.59.43.49.49,0,0,1-.26.18.264.264,0,0,0-.21.15,1.241,1.241,0,0,0,0,.22,1.151,1.151,0,0,1-.11.39.55.55,0,0,0-.12.31.75.75,0,0,1-.09.29.14.14,0,0,1,0,.13.74.74,0,0,1-.09.33,1.062,1.062,0,0,0-.06.19.82.82,0,0,1,.12.61.08.08,0,0,1,0,.07c-.06.08-.07.09-.09.1-.09.25-.2.47-.45.54a.29.29,0,0,1-.17.28,1,1,0,0,0-.38.37v.06h-.05a.56.56,0,0,1-.24.31,1.06,1.06,0,0,0-.31,1.08,2.723,2.723,0,0,0,.11.25c.12.28.25.56.38.83a1.48,1.48,0,0,1,.11.79.37.37,0,0,1-.26.35h-.06c-.09,0-.12-.06-.14-.12l-.05-.07a2.06,2.06,0,0,1-.35-.47l-.12-.17a.9.9,0,0,1-.18-.51.88.88,0,0,0-.07-.33l-.26-.23a.14.14,0,0,0-.09,0,.48.48,0,0,0-.19.09l-.11.06c-.06,0-.09.07-.12.07a.088.088,0,0,1-.1-.07.11.11,0,0,1-.11-.06.44.44,0,0,0-.38-.09.66.66,0,0,0-.2.07,1,1,0,0,1-.19.07h-.18c-.07,0-.17,0-.2.11a.31.31,0,0,0,0,.25h.05a.1.1,0,0,1,0,.09.12.12,0,0,1,0,.09.1.1,0,0,1-.08,0,.09.09,0,0,1-.09,0h-.11a.46.46,0,0,1-.2.1.44.44,0,0,1-.37-.11h-.69c-.22,0-.31.13-.43.4h0c-.21,0-.29.22-.37.4a2.176,2.176,0,0,1-.12.22.48.48,0,0,0,0,.52.28.28,0,0,1,0,.33.16.16,0,0,1-.1.12,3.379,3.379,0,0,0,.14,1.2v.12c.07,0,.07.06.07.09a.3.3,0,0,1,0,.17c0,.07,0,.07,0,.09s.12.06.13.15.07.05.09.08a.4.4,0,0,1,.13.22.16.16,0,0,1,.07.12.1.1,0,0,1,.09.07h0c.14,0,.24,0,.31.12h.1a.78.78,0,0,0,.24-.09h.1a1,1,0,0,1,.32-.11h.16c.11,0,.14-.1.18-.2a.529.529,0,0,1,.08-.17,1.509,1.509,0,0,0,0-.29c0-.15,0-.3.11-.38a2.16,2.16,0,0,1,.78-.38.82.82,0,0,1,.27,0,.25.25,0,0,1,.21.1v.27a.14.14,0,0,1,0,.13,1.361,1.361,0,0,0,0,.4,6.152,6.152,0,0,1-.2,1.76.918.918,0,0,0,0,.22.22.22,0,0,0,.1,0h.24a1.821,1.821,0,0,0,.5-.12l.17-.05a1,1,0,0,1,.8.23c.12,0,.12.15.12.24v.76a1.34,1.34,0,0,0,.11.71h0l.13.15.08.09a.24.24,0,0,1,.24.14.49.49,0,0,0,.39.1.78.78,0,0,0,.4-.21.64.64,0,0,1,.31-.15.68.68,0,0,1,.48.12.78.78,0,0,1,.22.13l.08.06a.44.44,0,0,1,.19-.22.46.46,0,0,0,.15-.45.24.24,0,0,1,0-.15.14.14,0,0,1,.08-.05,1.1,1.1,0,0,1,.58-.38h.07a.81.81,0,0,0,.46-.36.233.233,0,0,1,.39-.09.17.17,0,0,1,.06.12c0,.08-.05.12-.1.17a.15.15,0,0,0-.06.1.18.18,0,0,0,0,.09.08.08,0,0,0,.08,0,.24.24,0,0,1,.08-.06l.08-.07c.05,0,.11-.09.11-.19a.17.17,0,0,1,.11-.16.163.163,0,0,1,.18.12c.05.12.12.09.23.09a.41.41,0,0,1,.43.19.14.14,0,0,0,.15.06h.13a.589.589,0,0,1,.14,0h.18a.19.19,0,0,1,.22.12.28.28,0,0,0,.13,0,1,1,0,0,0,.22-.08c.06,0,.09,0,.09-.09s0-.2.1-.21a.4.4,0,0,1,.2,0,.12.12,0,0,0,.12,0h.51a.18.18,0,0,1-.08.21.059.059,0,0,0-.06.06c0,.06.07.06.09,0s.08-.1.07-.15.07-.2.14-.21a1.425,1.425,0,0,1,.21,0,.15.15,0,0,1,0,.08c0,.12,0,.26-.14.32H382c.08.22.25.26.44.3a.55.55,0,0,1,.28.1.4.4,0,0,1,.33.29c0,.06,0,.08.1.1a.17.17,0,0,1,.11.08.13.13,0,0,1,.15,0,.39.39,0,0,0,.35.12h.42a2.05,2.05,0,0,1,1.19.19l.24.13a.2.2,0,0,0,.13.06.27.27,0,0,1,.17.11.8.8,0,0,1,.22.32,1.42,1.42,0,0,0,.08.18h0a.39.39,0,0,0,.19.19.27.27,0,0,1,.11.1.31.31,0,0,1-.06.22h0c.05.18.18.18.32.19h.18c.09,0,.18,0,.22.13s0,0,.06,0h.2a1.61,1.61,0,0,1,.69.06h.14a.62.62,0,0,1,.45.25.09.09,0,0,0,.05,0,.55.55,0,0,1,.19-.09.63.63,0,0,1,.3,0h.12a1.22,1.22,0,0,0,.43,0h.27a.8.8,0,0,1,.78.24.11.11,0,0,1,.12,0c.08,0,.15,0,.17.1s.07,0,.11,0a.78.78,0,0,0,.37,0h.15a.32.32,0,0,1,.28.11,1.5,1.5,0,0,1,0,1.41.179.179,0,0,1-.13.19.9.9,0,0,1-.28.43l-.08.08-.13.21a.11.11,0,0,1,0,.11.19.19,0,0,0,0,.07.43.43,0,0,1-.21.32.1.1,0,0,1-.1.07,1,1,0,0,0,0,.63,2.29,2.29,0,0,1,0,.69.661.661,0,0,0,0,.14.42.42,0,0,1-.14.29,1,1,0,0,1,0,.17.59.59,0,0,1-.18.52.23.23,0,0,1-.09.21.66.66,0,0,0-.08.21.881.881,0,0,1-.13.28c0,.07-.05.09-.09.11s-.05.07-.08.07a.1.1,0,0,1-.07.07l-.13.11h-.32a2.26,2.26,0,0,0-.64.32,2.069,2.069,0,0,1-.25.4Zm7.4-38.88a.12.12,0,0,0-.11,0c-.06,0-.13,0-.14.09a.39.39,0,0,0,.26.17c.05,0,.05-.06,0-.1s.02-.14-.01-.16Zm-28.84-4.75a.249.249,0,0,1,0,.07.125.125,0,0,1,0,.16c-.07.07-.13.2-.11.24s.06,0,.12,0,0,0,0,.07v.19a1.23,1.23,0,0,0,.47-.15l.2-.11h.1a.65.65,0,0,0,.22,0,.62.62,0,0,0,.15-.14h.07l.11-.08h.21l.3-.15c.24-.12.56-.28,1-.48h.08c.19-.08.43-.21.59-.29l.11-.06a.08.08,0,0,0,.1,0,1.07,1.07,0,0,0,.32-.08,2,2,0,0,0,.42-.24l.15-.09c.15-.09.19-.12.15-.19s0-.05,0-.08h.14a.42.42,0,0,0,.15-.11c.05-.07,0-.09,0-.11a.14.14,0,0,0-.11,0,.57.57,0,0,0-.13.08h-.08l.23-.23c.07-.06.06-.08.06-.1,0-.2-.25-.14-.53-.06h-.18a.16.16,0,0,0-.1,0,.22.22,0,0,0-.11,0l-.16.06a2,2,0,0,0-.38.22l-.12.08a6.221,6.221,0,0,0-.92.55l-.18.13h-.21a.47.47,0,0,0-.18,0h-.06l-.19.12a.24.24,0,0,1-.23,0,.49.49,0,0,0-.1.09.16.16,0,0,1-.05.06h0c.05,0,.12-.15.07-.17a1,1,0,0,0-.26.06c-.14.06-.26.1-.24,0h.2a.49.49,0,0,0,.19-.14c.09-.07.15-.13.14-.16a.164.164,0,0,1,0-.07h.25a.61.61,0,0,0,.23-.07.39.39,0,0,0,.19-.15.25.25,0,0,0,.1,0,3.315,3.315,0,0,0,.53-.19l.4-.16h.16a.1.1,0,0,0,0-.09.08.08,0,0,1,0-.08h.14a.14.14,0,0,0,.15,0,.88.88,0,0,0,.17-.12.29.29,0,0,0,.16,0,.66.66,0,0,0,.16-.12h.41v.09c0,.09-.09.11,0,.11h.07a.54.54,0,0,0,.18-.11h.13a.59.59,0,0,0,.17-.13.76.76,0,0,0,.21-.13.83.83,0,0,0,.17-.12c.33-.2.46-.37.36-.46s0,0-.09,0a.5.5,0,0,0-.13.1,1.3,1.3,0,0,0-.12.06h0a.28.28,0,0,0,.08-.08h-.07a.28.28,0,0,0-.14,0l.25-.12h.07a.771.771,0,0,0,.21-.14l-.33.16c-.3.14-.61.28-.9.43s-.65.34-1,.52l-.19.1c-.77.44-1.51.9-2.22,1.4h0l-.16.07h-.09c-.18-.23-.56.05-.93.34Zm-6.43,7.09a1,1,0,0,0,.22-.41l-.3.44a.338.338,0,0,1,.08-.03Zm35.8.56c.25-.07.28-.23.28-.3a.24.24,0,0,0-.07-.21.05.05,0,0,0-.05,0h-.06C396.71,47.05,396.76,47.24,396.85,47.44ZM358,59.71l-.11.08h-.16a.33.33,0,0,0-.11.13.28.28,0,0,0,0,.18.61.61,0,0,0,.09.16.45.45,0,0,1,.1.18c.09.34.31.3.32.3a2.29,2.29,0,0,1-.11-1,.15.15,0,0,0-.02-.03ZM400.28,50c0-.05-.06-.07-.08-.08a.07.07,0,0,0-.05,0h-.07c-.14,0-.25,0-.31-.2l-.06-.05c-.06-.05,0-.14,0-.19a.15.15,0,0,0-.08-.14h-.06a.33.33,0,0,0-.13-.17.21.21,0,0,0-.18-.1c-.1-.19-.24-.56-.55-.65a.14.14,0,0,0-.1-.06.41.41,0,0,1,0-.34v-.17c0-.03.11-.3,0-.44a.22.22,0,0,0-.17-.07h-.11a.19.19,0,0,1-.1,0h-.19c-.07,0-.07-.1-.07-.2s.06,0,.07-.07.1-.12.06-.25a.23.23,0,0,0-.25-.12.62.62,0,0,0-.52.36.2.2,0,0,0,0,.11.14.14,0,0,1,0,.09v.18l-.1-.06c-.1-.06-.07,0-.08,0a.19.19,0,0,0-.05.19.28.28,0,0,0,.15.13h.19a.27.27,0,0,1,0,.14c0,.08-.07.15,0,.22a.33.33,0,0,0,.24.09l-.06.09a.27.27,0,0,1-.1.11.11.11,0,0,0-.05.15.16.16,0,0,0,.17.08h.08c.01,0,0,0,0,.08a.18.18,0,0,1-.08.06h-.11a.6.6,0,0,0-.26-.08.37.37,0,0,0-.22.15l-.06.05v.09c-.15.07-.08.2,0,.28v.07h-.21c-.15,0-.17.12-.19.23s0,.12.05.13,0,.19,0,.23.12.1.2.13a.112.112,0,0,0,.11,0,.07.07,0,0,1,0,.06.4.4,0,0,0-.07.21c0,.1,0,.19-.12.21a.11.11,0,0,0,0,.11.369.369,0,0,1,.05.11.35.35,0,0,0,.22.24.26.26,0,0,0,.15,0,.32.32,0,0,0,.22-.15.11.11,0,0,0,.09-.07,1,1,0,0,1,.48-.23c.13,0,.17-.06.17-.14v-.12a1.21,1.21,0,0,0-.12-.69c-.08-.13,0-.18,0-.24a.18.18,0,0,0,.08-.19.1.1,0,0,0-.05-.08.561.561,0,0,1-.14-.2.591.591,0,0,0-.1-.17h.07a.08.08,0,0,1,.08-.07h.06c.05,0,0,.08,0,.17a.19.19,0,0,0,0,.18.15.15,0,0,0,.1.07h.18v.22a.134.134,0,0,0,.06.13.15.15,0,0,0,.12,0c.06-.07,0-.16,0-.23V49c0-.03.06,0,.14,0s0,0,0,.07v.11c0,.03,0,0,.07,0s0,.09.11.13a.23.23,0,0,1,.12.24c0,.06,0,.06-.08.07a.25.25,0,0,0-.09,0,.13.13,0,0,1-.11,0,.2.2,0,0,0-.11,0h0a.21.21,0,0,1,0,.3v.13h.15a.08.08,0,0,1,.08,0,.23.23,0,0,1,.05.12l-.06.1a.15.15,0,0,0-.11.11h-.05a.18.18,0,0,0-.09.08.22.22,0,0,0,.05.16.15.15,0,0,0,.12.07h.23a.3.3,0,0,0,.13,0h.06v.05a.09.09,0,0,0-.06,0c-.14.14-.15.19-.15.23a.08.08,0,0,0,0,.11.38.38,0,0,0-.14.26.13.13,0,0,0,0,.13h.06a2.479,2.479,0,0,0,.51-.23l.11-.05v-.06a.19.19,0,0,1,.1-.1.34.34,0,0,0,.2.07.46.46,0,0,0,.16-.07.8.8,0,0,1,.37-.11.6.6,0,0,0,.5-.26c.06-.08.08-.13.06-.17s-.07-.06-.15-.06a.09.09,0,0,1-.09-.06.45.45,0,0,0-.29-.37Zm3.44-1.42c.06,0,.06-.05,0-.08s-.13-.15-.2-.16-.05.07,0,.1a.2.2,0,0,0,.2.16Zm.5-1.09c.1-.13.18-.24.08-.42a.13.13,0,0,1,0-.06.118.118,0,0,0-.11-.14.09.09,0,0,0-.1.07.64.64,0,0,0,.07.51s.04.06.06.06ZM414,58.4c.1.64.17,1.28.23,1.91a.4.4,0,0,0-.15,0c-.05,0-.07-.1-.09-.18v-.06c0-.11-.05-.16-.07-.16a.271.271,0,0,0,0,.08.17.17,0,0,1-.11.13.21.21,0,0,1-.19-.09.42.42,0,0,1-.15-.15.58.58,0,0,0-.15-.13.25.25,0,0,1,0-.11l-.15-.34v-.05a.12.12,0,0,1,0-.09.074.074,0,0,0-.07-.07.084.084,0,0,1-.09-.06c-.02-.06-.06,0-.07.11v.11a1.709,1.709,0,0,1,.07.26.38.38,0,0,1,.08.18.12.12,0,0,1,.05.08c.12.17.2.28.24.35a.364.364,0,0,0,.09.12h.1a.38.38,0,0,1,.06.23.15.15,0,0,0,0,.07.689.689,0,0,0,0,.24h.1c.11,0,.14,0,.16-.1a.228.228,0,0,0,0-.13.689.689,0,0,0,0-.16,1.529,1.529,0,0,1,.05-.31h0a.17.17,0,0,1,.05.12,1.37,1.37,0,0,0,.13.52h.08a.29.29,0,0,1,.12.09c0,.35,0,.69,0,1v.91a.872.872,0,0,0-.05.27v.06a.18.18,0,0,0-.14.11l-.06.1c0,.22,0,.31-.06.37a2.986,2.986,0,0,1-.18.24l-.07.09a.06.06,0,0,1,0,.06v.07c0,.01-.05.15-.09.17a.12.12,0,0,0-.07,0,.29.29,0,0,1-.19.25h-.06a.33.33,0,0,1-.07.16.14.14,0,0,1-.07.09c-.12.12-.12.18-.12.23v.14a.19.19,0,0,1,.08.11s.05,0,.07.08a.08.08,0,0,0,.11,0,.16.16,0,0,1,0-.07s.06-.06.08-.06a.6.6,0,0,0,.19-.17.56.56,0,0,1,.2-.18.37.37,0,0,0,.16-.2.09.09,0,0,1,0-.06h.05a.51.51,0,0,1,.06.21,1.21,1.21,0,0,0,0,.21.34.34,0,0,1,0,.08.38.38,0,0,0,0,.24.4.4,0,0,1,0,.19.42.42,0,0,1,0,.16,6.052,6.052,0,0,1-.13,1l-.06.42-.12.71a.81.81,0,0,1-.1.18c0,.11,0,.16-.06.18a1,1,0,0,1-.13.41.29.29,0,0,1-.05.14h0v.08a.561.561,0,0,1,0,.13h0a.14.14,0,0,1,0,.1.65.65,0,0,1-.08.21v.13a.12.12,0,0,1,0,.1h0s0,.06,0,.08a3.329,3.329,0,0,1-.16.6.37.37,0,0,0,0,.29.78.78,0,0,1,0,.43,2.361,2.361,0,0,0,0,.28,29.08,29.08,0,0,1-6,10.49.11.11,0,0,1-.07-.11v-.2a.12.12,0,0,1,0-.13.42.42,0,0,1,.07-.15.3.3,0,0,0,.07-.27v-.23a3.855,3.855,0,0,1-.06-.69c-.14,0-.21-.12-.19-.35a3.011,3.011,0,0,0,0-.43,7.388,7.388,0,0,1,.07-.91,1.425,1.425,0,0,0,0-.19v-.22a1.6,1.6,0,0,1-.12-.37,1.14,1.14,0,0,0-.09-.3s-.05,0-.05-.08a.19.19,0,0,1-.06-.15,1.15,1.15,0,0,1,0-.63v-.06a4.55,4.55,0,0,1,.4-1.19.14.14,0,0,1,0-.06,1.37,1.37,0,0,0,.26-.83c-.15,0-.14-.25-.11-.42a.49.49,0,0,0,0-.32,6.891,6.891,0,0,1-.23-.81v-.12a.76.76,0,0,1-.26-.25.062.062,0,0,1-.06-.07.91.91,0,0,1-.22-.2.389.389,0,0,0-.08-.1.07.07,0,0,1-.06,0,.55.55,0,0,1-.15-.28v-.06a.11.11,0,0,1-.06-.09.12.12,0,0,1,0-.09.79.79,0,0,0,.07-.4v-.18a.27.27,0,0,1,0-.23.311.311,0,0,0,0-.08V70.2a.61.61,0,0,0,0-.3.14.14,0,0,1-.08-.07.055.055,0,0,0-.06-.06v.08a.2.2,0,0,1-.1.21h-.11a.24.24,0,0,1,0-.26v-.08a.13.13,0,0,0-.07,0,.26.26,0,0,1-.11.08h-.23c-.08.1-.14.18-.22.2s-.09,0-.15,0a.05.05,0,0,1-.06,0c-.12,0-.14-.12-.16-.22a.5.5,0,0,0,0-.13h-.07a.81.81,0,0,0-.52,0,1.13,1.13,0,0,0-.54.3.37.37,0,0,1-.21.13h-.13a1.09,1.09,0,0,1-.35.29.08.08,0,0,1-.07.07.128.128,0,0,1-.1.11.28.28,0,0,1-.15,0,1.31,1.31,0,0,0-.56,0,2,2,0,0,0-.52.22.44.44,0,0,1-.16.09.46.46,0,0,1-.25.2.43.43,0,0,1-.28,0l-.24-.06h-.14a.15.15,0,0,1-.13-.06l-.19-.12-.11-.07a3.348,3.348,0,0,0-.45-.26h-.18a.33.33,0,0,0-.14,0h-.07c-.01,0,0-.06,0-.1V70.3h0a1.17,1.17,0,0,0-.59-.74l-.26-.19a.25.25,0,0,0-.18-.16l-.13-.07-.08-.05c-.22-.12-.29-.32-.23-.64a.27.27,0,0,1-.11-.14.2.2,0,0,1-.12-.13c-.08,0-.12,0-.13-.08s.08-.14.2-.24a.92.92,0,0,0,.07-.31c0-.2.05-.43.07-.65a.64.64,0,0,0-.12-.45.31.31,0,0,1,0-.39v-.1l-.08-.14c-.27-.22-.3-.31-.19-.74l.07-.06a1.67,1.67,0,0,1,.12-.5.89.89,0,0,1,.12-.4.588.588,0,0,0,0-.08.36.36,0,0,1,.07-.18v-.15a.55.55,0,0,1,.1-.37l.08-.11.09-.12a1,1,0,0,1,.6-.85.05.05,0,0,1,0-.06.58.58,0,0,1,.19-.25l.07-.11a.39.39,0,0,1,.06-.18.11.11,0,0,1,0-.11c-.08-.23-.23-.7,0-.83a.93.93,0,0,1,.29-.76.55.55,0,0,1,.2-.2.81.81,0,0,0,.23-.55v-.15a.32.32,0,0,1,.08-.21h0v-.09c0-.02,0,0-.09,0s-.12-.1-.15-.18a.14.14,0,0,1-.07-.1.35.35,0,0,0-.29-.09,1.11,1.11,0,0,0-.22.07h-.12a.19.19,0,0,1-.15,0,.38.38,0,0,1-.06-.26c0-.15,0-.29-.18-.36s-.13-.2-.11-.51v-.37a1.76,1.76,0,0,0-.31-1.18.16.16,0,0,1,0-.19l.09-.11c.09-.12.17-.24.31-.26h.42a9.22,9.22,0,0,1,1.29,0h.07c.14,0,.2-.11.19-.27V54.6a2.681,2.681,0,0,0-.23-1.05.25.25,0,0,1-.22-.15.74.74,0,0,0-.8-.47c-.15,0-.21-.15-.25-.27v-.08c-.06-.13,0-.17.09-.2a.7.7,0,0,1,.29-.11.64.64,0,0,1,.27,0,.3.3,0,0,0,.17,0,.05.05,0,0,0,.06,0,.508.508,0,0,0-.08-.32c-.08-.08-.09-.16,0-.23a.12.12,0,0,1,.09,0,.27.27,0,0,1,.18.07.39.39,0,0,0,.2.08.16.16,0,0,0,.13-.11.52.52,0,0,1,.22-.26l.06-.07s.07-.06.05-.12c-.08-.35.13-.41.33-.46s.24-.32.26-.54a2.162,2.162,0,0,1,0-.25.3.3,0,0,0,0-.16c-.06-.22.1-.27.27-.32a.6.6,0,0,0,.38-.21.1.1,0,0,1,.08,0h.06a.767.767,0,0,0-.05-.3v-.2c-.07-.21-.08-.26-.23-.37a1.1,1.1,0,0,1-.19-.86s0-.09.06-.09.17-.2.23-.27a.17.17,0,0,0,.06-.07s0-.07.09-.07h0a.2.2,0,0,1,.1.16.638.638,0,0,1,0,.07.41.41,0,0,1,0,.22c0,.09,0,.15,0,.19a.15.15,0,0,0,.11,0,.13.13,0,0,1,.1.06.16.16,0,0,1,0,.15l-.05.06a.08.08,0,0,0,0,.06l-.06.09h.09a.15.15,0,0,0,.13-.08c.1-.16.13-.17.21-.17s.08-.07.09-.13v-.08a.28.28,0,0,0-.11-.16.53.53,0,0,1-.11-.14.16.16,0,0,1-.09-.09h0a3.305,3.305,0,0,0-.21-.32,2,2,0,0,1-.3-.56.26.26,0,0,0-.07-.13.11.11,0,0,0-.07,0c0,.05,0,.12-.1.12h-.12v.05a.2.2,0,0,1-.12.27c0,.09,0,.13-.12.14a.23.23,0,0,1-.22.16.37.37,0,0,1-.25-.08.13.13,0,0,0-.07,0,.18.18,0,0,1-.09-.07.469.469,0,0,0-.12-.09c-.12-.1-.17-.13-.18-.21a.15.15,0,0,1,.08-.16v-.11a.06.06,0,0,0-.07,0h-.07a.123.123,0,0,1-.11-.08.12.12,0,0,1,0-.1.14.14,0,0,1,.11-.06.29.29,0,0,0-.1-.15.451.451,0,0,1-.11-.13c-.06-.08-.09-.13-.05-.18a1.15,1.15,0,0,1-.24-.68.42.42,0,0,1-.08-.22.349.349,0,0,0,0-.14h0a.06.06,0,0,1,.06,0c.08-.1.24-.27.3-.28h.08c-.05,0-.09-.06-.1-.1a.06.06,0,0,1,.05-.08.12.12,0,0,1,.11-.09.33.33,0,0,1,.07-.17.25.25,0,0,0,.05-.19.08.08,0,0,1,.07-.07.3.3,0,0,0,.13,0c.07,0,.07-.06.06-.16a.873.873,0,0,1,0-.17l.06-.13a.51.51,0,0,0,.07-.15v-.11a1,1,0,0,0,0-.23V42.6a.55.55,0,0,0,0-.23.27.27,0,0,1,0-.27.19.19,0,0,0,0-.24.25.25,0,0,1,0-.12.08.08,0,0,1,0-.07s0-.08.06-.08a.72.72,0,0,1,0-.39.6.6,0,0,0,0-.35v-.07a.25.25,0,0,0-.11,0h-.06s0,.06-.08.06h-.06a.16.16,0,0,1,0-.17.13.13,0,0,0,0-.09h-.06a.14.14,0,0,1-.11,0,.18.18,0,0,1-.05-.07.11.11,0,0,1,0-.08.13.13,0,0,0,0-.12.21.21,0,0,1,.15.09h0a.13.13,0,0,0,0-.08c0-.11-.1-.25.06-.24a.26.26,0,0,1,.08.2.88.88,0,0,1,.24.21h0c.07,0,.09,0,.06-.1a.22.22,0,0,0-.07-.09c-.19-.08-.21-.12-.25-.28h0v-.08c0-.01.11,0,.13-.06s0-.09.09-.08a.5.5,0,0,1-.11-.16c.12,0,.1,0,0-.1a.52.52,0,0,1,.27.15c-.05-.06-.05-.09,0-.12s.05,0,.06,0,.12.12.1.17a.15.15,0,0,1-.1,0c-.08,0-.1,0-.06.1s.05,0,.09,0a.3.3,0,0,1,.12.08.28.28,0,0,0,0-.08.32.32,0,0,0-.06-.16.058.058,0,0,1,.1-.06h.07a.42.42,0,0,1-.16-.12c-.08-.08-.06-.1,0-.11a1.09,1.09,0,0,1,.22,0h.13a.11.11,0,0,1,0-.05c0-.09,0-.18.12-.16a.23.23,0,0,1,.11.06.21.21,0,0,1,.08.11v-.04a.25.25,0,0,1,.12.1l.12.17a.186.186,0,0,0-.05-.12v-.09h0s-.06-.09,0-.09a.84.84,0,0,1,.28.17.66.66,0,0,1,.21.11.34.34,0,0,0,.11,0l.09.06a1.334,1.334,0,0,1,.16.12.68.68,0,0,1,.17.15v.14h0l.08.07v.07h.12a.34.34,0,0,1,.12.06c0-.07,0-.12,0-.12h.08l.26.22.07.06.07.07.12.08c.41.34.81.7,1.2,1.06s.78.75,1.15,1.13l-.19-.06-.25-.1-.31-.13h-.06a.55.55,0,0,1-.26-.16.14.14,0,0,0-.09,0h-.07a.6.6,0,0,0,.12.11.688.688,0,0,1,.13.11l.09.07a.87.87,0,0,1,.41.53l.15.2a1.1,1.1,0,0,0,.41.42.49.49,0,0,1,.13.12l.08.05.22.12h.07a.479.479,0,0,0-.1-.15h-.06a.34.34,0,0,1-.21-.14.3.3,0,0,1-.12-.12c-.15-.14-.16-.16-.13-.26s0,0,0-.06a.06.06,0,0,1,.06,0h.08l.22.15a3.49,3.49,0,0,0,.44.2c.42.48.82,1,1.2,1.46s.72,1,1.06,1.46l.11.16a29.489,29.489,0,0,1,2.66,5v.07a28.5,28.5,0,0,1,1.68,5.66A2.546,2.546,0,0,1,414,58.4ZM400.94,40.67a.249.249,0,0,0,0-.09v.08ZM409.39,53a.23.23,0,0,0,0,.09h.21a.33.33,0,0,0,.22-.06V53a.18.18,0,0,1,0-.11.141.141,0,0,0,0-.06h0c-.05-.18-.09-.18-.11-.18l-.16.08-.11.06c0,.09,0,.12-.08.13s0,0,0,.12Zm-1.2,1.62a.57.57,0,0,1,.15.26l.08.05h.17a1.22,1.22,0,0,0,.32,0H409a.07.07,0,0,1,0-.07s0-.07.05-.08v-.06a.54.54,0,0,1,.38-.19.33.33,0,0,1,.23.06l.05.05c.05.05.12,0,.16,0a.331.331,0,0,1,0,.13h.07a.62.62,0,0,0,.28.09.39.39,0,0,0,.15-.06h.21c0-.06,0-.09.06-.1s0-.06,0-.06v-.3l-.13-.21h-.06a.19.19,0,0,1-.1-.1h-.05a.35.35,0,0,1-.15-.21.16.16,0,0,1-.1-.1c-.07,0-.11-.08-.13-.13a.19.19,0,0,0-.1-.05.29.29,0,0,1-.19-.2h-.2c-.08,0-.13.08-.18.16s-.1.14-.18.15-.12-.07-.15-.2-.06-.15-.13-.18a.17.17,0,0,1-.1-.11c0-.06,0-.1.11-.17s0-.08,0-.08h-.13a.25.25,0,0,1-.22-.16c0-.05,0-.05-.05-.05h-.06a1.1,1.1,0,0,1-.07.17.17.17,0,0,1,0,.05c-.05.14-.05.16-.06.18a.21.21,0,0,0,0,.14.42.42,0,0,1-.06.38.32.32,0,0,0,0,.22c0,.15,0,.18,0,.25l-.06.19a.71.71,0,0,0,.1.36Zm-3.42-12.77h0s.02.03,0,.02Zm-1.72,6.93a.27.27,0,0,0,.12,0l.05-.06c.05-.06,0-.07.07-.07h.07a.27.27,0,0,1,.14.2.4.4,0,0,0,.07.16.22.22,0,0,0,.17-.07.47.47,0,0,1,.19-.12H404l.06-.06a.75.75,0,0,1,.45-.22h.08a.19.19,0,0,1,.17,0,.38.38,0,0,1,.06.19.21.21,0,0,0,.14-.12s0-.07,0-.09v-.15c0-.06.14,0,.15-.1a.53.53,0,0,0-.12-.31.449.449,0,0,1-.05-.1.429.429,0,0,0,0-.14.37.37,0,0,1,0-.32.1.1,0,0,1,0-.06.389.389,0,0,0,0-.09V47.1c0-.03.08-.18.14-.18s.12,0,.19.14a.28.28,0,0,1,.12.12h.06a.2.2,0,0,0,.11.07c.07,0,.05-.07,0-.14v-.3a.25.25,0,0,0-.05-.13.08.08,0,0,0-.06,0,.16.16,0,0,1-.17-.1h-.07c-.07,0-.15.06-.13.19-.14-.13-.19-.19-.2-.24s0-.06.09-.1a.31.31,0,0,1-.15-.13.14.14,0,0,1,0-.06.07.07,0,0,1,.05,0h.06a.12.12,0,0,1,.09.06.19.19,0,0,1,.07.12.07.07,0,0,1,0,.06.19.19,0,0,0,.09,0h.07v-.06c-.07-.12-.17-.28-.06-.37a.66.66,0,0,1,.47-.2.63.63,0,0,1,.28.08h.11a.13.13,0,0,1,.1-.16.09.09,0,0,0,.07,0c0-.07.05-.07.1-.07h0c-.1,0-.19,0-.25-.12s-.12-.13-.16-.13h-.13a.59.59,0,0,0-.45.21.23.23,0,0,1-.2.09h-.17a.62.62,0,0,0-.18,0h-.07c-.02,0,0,0,0-.08v-.06a.18.18,0,0,1-.08,0l-.15-.09a.21.21,0,0,1-.14-.15,4.179,4.179,0,0,0-.52-1.09.32.32,0,0,1-.05-.23.23.23,0,0,1,.17-.21.449.449,0,0,0,0-.08,1.184,1.184,0,0,1,0-.14c0-.08,0-.12,0-.14a.748.748,0,0,0,0-.11v-.15a.416.416,0,0,1,0-.07c-.07-.16-.05-.24.06-.25a1.26,1.26,0,0,0-.19-.28l-.14-.1-.12-.1h-.31v.07a.09.09,0,0,1,0,.11h0v.1a.33.33,0,0,1,.05.18.15.15,0,0,0,.05.13c.15.15.19.28.12.4s0,.08,0,.14v.08a.17.17,0,0,1-.11.11.21.21,0,0,1-.12.11,1.07,1.07,0,0,0,0,.84.3.3,0,0,1,0,.18.47.47,0,0,0,.09.3l.07.16c.11,0,.13,0,.15.07h.07l.08.05a.24.24,0,0,1,.14.14.14.14,0,0,0,.05.07c.11.1.11.12.12.21a.825.825,0,0,0,0,.14.41.41,0,0,1,0,.29c0,.08,0,.09-.07.09s-.13,0-.17.18v.07a.38.38,0,0,1,.1.24,2.092,2.092,0,0,0,.08.34.649.649,0,0,1,0,.13H404a.3.3,0,0,1,0,.1c0,.36,0,.47-.34.51-.11,0-.15,0-.13.14s0,.26-.15.27h-.08c-.22,0-.19.16-.17.26v.06s-.13.11-.08.11Zm-.67-.11a.31.31,0,0,0,.06.16.3.3,0,0,0,.18,0h.13a.17.17,0,0,1,0,.15.15.15,0,0,0,.13-.06h0v-.09c0-.01,0,0-.11,0h-.22c-.07,0-.11,0-.13-.07a.1.1,0,0,0-.11-.09c-.05,0,.07.01.07.02Zm-.12-.13.06.08c-.06-.07-.06-.07-.06-.06ZM410.06,59a.38.38,0,0,0,.2-.15.1.1,0,0,1,0-.09s0-.08,0-.1a1.56,1.56,0,0,1,0-.57.151.151,0,0,1,0-.06,1.93,1.93,0,0,0,0-.9s0-.06,0-.09v-.09c0-.02,0,0-.06,0H410l-.06.09-.06.07a.32.32,0,0,1-.17.12.21.21,0,0,1-.14,0,1,1,0,0,1-.24-.16h-.12s-.07.25-.16.26a.18.18,0,0,1-.16-.08c-.06-.07-.11-.12-.14-.12s0,.06,0,.17,0,.13-.08.14a.1.1,0,0,1-.07-.05.2.2,0,0,1,0-.18.21.21,0,0,1,0-.06c-.08,0-.11,0-.14-.13s0-.07-.05-.1c-.07-.21-.15-.41-.35-.39h-.05a.54.54,0,0,1-.06-.18v-.08h.09l.07-.06h-.07a.25.25,0,0,1-.17-.07.69.69,0,0,0,0-.4v-.15a.17.17,0,0,0,0-.08.32.32,0,0,1-.14,0h-.08l-.05.12a.1.1,0,0,1-.07,0c-.07,0,0,0,0,0a.13.13,0,0,1,.07.09.12.12,0,0,1,0,.1.19.19,0,0,1-.13.13.25.25,0,0,1-.15-.07h0a.11.11,0,0,0,0,.06.06.06,0,0,1,0,.06.829.829,0,0,1,.11.15.42.42,0,0,0,.11.15h.08a.06.06,0,0,1,.06,0h.05v.07l.05.06a.581.581,0,0,0,.11.13.2.2,0,0,1,.08.1.12.12,0,0,1,0,.1h0a.06.06,0,0,1-.06,0c-.11-.05-.12-.05-.13,0s0,.08-.05.08-.05,0-.07-.1a1,1,0,0,1-.05.22.26.26,0,0,0,0,.15.19.19,0,0,0,0,.1.24.24,0,0,1,0,.13h-.15c-.06,0-.05.05-.08.05a.368.368,0,0,1-.16-.1.6.6,0,0,0-.08-.08.544.544,0,0,1,0-.1.22.22,0,0,0-.05-.12l-.05-.06a.21.21,0,0,1-.07-.19.19.19,0,0,0,0-.08.427.427,0,0,0,0,.05s0,.08-.05.09-.12-.07-.14-.14a.07.07,0,0,1,0-.1c.05,0,0-.07,0-.12a.281.281,0,0,1,0-.09V56.3l-.07-.09h-.06c-.13,0-.17-.14-.19-.26v-.06c-.18-.08-.18-.27-.18-.42v-.14a.61.61,0,0,0-.23-.37.06.06,0,0,1-.06,0,2.22,2.22,0,0,1-.27-.19,1.44,1.44,0,0,0-.48-.27l-.1-.1a.39.39,0,0,1-.21-.31,1.258,1.258,0,0,1-.08-.12.11.11,0,0,0-.09-.11.45.45,0,0,1-.16.09c-.12,0-.16-.18-.17-.25s-.06-.12-.09-.12h0a.049.049,0,0,1-.05.05.24.24,0,0,0,0,.16h.06a.221.221,0,0,1,0,.11c0,.06,0,.14.14.32a.11.11,0,0,1,.1.08c.05,0,.08,0,.09.06a.8.8,0,0,1,.24.37v.1a.1.1,0,0,1,.07.1h.08a.35.35,0,0,0,.25.12h.09a.08.08,0,0,1,.1,0,.16.16,0,0,1,0,.09c0,.12,0,.14.11.17h.06l.14.06a.42.42,0,0,1,.3.25c.09.09.14.14.15.23s0,.13-.07.14-.06,0-.09-.06l-.12-.13-.16-.05a.42.42,0,0,0,0,.25.093.093,0,0,1,.09.09c.01.09.07.06.08.08a.321.321,0,0,1,0,.14.769.769,0,0,0-.08.27.55.55,0,0,1-.07.25.14.14,0,0,1-.11.08.3.3,0,0,0-.1.11v.07c0,.18.05.27,0,.32a.09.09,0,0,1-.06,0h-.2l-.44-.21a.19.19,0,0,1-.13-.07.37.37,0,0,1,0-.23.14.14,0,0,1,.12-.15h.08a.41.41,0,0,0,.19,0h.26c.13,0,.19-.13.19-.29a.48.48,0,0,0-.22-.39h-.06a.42.42,0,0,1-.12-.21c-.08,0-.14,0-.19-.07a.07.07,0,0,1-.06-.06.09.09,0,0,1-.06-.09h-.09a.19.19,0,0,1-.19-.06h0a.32.32,0,0,1-.16-.18c-.17-.16-.2-.16-.22-.17a1.247,1.247,0,0,1-.39-.37.53.53,0,0,1-.17-.25.3.3,0,0,0,0-.1.38.38,0,0,0-.36-.23.24.24,0,0,0-.14,0s0,.06,0,.07a.23.23,0,0,1-.15.11.13.13,0,0,1-.07.06l-.13.15-.06.08c0,.08,0,.12-.1.12a.37.37,0,0,1-.18,0,.68.68,0,0,0-.36-.07.5.5,0,0,0-.23.09.46.46,0,0,0,.05.35c.05.08.09.15,0,.36a.1.1,0,0,1-.07.08s-.06.11-.13.12,0,.05-.06.05a.32.32,0,0,1-.18.18.08.08,0,0,1-.07.07.21.21,0,0,1-.06.1h0a.36.36,0,0,1-.07.22.61.61,0,0,1-.08.27.33.33,0,0,0,.07.21.109.109,0,0,1,.12.09.166.166,0,0,1-.06.16.55.55,0,0,0-.08.17.35.35,0,0,1-.26.41l-.06.14a.08.08,0,0,1,0,.11.1.1,0,0,1-.09.11h-.06a2.2,2.2,0,0,0-.64.14c0,.05,0,.06,0,.07a.1.1,0,0,1-.07.1.15.15,0,0,1,0,.07s0,0,0,.08v.06l.07.08h.81a.77.77,0,0,0,.23-.06l.05-.08a.26.26,0,0,1,.2-.22c.11,0,.12,0,.16-.12a2,2,0,0,1,1.13-.54h.13a1.929,1.929,0,0,0,.43-.14.62.62,0,0,1,.19-.07.3.3,0,0,1,.24.07.49.49,0,0,0,.34-.17.32.32,0,0,1,.16-.09.25.25,0,0,1,.2.09s.07.06.1,0,0,0,.06,0a.06.06,0,0,1,.07,0c.07.09,0,.18,0,.27a.3.3,0,0,0,0,.2.16.16,0,0,0,.09.09.43.43,0,0,1,0,.58l-.06.1a.5.5,0,0,0,0,.15h.2a.44.44,0,0,0,.54.27.75.75,0,0,1,.62.14c.06,0,.08.05.1.1a.14.14,0,0,1,.06.1.44.44,0,0,0,.36.17.39.39,0,0,1,.31.11.14.14,0,0,1,.13.08h.12a.337.337,0,0,0,.11-.41.45.45,0,0,1,0-.16.19.19,0,0,1,.05-.1.16.16,0,0,1,.08-.16.05.05,0,0,1,0-.06.39.39,0,0,1,.27-.22.36.36,0,0,1,.33.13l.08.08a1,1,0,0,1,.36.09.84.84,0,0,0,.37.09.47.47,0,0,1,.23,0,.76.76,0,0,0,.39.08.34.34,0,0,0,.24-.17.41.41,0,0,1,.21-.15.18.18,0,0,1,.16.05.26.26,0,0,0,0,.19Zm2.82,5.76a.352.352,0,0,1,0-.06,1.988,1.988,0,0,0-.11-.4v-.14a.21.21,0,0,1-.07-.19,1.29,1.29,0,0,0-.23-.64h0a.13.13,0,0,1,0-.1L412.2,63a1.378,1.378,0,0,0-.2-.31.18.18,0,0,1-.09-.07s-.06,0-.07-.09a.59.59,0,0,1-.11-.29,3.672,3.672,0,0,0-.16-.53v-.09a.2.2,0,0,1,0-.08h0a1.429,1.429,0,0,1-.3-.41.871.871,0,0,0-.07-.17.3.3,0,0,1-.08-.14.56.56,0,0,1-.12-.2.13.13,0,0,1,0-.09.18.18,0,0,1-.05-.07.56.56,0,0,1-.11-.19h-.06c-.06,0-.05,0-.07.06s0,.06-.05.06h-.06a.791.791,0,0,0,.06.22.62.62,0,0,1,.07.19.15.15,0,0,1,0,.09.13.13,0,0,1,.05.09l.06.12.13.24.07.12.05.06c.11.11.1.11.1.13a.33.33,0,0,0,.11.38c.05,0,.05.05.06.08a.76.76,0,0,1,.25.45v.11a2.143,2.143,0,0,1,.06.27,2,2,0,0,0,.1.35h0l.07.06h0a.356.356,0,0,1,.06.1.89.89,0,0,1,.14.35c.08.31.17.47.29.49s.25.16.36.31a1.243,1.243,0,0,0,.14.18h.05Zm-.38-11.61V53.1c0-.05,0,0-.05-.09a1.324,1.324,0,0,1-.08-.14l-.1-.25a.461.461,0,0,0-.1-.07.53.53,0,0,0-.12,0,.12.12,0,0,0-.12.07h0s-.13.05-.12.16,0,0-.05,0a.71.71,0,0,1,0,.12v.06l-.16.04a.659.659,0,0,0,0,.15.571.571,0,0,1,0,.19.24.24,0,0,1,0,.13.22.22,0,0,0,0,.13.3.3,0,0,1,0,.1s0,0,0,.08h0v.31a.38.38,0,0,1,0,.14.249.249,0,0,1,0,.09.14.14,0,0,1,0,.09s0,.08.05.11v.13c.08.09.09.11.09.15a.59.59,0,0,1,.11.24c.08,0,.12,0,.14.14s0,.06,0,.07a.2.2,0,0,0-.07.17,1,1,0,0,1,0,.37v.18a.56.56,0,0,0,.13.26.18.18,0,0,1,.12.13h0a.2.2,0,0,1,.08.08h.06a.21.21,0,0,0,.11,0l.1-.05a.1.1,0,0,0,0-.09,3,3,0,0,1-.11-.64.088.088,0,0,1-.08-.07.36.36,0,0,1,0-.15c-.12-.08-.16-.25-.19-.49a1.341,1.341,0,0,0-.07-.27,2.322,2.322,0,0,1-.07-.38.079.079,0,0,0-.06-.07.53.53,0,0,1-.21-.38s0,0,0-.08a.3.3,0,0,1,0-.1c-.05,0-.08-.08-.11-.15s0-.09,0-.09.08-.06.07-.12a.381.381,0,0,1,0-.1h.07c.07,0,0-.08.06-.08l.12.06.13.06s.45-.02.43-.08ZM404,45.76a.19.19,0,0,0,.13.06c.05,0,0-.06,0-.09l-.05-.11a.2.2,0,0,0-.05-.09.13.13,0,0,0-.08,0c-.08,0-.06.09-.05.13A.41.41,0,0,0,404,45.76Zm-1.84,10.66s-.06-.1-.12-.09a.38.38,0,0,0-.19.15.17.17,0,0,0,0,.12.26.26,0,0,0,.29.17c.08,0,.09-.11.1-.22a.851.851,0,0,0-.12-.13Zm1.55-1.07a.9.9,0,0,0-.1-.5c0-.08,0-.15-.1-.14s-.06.07-.06.11a.38.38,0,0,0-.14.26.66.66,0,0,0,.21.43v.06h0s0,.05-.08.06a.182.182,0,0,1-.09,0c-.01,0,0,.05,0,.09a3.121,3.121,0,0,1,.11.33c.1.37.18.61.27.6s.07-.07.09-.14.13,0,.15-.13a1.77,1.77,0,0,0-.26-.93Zm6.44,1.87h-.05c-.05,0,0,0,0,.06H410a.44.44,0,0,0-.15.08.059.059,0,0,0-.06.06c0,.06-.05,0-.06.06a.16.16,0,0,0,0,.08.19.19,0,0,0,.05.11s.1.11.17.1a.44.44,0,0,0,.24-.38.18.18,0,0,0-.08-.17Zm-1.79.36h-.05a.19.19,0,0,1-.13,0,.14.14,0,0,0-.12-.07h-.05c-.05-.07-.08-.1-.11-.1s-.05,0-.07.06a.3.3,0,0,0,0,.25c0,.06.1,0,.17,0h0c.1.09.13.11.17.1h.12c.11,0,.15,0,.16-.07a.22.22,0,0,0,0-.16s-.1-.01-.13-.01Zm-34.7-13.75a1,1,0,0,0,.31-.17h0l.06-.08a.33.33,0,0,0,.09-.27.561.561,0,0,1,0-.13.22.22,0,0,0,.23.07.75.75,0,0,0,.2-.1s.08,0,.08-.07,0-.06-.07-.08h0l-.1-.06a.13.13,0,0,0-.13,0,.27.27,0,0,0-.15.12.45.45,0,0,0-.42-.07.56.56,0,0,0-.2.11h0l-.09.13v.08c-.15.24-.19.55,0,.61a.42.42,0,0,0,.15-.09ZM381.49,70a.17.17,0,0,0-.13.08.2.2,0,0,0,0,.17s0,.12.09.11h.05a.21.21,0,0,0,.12-.18C381.61,70,381.55,70,381.49,70Zm-8-.89c-.11,0-.12.1-.13.17a.608.608,0,0,0,0,.14c0,.02.06,0,.12,0s.17,0,.15-.16.01-.15-.1-.14Zm3.22.21a.14.14,0,0,0-.1-.12h-.06l-.13-.06a4.259,4.259,0,0,1-.54-.15l-.38-.13a.31.31,0,0,1-.15-.1.52.52,0,0,0-.17-.12.44.44,0,0,0-.2,0h-.32a1.1,1.1,0,0,0-.86-.16,1.61,1.61,0,0,0-.82.42.3.3,0,0,0-.13.22.23.23,0,0,1-.09.18c.08.09.13.11.19.1a.2.2,0,0,0,.13-.1.41.41,0,0,0,.11-.07,1,1,0,0,0,.27-.19.28.28,0,0,1,.12-.08c.05,0,.1,0,.16.11a.82.82,0,0,0,.31,0,.55.55,0,0,1,.38,0c.07.08.18.07.29.06a.368.368,0,0,1,.34.11l.09.1a.227.227,0,0,0,.16.08c.11.01.09,0,.1,0s0,0-.05.14a.06.06,0,0,0,0,.07.13.13,0,0,0,.12,0h.5a1.67,1.67,0,0,0,.65-.24c.1.03.13-.02.12-.06Zm-.76.85a1.1,1.1,0,0,0-.43-.05.62.62,0,0,0-.22.1c-.07,0-.1.09-.09.13a.221.221,0,0,0,.13.12h0a.35.35,0,0,0,.27.08l.18-.06a.759.759,0,0,1,.16-.06c.05,0,.13,0,.12-.12s-.02-.11-.07-.13Zm3.45-.68c-.09,0-.21,0-.22.19a.18.18,0,0,0,.18.2h.18a.33.33,0,0,0,.23-.14.19.19,0,0,0,.09,0,.11.11,0,0,0,0-.1c0-.15-.15-.14-.37-.1ZM365.85,41.25l.19-.1a.51.51,0,0,0,.17-.15v-.13a7.08,7.08,0,0,0-.59.5h.07l.15-.08Zm13.37,13.32a1,1,0,0,0-.41-.12.63.63,0,0,1-.19,0,.38.38,0,0,0-.14,0,.106.106,0,0,0-.1.09.13.13,0,0,0,0,.08.1.1,0,0,0,.1,0,.11.11,0,0,0,.08,0,.15.15,0,0,0,.11,0s.06.09.11.08a.5.5,0,0,0,.36.11h.19a.16.16,0,0,0,.14-.12.18.18,0,0,0-.12-.21.16.16,0,0,0-.13,0ZM366.51,42.5a.06.06,0,0,0-.06,0h-.09v-.07a.352.352,0,0,0,.05-.08v-.14a.07.07,0,0,0-.06,0,.3.3,0,0,0-.11.12.107.107,0,0,1-.06.09.18.18,0,0,0-.07.05.339.339,0,0,0,0-.09.44.44,0,0,0,.17-.34.38.38,0,0,1,.07-.21c-.07-.07-.09-.08-.13-.06l-.08.06h-.06v-.06c0-.06.07-.1.05-.15h-.07a1.26,1.26,0,0,0-.21.2,1.432,1.432,0,0,1-.23.2h-.09a.28.28,0,0,0-.08.06.1.1,0,0,0,0,.07.13.13,0,0,1-.05.07c-.09.06-.11.07-.12.1h.09c.09,0-.05.07-.07.08a.17.17,0,0,0-.06.06h0a.06.06,0,0,0,.07,0,.08.08,0,0,0,.1,0,1.087,1.087,0,0,0,.08.14.25.25,0,0,1,0,.16c0,.05-.06.09-.1.1h-.06a.1.1,0,0,0-.1-.06.06.06,0,0,0-.09,0,.31.31,0,0,0-.12.16c-.08.17,0,.23.06.26h0a.14.14,0,0,0,.1.12.36.36,0,0,0,.17,0h.17a.43.43,0,0,0,.11.12,1,1,0,0,1,.15.2h.14a.3.3,0,0,0,.11-.13.12.12,0,0,0,0-.07,1.13,1.13,0,0,1,.22-.28c.19-.18.26-.35.19-.47a.22.22,0,0,1,0-.21.27.27,0,0,0,.07,0Zm10.3,26.56a.06.06,0,0,0,.07,0h.06a.192.192,0,0,0,.19-.23.11.11,0,0,0,0-.09h-.08a.3.3,0,0,1-.11.06.21.21,0,0,0-.13.19A.1.1,0,0,0,376.81,69.06Zm-.26-.87a.23.23,0,0,0-.12.06c.18.33.18.33.21.32a.56.56,0,0,0,.09-.3.17.17,0,0,0-.18-.08Zm.24,2c.07,0,.1.07.28,0h.33a.4.4,0,0,1,.29.07c.05.07.09.09.12.08a.18.18,0,0,0,.09-.1v-.12a1.42,1.42,0,0,0,.29-.1,1.21,1.21,0,0,1,.3-.11.45.45,0,0,1,.2,0,.14.14,0,0,0,.13-.08.21.21,0,0,0,.05-.17.12.12,0,0,0-.08-.09l-.14-.08a1.58,1.58,0,0,0-1-.25,1.21,1.21,0,0,0-.32.11h-.1a.16.16,0,0,0-.12,0,.39.39,0,0,0-.19.14c-.07,0-.09.08-.09.11a.12.12,0,0,0,.09.08h.15a.58.58,0,0,1-.35.27c-.06,0-.14,0-.15.1s0,.08.08.14ZM374.61,67a.56.56,0,0,0,.39,0,.44.44,0,0,0,.15-.05h0a.15.15,0,0,0,0-.1.23.23,0,0,0-.19-.06h-.14a.11.11,0,0,1-.06,0s-.06,0-.09.09Zm.42.5h0a.28.28,0,0,0-.09.2s0,.09,0,.1a1.43,1.43,0,0,1,.33.42.34.34,0,0,0,0-.45.44.44,0,0,1-.08-.17.183.183,0,0,0-.19-.15Zm.76.23a.14.14,0,0,1,.12.07c.07.08.11.13.16.12s0,0,.07-.05a.08.08,0,0,0,0-.08.15.15,0,0,0-.06-.1h0a.58.58,0,0,0-.12-.08.27.27,0,0,1-.17-.24c-.13.18-.16.27-.13.33a.21.21,0,0,0,.13-.02Zm-.43-.43a.36.36,0,0,0,0-.42h-.06c-.06,0-.08,0-.09.12a.3.3,0,0,0,.12.32.488.488,0,0,0,.03-.07Zm-2.88-24.36a.8.8,0,0,0,.5-.54c0-.06,0-.09-.08-.08h-.06a.16.16,0,0,0-.1.08c-.29.52-.29.52-.28.53ZM396.87,62.4h-.07c-.06,0-.14.06-.13.19a.19.19,0,0,0,0,.09.16.16,0,0,0,.15,0c.13,0,.14-.14.15-.22a.315.315,0,0,0,0-.11.07.07,0,0,0-.08,0Zm-4-3.67h-.07c.1.13.16.18.24.17a.14.14,0,0,0,.09,0s.06-.06.05-.11h0a.17.17,0,0,0-.14,0,.33.33,0,0,0-.16-.11Zm4.3,4.12c.1,0,.12-.13.13-.21s-.09-.13-.15-.12-.09.11-.09.17v.13a.11.11,0,0,0,.12-.02Zm-30.68-22.2.06-.06v.04c0,.03-.14.19-.08.24a.25.25,0,0,0,.13,0h.37a1.08,1.08,0,0,0,.25-.17v-.18c0-.13.05-.26-.11-.27H367l-.54.45Zm27.06,2.29a.25.25,0,0,1-.07.24l-.05.07a.11.11,0,0,1-.1.11c-.1.01-.08,0-.14-.09l-.09.07v.09a.31.31,0,0,1-.27.19h-.11c0,.07-.06.1-.11.13s0,.07-.09.08a.53.53,0,0,1-.36.24.75.75,0,0,1-.44-.14.29.29,0,0,1-.22-.08.66.66,0,0,0-.26,0h-.31a.13.13,0,0,1-.13-.1c0-.1-.07-.19.06-.25s.07-.1,0-.19a.3.3,0,0,1,0-.08.23.23,0,0,0-.23-.09h-.34a.42.42,0,0,1,.21-.24c.13-.08.25-.16.25-.32a.1.1,0,0,0-.09,0l-.47.09h-.2c-.02,0,0-.14.05-.24a.54.54,0,0,0,.09-.26.1.1,0,0,1,.08-.09h.19a.281.281,0,0,0-.07-.09s-.07-.08-.06-.12a.184.184,0,0,1,.16-.11.29.29,0,0,1,.23.08.611.611,0,0,0,.12.09.39.39,0,0,1,.29.35.758.758,0,0,0,.06.18l.06-.11a.27.27,0,0,0,.05-.3c.08-.07.16,0,.25.06s.05,0,.05,0a.132.132,0,0,1,.13-.13c.13-.01.07-.08.11-.08a.13.13,0,0,1,.09.05h.09a.33.33,0,0,1,.13,0h.09c0-.11.09-.12.16-.12h.09c.01,0,0-.05,0-.09a.11.11,0,0,1,0-.11.08.08,0,0,1,.07,0,.25.25,0,0,1,.14,0,.29.29,0,0,1,.12.1h.15a.37.37,0,0,1,.2-.09,1.15,1.15,0,0,0,.07.36c.06.14.11.15.18.16s.2,0,.31.31v.08a.25.25,0,0,1-.12.39Zm-16,4a.29.29,0,0,0-.16.11.1.1,0,0,0,0,.09c0,.1.09.11.15.11h.09a.14.14,0,0,0,.13-.16.18.18,0,0,0-.06-.15.14.14,0,0,0-.15-.02Zm20.14,15.17a.74.74,0,0,0-.18.47.247.247,0,0,0,.25-.18.41.41,0,0,0-.05-.27Zm-17.28-28a28.93,28.93,0,0,1,13.74,1,.81.81,0,0,1,0,.61c-.19.33-.63.45-.88.74s-.24.39-.44.49a2.84,2.84,0,0,1-.42.09c-.36.08-.62.4-1,.49a3.18,3.18,0,0,1-.62.06.75.75,0,0,0-.41.12c-.12.09-.09.14-.16.26s-.3.08-.46.12a.183.183,0,0,1,.17.17,1.21,1.21,0,0,0,.19.57v.11h-.42a.51.51,0,0,1-.28-.07.79.79,0,0,1-.25-.22L389,39a.92.92,0,0,1,.26.07.63.63,0,0,0,.29,0h.37a.08.08,0,0,1,.1.06.16.16,0,0,1-.08.21.73.73,0,0,0-.3.22.8.8,0,0,1-.13.13,1.441,1.441,0,0,0-.28.34.75.75,0,0,1-.28.31h-.07l-.12.07a2.27,2.27,0,0,1-.84.3c-.08.2-.25.21-.39.23h-.14a1,1,0,0,0-.39.37.21.21,0,0,1-.07.13.291.291,0,0,0,0,.09v.22a.72.72,0,0,1-.42.63.09.09,0,0,0,0,.06s0,.05,0,.06a.26.26,0,0,1-.23.21.15.15,0,0,1-.13,0c-.06,0-.09.08-.13.08a.12.12,0,0,1-.12-.06h0c0,.18-.08.21-.17.22h-.38a.22.22,0,0,0,0,.08c.07.12.09.2.06.26s-.13.12-.31.15a.1.1,0,0,0,.05.08.29.29,0,0,1,.06.11l.07.06c.05,0,.1.08.1.13s-.05.09-.14.13a.12.12,0,0,1,.05.05h0a.551.551,0,0,1,0,.5v.08c0,.22,0,.46-.32.56v.07a.81.81,0,0,1,.1.84.67.67,0,0,0,0,.39.47.47,0,0,1,0,.21.27.27,0,0,0,0,.26.06.06,0,0,1,0,.06.3.3,0,0,1-.1.05h-.33a.18.18,0,0,1-.15.12.17.17,0,0,1-.18-.1.55.55,0,0,0-.13-.17.4.4,0,0,1-.16-.23.12.12,0,0,0-.14-.1,1,1,0,0,0-.2.07,1,1,0,0,1-.32.11c-.11-.07-.07-.13,0-.16s0,0,0-.07h-.09c-.18-.07-.33-.12-.31-.33a.13.13,0,0,0,0-.08L382.5,46c-.22-.34-.47-.72-.71-1.07a.65.65,0,0,1-.12-.36c0-.09,0-.14-.12-.15s-.11-.16-.1-.27a1,1,0,0,0-.28-.72,1,1,0,0,1-.26-.87c0-.08,0-.1-.05-.13a.2.2,0,0,1-.13-.26,1.6,1.6,0,0,0,0-.29,1.824,1.824,0,0,1,0-.3h-.1c-.22-.14,0-.52-.25-.65l-.15-.06c-.13-.06-.15-.23-.17-.38-.26.18-.64-.09-.92,0a.63.63,0,0,0-.3.41,1.389,1.389,0,0,1-.19.49.34.34,0,0,1-.46.11.27.27,0,0,0-.22-.21.79.79,0,0,0-.34,0l-.92.2a.56.56,0,0,0-.21.09,1.426,1.426,0,0,1-.13.12.7.7,0,0,0,.33.2c.17.06.23.08.23.12v.12a.22.22,0,0,0,.13,0l.09-.06h.1a.34.34,0,0,0,.17.2.35.35,0,0,1,.2.31c.27,0,.29,0,.28.19a.24.24,0,0,0,.1,0h.08a.15.15,0,0,1,.11,0,.072.072,0,0,1,.07.09.17.17,0,0,1,.15.09.14.14,0,0,1,0,.14.36.36,0,0,1,0,.25.18.18,0,0,1-.11.07h-.07a1.449,1.449,0,0,1-.12.53h-.05c-.1,0-.1,0-.09.06a.69.69,0,0,1-.05.33c0,.07-.05.16-.11.17s-.08,0-.12-.1a.6.6,0,0,1-.49-.37.2.2,0,0,0-.12-.17.4.4,0,0,1-.13-.13.42.42,0,0,1-.15,0,.33.33,0,0,0-.2,0h-.05a.17.17,0,0,0,.06.06c.07,0,.09.09.08.13s0,.08-.14.11-.08,0-.08.07.05,0,.07,0,.14.06.14.11c0,.23.1.37.35.35a.54.54,0,0,1,.34.14c.1.08.07.18.05.26a.27.27,0,0,0,0,.15.26.26,0,0,1,.22.13.62.62,0,0,1,0,.48v.18a.29.29,0,0,1,0,.24.24.24,0,0,0,0,.16.11.11,0,0,1-.06.06.08.08,0,0,1-.1,0,.46.46,0,0,0-.54-.2h-.07c-.02,0-.1,0-.09-.11s-.09-.05-.12-.09h-.08c-.05,0-.05.06,0,.12a.06.06,0,0,1,.06.08.21.21,0,0,1,.19.14.23.23,0,0,1,.18.11h0c.16,0,.23.16.23.36s0,.17-.07.22h-.06a.12.12,0,0,1-.15-.08,1.12,1.12,0,0,1-.76-.13.24.24,0,0,1-.12-.08c-.07-.11-.12-.15-.17-.14s-.08.06-.13.14a.22.22,0,0,1-.12.09.16.16,0,0,1-.17-.11.21.21,0,0,0-.09-.13.541.541,0,0,1-.09-.12.7.7,0,0,0-.09-.09.2.2,0,0,1-.09-.29L375,46h-.11a.46.46,0,0,1-.14-.2c-.05-.09-.1-.21-.23-.18s-.07,0-.09.09a.16.16,0,0,1-.12.12h-.25c-.02,0-.07,0-.1.11a.47.47,0,0,1-.3.22.46.46,0,0,1-.56-.17.42.42,0,0,1,.15-.45.38.38,0,0,0,0-.12.19.19,0,0,1,0-.15.17.17,0,0,1,.1-.06h.27a1.86,1.86,0,0,0,.33,0h.11a.75.75,0,0,1,.34-.26h.07a.07.07,0,0,0,0-.06V44.8c0-.04-.1,0-.1-.11s-.09,0-.1,0,0-.07,0-.1v-.08c.29-.38.31-.39.33-.4a.451.451,0,0,0,0-.11.35.35,0,0,1,.14-.28s0-.08.05-.1a1.148,1.148,0,0,0-.11-.31,1.241,1.241,0,0,1-.1-.29h-.14a1,1,0,0,1-.43-.26.18.18,0,0,0-.19-.08.43.43,0,0,0-.17.11.14.14,0,0,1-.09.08.19.19,0,0,1-.13.12c-.1,0-.1,0-.1-.07a.13.13,0,0,1,0-.06v-.18c0-.05.13-.09.31-.15,0-.06,0-.13-.11-.12s-.09,0-.1,0-.29,0-.24-.17a.21.21,0,0,1-.25-.12c0-.08-.08-.14-.21-.1s0,.13,0,.18a.479.479,0,0,1-.18.2c-.11.09-.12.1-.15.15a.381.381,0,0,1-.07.11l-.08.12c-.2-.06-.26-.1-.25-.17s.06-.1.16-.17h-.28a.071.071,0,0,1,0,.13.19.19,0,0,1-.07.06.22.22,0,0,1-.16,0h-.12c-.07.05-.09.06-.11.06a.39.39,0,0,1-.18,0,.26.26,0,0,0-.15,0,2,2,0,0,0-.37.1l-.14.06-.15.06-.17.06h-.14a.34.34,0,0,1-.18,0,.06.06,0,0,1-.07,0h-.07a.09.09,0,0,1-.1,0h-.07a1.4,1.4,0,0,1-.28.17.447.447,0,0,1-.44,0c-.09-.07-.17,0-.18-.06s-.1,0-.11,0-.12-.06-.12-.09a.635.635,0,0,1,.25-.24l.14-.05h-.6a1.368,1.368,0,0,0,0-.23.709.709,0,0,1,0-.21,2.05,2.05,0,0,1,.3-.87.23.23,0,0,1,.15-.19,3.76,3.76,0,0,1,.59-.61v-.06A2.93,2.93,0,0,1,370,40l.38-.17h.17c.02,0,0,.06-.06.12l-.06.07a1.28,1.28,0,0,1-.28.31.448.448,0,0,1-.06.12c0,.08-.07.16-.11.25-.12.26-.06.3,0,.32s.09,0,0,.19,0,.12,0,.13h.09a.114.114,0,0,1,.07-.1l.06-.07c.07-.08.12-.13,0-.14s-.08-.13-.07-.24h0c0-.05,0-.08.1-.11h0s0-.06.12-.14a.11.11,0,0,1,0-.14.569.569,0,0,1,.17-.1,1.15,1.15,0,0,0,.24-.18,2.12,2.12,0,0,1,.72-.49l.22-.11h.16l.27-.08h.07a2.76,2.76,0,0,0,.39-.18,1,1,0,0,0,.35-.31c.06-.11.05-.24.12-.34s.19-.12.23-.21,0-.21,0-.32a.77.77,0,0,1,.09-.39,2.739,2.739,0,0,1,.21-.42c0-.09.1-.19.05-.27s0-.05,0-.07.08-.11.08-.18-.09-.11-.08-.17a.318.318,0,0,0,0-.1.14.14,0,0,0,0-.14,29.14,29.14,0,0,1,6.77-2.27Zm-8.83,13.54h-.05a.5.5,0,0,0-.23.39c-.06.12-.13.24-.05.29a.11.11,0,0,0,.1,0,.47.47,0,0,0,.16-.1h.05l.09-.12c.18-.23.35-.45.23-.53a.17.17,0,0,0-.14,0,.5.5,0,0,0-.16.03Zm1.08.72a1.781,1.781,0,0,0,.15-.58c0-.09-.08-.08-.13-.08h-.16a.22.22,0,0,0-.13.15.5.5,0,0,0,.14.49.07.07,0,0,0,.13-.02Zm.22-11.12h-.12a.43.43,0,0,0-.21.22v.11a.19.19,0,0,0,.12,0h.16l.12-.07a.11.11,0,0,1,0-.11s-.04-.19-.07-.19Zm.14,9.56a.07.07,0,0,0,0,.06.27.27,0,0,0,.3.21.28.28,0,0,0,.14-.21c-.06-.11-.1-.18-.21-.15s-.25.02-.25.05Zm3.64,1.15a.23.23,0,0,0-.16.22c0,.06,0,.13.09.12h.06a.28.28,0,0,0,.12-.21.13.13,0,0,0,0-.1h-.05ZM398.26,46a.35.35,0,0,0,0-.49s-.06-.06-.09-.06,0,0-.07.07a.27.27,0,0,0,.05.31.41.41,0,0,1,.11.17Zm-26.15,1.08.13-.06a.21.21,0,0,0,.11-.14l.1-.1v-.13c0-.03,0,0-.06,0h-.06c-.33,0-.43-.08-.45-.27s0-.08-.08-.07a.08.08,0,0,0-.07,0,.2.2,0,0,0-.19,0,.07.07,0,0,0-.07,0,.22.22,0,0,0-.2,0h-.07a.21.21,0,0,1-.11-.07A.16.16,0,0,0,371,46h-.16c-.06,0-.15,0-.16-.07s0-.07-.06,0-.06-.06-.11,0a.21.21,0,0,0-.1.09h0c-.1.05-.1.12-.11.19a.38.38,0,0,0-.07.26.487.487,0,0,1,0,.12,1.139,1.139,0,0,0,0,.32.7.7,0,0,1-.07.5.27.27,0,0,0-.18.25c0,.12,0,.16.05.18s.05,0,.09,0a.13.13,0,0,0,.07,0,.75.75,0,0,1,.21-.13c.07,0,.16,0,.2.16a.18.18,0,0,0,.18.08.34.34,0,0,0,.17-.21.06.06,0,0,0,0-.06.12.12,0,0,0,.11-.12c0-.06.1-.09.13-.15h0a.21.21,0,0,0,.1-.19v-.08h.1c.1,0,.18,0,.21.12s.4-.13.51-.17Z" transform="translate(-1.63 -17.17)" fill="url(#radial-gradient-2)"/>
    <path id="Path_54" data-name="Path 54" d="M369.46,38.59a10.508,10.508,0,0,0-1.64.19,33.66,33.66,0,0,0-4.57.92l-1.53.45-.82.23-.82.33-1.75.7c-.59.28-1.18.61-1.8.93a17,17,0,0,0-6.66,6.4,13.54,13.54,0,0,0-.89,10.7c1.09,3.79,3.61,7.28,6.59,10.33a47.6,47.6,0,0,0,10.61,7.92A62.18,62.18,0,0,0,378.8,83a63.64,63.64,0,0,0,13.44,2.56,48.76,48.76,0,0,0,13.22-.66,27.75,27.75,0,0,0,11.33-4.74,14.29,14.29,0,0,0,5.6-9.21,16.42,16.42,0,0,0-1.69-9.07,26.734,26.734,0,0,0-2-3.35c-.35-.49-.68-1-1-1.42s-.72-.82-1-1.2a31.612,31.612,0,0,0-3.27-3.33c-.8-.71-1.25-1.07-1.25-1.07a.12.12,0,0,1,0-.15.11.11,0,0,1,.15,0s.45.36,1.26,1.08a29.832,29.832,0,0,1,3.29,3.34l1,1.21c.34.44.67.92,1,1.42a29.146,29.146,0,0,1,2,3.37A16.87,16.87,0,0,1,422.65,71,14.55,14.55,0,0,1,417,80.38a27.84,27.84,0,0,1-11.44,4.82,48.57,48.57,0,0,1-13.3.7,63.781,63.781,0,0,1-13.53-2.54A61.811,61.811,0,0,1,366,78a47.91,47.91,0,0,1-10.65-8,25.72,25.72,0,0,1-6.65-10.48,13.8,13.8,0,0,1,.94-10.91,17.15,17.15,0,0,1,6.77-6.47c.63-.33,1.22-.66,1.82-.94l1.77-.71.84-.32.82-.24,1.53-.44a32.452,32.452,0,0,1,4.61-.91c1.07-.15,1.64-.19,1.64-.19a.1.1,0,0,1,.12.09.12.12,0,0,1-.1.11Z" transform="translate(-1.63 -17.17)" fill="#9ffffa"/>
    <path id="Path_55" data-name="Path 55" d="M390.61,34.11s-.44-.37-1.3-1a33,33,0,0,0-3.88-2.55,27,27,0,0,0-3-1.52l-1.72-.74-1.94-.59a16.9,16.9,0,0,0-9.2-.12,13.58,13.58,0,0,0-8.13,7,7.821,7.821,0,0,0-.63,1.34l-.57,1.38c-.26,1-.59,1.94-.79,2.95a34.167,34.167,0,0,0-.61,6.27,47.271,47.271,0,0,0,1.9,13.06,63.123,63.123,0,0,0,5.14,12.65,64.647,64.647,0,0,0,7.67,11.29,48.628,48.628,0,0,0,9.78,8.87,27.64,27.64,0,0,0,11.31,4.69,14.17,14.17,0,0,0,10.46-2.42c.68-.51,1.27-1.12,1.87-1.67a11.682,11.682,0,0,0,1.47-1.89,12.824,12.824,0,0,0,1.12-2l.84-2c.23-.65.38-1.31.57-1.94a11.583,11.583,0,0,0,.4-1.83q.15-.9.3-1.71c.05-.55.08-1.08.12-1.58a33,33,0,0,0,.08-4.65c-.06-1.07-.12-1.65-.12-1.65a.1.1,0,1,1,.2-.01s.06.57.12,1.65a31.205,31.205,0,0,1-.06,4.67c0,.51-.07,1-.12,1.59s-.19,1.13-.29,1.73a11.888,11.888,0,0,1-.41,1.85c-.18.63-.34,1.3-.57,2l-.84,2c-.33.67-.75,1.32-1.14,2a21.7,21.7,0,0,1-1.49,1.93,22.145,22.145,0,0,1-1.89,1.7,14.38,14.38,0,0,1-10.66,2.5,28.12,28.12,0,0,1-11.45-4.71,49.22,49.22,0,0,1-9.86-8.91,64.771,64.771,0,0,1-7.74-11.33,62.7,62.7,0,0,1-5.16-12.73,48,48,0,0,1-1.88-13.15,34.762,34.762,0,0,1,.64-6.34c.2-1,.55-2,.81-3,.19-.47.39-.94.58-1.4a9.388,9.388,0,0,1,.64-1.36,13.9,13.9,0,0,1,8.31-7.09,17.23,17.23,0,0,1,9.35.14l1.95.6,1.74.76a26.941,26.941,0,0,1,3,1.53,31.71,31.71,0,0,1,3.91,2.58c.86.65,1.3,1,1.3,1a.12.12,0,0,1,0,.15A.11.11,0,0,1,390.61,34.11Z" transform="translate(-1.63 -17.17)" fill="#9ffffa"/>
    <path id="Path_56" data-name="Path 56" d="M362.12,80.08l.31,1.61c.1.52.23,1.16.38,1.92s.46,1.6.74,2.56.75,2,1.17,3.07c.28.53.57,1.08.88,1.65.15.28.29.58.47.86s.39.55.58.84a15,15,0,0,0,7,5.77,13.4,13.4,0,0,0,5.18.84,16.89,16.89,0,0,0,5.48-1.29,28.75,28.75,0,0,0,9.83-7.17c5.81-6.25,10-14.6,12.48-23.33A63.808,63.808,0,0,0,409,54.06,47.06,47.06,0,0,0,408,41a25.2,25.2,0,0,0-5.12-11c-.33-.36-.65-.72-1-1.07a16.88,16.88,0,0,0-3.38-2.48,7.211,7.211,0,0,0-1.24-.55,11.678,11.678,0,0,0-1.25-.45l-1.28-.27-.63-.12h-.64a17,17,0,0,0-8.9,2.07l-1.75,1-1.52,1.08a28.072,28.072,0,0,0-2.55,2.09,32.161,32.161,0,0,0-3.25,3.28c-.69.81-1.05,1.25-1.05,1.25a.09.09,0,0,1-.14,0,.1.1,0,0,1,0-.14s.35-.45,1-1.27a35.163,35.163,0,0,1,3.25-3.31,28.29,28.29,0,0,1,2.56-2.1l1.54-1.09,1.76-1a17.23,17.23,0,0,1,9-2.13h.65a2.911,2.911,0,0,1,.64.13l1.31.27a10.311,10.311,0,0,1,1.28.46,7.069,7.069,0,0,1,1.26.55A13.639,13.639,0,0,1,401,27.78a14.127,14.127,0,0,1,1.1.95l1,1.09a25.37,25.37,0,0,1,5.22,11.11,47.359,47.359,0,0,1,1,13.15A64.78,64.78,0,0,1,402,80.17,49.768,49.768,0,0,1,394.4,91a29,29,0,0,1-9.95,7.21,17.16,17.16,0,0,1-5.58,1.3,13.54,13.54,0,0,1-5.28-.87,15.22,15.22,0,0,1-7.13-5.89l-.59-.85c-.18-.28-.32-.58-.48-.87l-.87-1.67c-.43-1.13-.9-2.14-1.18-3.1s-.52-1.82-.74-2.56a16.836,16.836,0,0,1-.37-1.94c-.2-1-.31-1.61-.31-1.61a.107.107,0,1,1,.2-.07Z" transform="translate(-1.63 -17.17)" fill="#9ffffa"/>
    <path id="Path_57" data-name="Path 57" d="M356.66,57.78l-.94,1.36a31.435,31.435,0,0,0-2.46,3.93,26.06,26.06,0,0,0-2.57,6.7,15.15,15.15,0,0,0,.53,9.15,14,14,0,0,0,7.59,7.55,28.09,28.09,0,0,0,12,2.11c8.58-.21,17.52-3.12,25.51-7.52a62,62,0,0,0,11.16-7.81,47.532,47.532,0,0,0,8.65-9.92,25.65,25.65,0,0,0,4.26-11.44,13.56,13.56,0,0,0-3.08-10.24,16.94,16.94,0,0,0-7.78-4.87l-1.95-.55-1.85-.31a28.09,28.09,0,0,0-3.29-.34,33.8,33.8,0,0,0-4.64,0c-1.07.08-1.64.14-1.64.14a.1.1,0,0,1-.11-.08.11.11,0,0,1,.09-.12s.57-.07,1.65-.15a32.48,32.48,0,0,1,4.66,0,28.259,28.259,0,0,1,3.32.32l1.86.32,2,.55a17.13,17.13,0,0,1,7.91,4.93,13.85,13.85,0,0,1,3.16,10.43,25.76,25.76,0,0,1-4.28,11.57,47.679,47.679,0,0,1-8.68,10,62.75,62.75,0,0,1-11.21,7.88,63.64,63.64,0,0,1-12.61,5.34,49.371,49.371,0,0,1-13.07,2.17,28.6,28.6,0,0,1-12.17-2.16A14.31,14.31,0,0,1,351,79a15.33,15.33,0,0,1-.52-9.3,26.589,26.589,0,0,1,2.6-6.76A33.7,33.7,0,0,1,355.55,59c.62-.88.94-1.35.94-1.35a.11.11,0,0,1,.17.13Z" transform="translate(-1.63 -17.17)" fill="#9ffffa"/>
    <path id="Path_58" data-name="Path 58" d="M356.48,61l-1.08.48c-.7.33-1.73.8-3,1.52a21.194,21.194,0,0,0-2,1.28,9.431,9.431,0,0,0-2,1.89A2.36,2.36,0,0,0,348,69a5.59,5.59,0,0,0,2.84,1.89,30.639,30.639,0,0,0,7.81,1.41,81.59,81.59,0,0,0,8.9.13c3.09-.08,6.28-.32,9.51-.66s6.49-.81,9.75-1.3,6.5-1.14,9.67-1.87,6.26-1.5,9.22-2.4a83.9,83.9,0,0,0,8.39-3A29.76,29.76,0,0,0,421,59.36a5.29,5.29,0,0,0,2-2.74,1.92,1.92,0,0,0-.31-1.48,3.82,3.82,0,0,0-1.1-1,10.13,10.13,0,0,0-2.54-1.1,22.071,22.071,0,0,0-2.31-.57c-1.42-.27-2.55-.39-3.31-.48l-1.18-.11a.1.1,0,0,1-.1-.1.12.12,0,0,1,.11-.1l1.19.11c.77.08,1.9.2,3.33.47a19.9,19.9,0,0,1,2.33.56,9.79,9.79,0,0,1,2.61,1.13A3.74,3.74,0,0,1,422.93,55a2.17,2.17,0,0,1,.35,1.65,5.44,5.44,0,0,1-2.09,2.89,30,30,0,0,1-7,3.92,81.844,81.844,0,0,1-8.41,3c-3,.92-6.07,1.72-9.24,2.44s-6.42,1.34-9.68,1.91-6.53,1-9.77,1.28-6.44.56-9.54.64a84.47,84.47,0,0,1-8.93-.17,31.33,31.33,0,0,1-7.88-1.45,5.9,5.9,0,0,1-3-2,2.17,2.17,0,0,1-.3-1.67A3.5,3.5,0,0,1,348.2,66a10.089,10.089,0,0,1,2.08-1.93,22.758,22.758,0,0,1,2-1.28c1.26-.72,2.3-1.19,3-1.52l1.09-.48a.1.1,0,0,1,.13,0,.11.11,0,0,1-.02.21Z" transform="translate(-1.63 -17.17)" fill="#9ffffa"/>
    <path id="Path_59" data-name="Path 59" d="M383.53,33.6l-.32-1.05c-.21-.69-.52-1.7-1-3a21.649,21.649,0,0,0-2-4.37c-.25-.35-.59-.79-1-.81a.67.67,0,0,0-.46.39,3.1,3.1,0,0,0-.28.7,15.468,15.468,0,0,0-.43,3.23c-.11,2.29,0,4.79.1,7.41s.37,5.4.67,8.26.64,5.82,1.05,8.81.88,6,1.35,9,1,6.05,1.57,9S384,77.15,384.6,80a130.555,130.555,0,0,0,4.12,15.15,26.361,26.361,0,0,0,1.29,3,6.432,6.432,0,0,0,.82,1.25,1.28,1.28,0,0,0,.53.39.48.48,0,0,0,.49-.22,5.821,5.821,0,0,0,.69-2.43c.1-.8.14-1.54.17-2.21.06-1.34,0-2.39,0-3.11v-1.1a.11.11,0,0,1,.1-.11.1.1,0,0,1,.1.1v4.23a20.506,20.506,0,0,1-.16,2.22A6.27,6.27,0,0,1,392,99.7a.73.73,0,0,1-.74.3,1.54,1.54,0,0,1-.65-.46,7,7,0,0,1-.86-1.3,25.732,25.732,0,0,1-1.31-3A131.345,131.345,0,0,1,384.29,80c-.62-2.81-1.24-5.72-1.8-8.69s-1.1-6-1.6-9c-1-6.06-1.79-12.15-2.35-17.88-.29-2.87-.5-5.65-.64-8.28a71.777,71.777,0,0,1-.07-7.44,16.621,16.621,0,0,1,.45-3.3,3,3,0,0,1,.31-.74.84.84,0,0,1,.66-.51,1.08,1.08,0,0,1,.73.35,4.181,4.181,0,0,1,.47.57,22.267,22.267,0,0,1,2,4.43c.44,1.27.75,2.28,1,3l.32,1a.129.129,0,0,1-.24.09Z" transform="translate(-1.63 -17.17)" fill="#9ffffa"/>
    <path id="Path_60" data-name="Path 60" d="M406.8,42.9s.15-.38.42-1.11a32.521,32.521,0,0,0,1-3.21,20.9,20.9,0,0,0,.48-2.34,10.72,10.72,0,0,0,.11-2.8A4.839,4.839,0,0,0,408.4,32a2.29,2.29,0,0,0-1.09-1.08,4.6,4.6,0,0,0-3.38.23,26.54,26.54,0,0,0-6.74,4.25,76.561,76.561,0,0,0-6.54,6.11,141.86,141.86,0,0,0-12.4,15c-1.93,2.69-3.83,5.42-5.55,8.19s-3.38,5.53-4.83,8.28a82.4,82.4,0,0,0-3.79,8.11A30.33,30.33,0,0,0,362,88.76a6.75,6.75,0,0,0,.39,3.44,2.31,2.31,0,0,0,1.09,1.09,3.12,3.12,0,0,0,1.47.24,11.9,11.9,0,0,0,4.78-1.89c1.24-.75,2.14-1.45,2.77-1.91l.94-.73a.1.1,0,0,1,.12.16l-.94.74c-.62.46-1.53,1.16-2.77,1.93a12.18,12.18,0,0,1-4.88,1.93,3.41,3.41,0,0,1-1.59-.25,2.52,2.52,0,0,1-1.21-1.2,6.89,6.89,0,0,1-.42-3.57A30,30,0,0,1,363.82,81a81.717,81.717,0,0,1,3.78-8.16c1.44-2.76,3.06-5.55,4.81-8.31S376,59,377.94,56.27s4-5.32,6.07-7.84,4.22-4.94,6.41-7.16A77.268,77.268,0,0,1,397,35.15a26.939,26.939,0,0,1,6.83-4.27,4.92,4.92,0,0,1,3.57-.21,2.61,2.61,0,0,1,1.21,1.2,5,5,0,0,1,.42,1.55,10.64,10.64,0,0,1-.11,2.85,20.623,20.623,0,0,1-.5,2.36c-.37,1.41-.76,2.49-1,3.23L407,43a.112.112,0,1,1-.2-.1Z" transform="translate(-1.63 -17.17)" fill="#9ffffa"/>
    <path id="Path_61" data-name="Path 61" d="M405.17,83.75l1.13.4c.74.24,1.82.62,3.24.95a12.39,12.39,0,0,0,5.16.31,3.3,3.3,0,0,0,1.34-.66,2.25,2.25,0,0,0,.73-1.37,6.56,6.56,0,0,0-.7-3.4,30,30,0,0,0-4.47-6.66,83.316,83.316,0,0,0-6.21-6.52c-2.26-2.15-4.69-4.28-7.24-6.34s-5.22-4.07-7.91-6-5.49-3.8-8.27-5.54-5.58-3.36-8.36-4.77a74.26,74.26,0,0,0-8.21-3.7,24,24,0,0,0-7.79-1.79,4,4,0,0,0-3.18,1.1,2.45,2.45,0,0,0-.48,1.49,4.839,4.839,0,0,0,.19,1.52,16.519,16.519,0,0,0,2.33,4.65c.8,1.21,1.52,2.11,2,2.72l.76.93a.1.1,0,0,1-.15.13l-.77-.93c-.48-.61-1.21-1.51-2-2.72a16.861,16.861,0,0,1-2.38-4.72,5.18,5.18,0,0,1-.2-1.59,2.69,2.69,0,0,1,.53-1.63,4.23,4.23,0,0,1,3.37-1.21,24.54,24.54,0,0,1,7.89,1.78,76.561,76.561,0,0,1,8.25,3.69c2.8,1.41,5.59,3.06,8.4,4.76s5.58,3.59,8.3,5.52A139.941,139.941,0,0,1,405.63,66.6a81.722,81.722,0,0,1,6.21,6.56,30.41,30.41,0,0,1,4.49,6.74,6.69,6.69,0,0,1,.71,3.55,2.53,2.53,0,0,1-.81,1.51,3.7,3.7,0,0,1-1.45.71,12.47,12.47,0,0,1-5.27-.33,26.168,26.168,0,0,1-3.26-1l-1.13-.41a.1.1,0,0,1,.07-.19Z" transform="translate(-1.63 -17.17)" fill="#9ffffa"/>
    <path id="Path_62" data-name="Path 62" d="M420.41,27.57l-10.39,6c-2.08,1.2-3.76.49-3.76-1.59A7.78,7.78,0,0,1,410,26.06l10.39-6c2.07-1.2,3.75-.49,3.75,1.59a7.8,7.8,0,0,1-3.73,5.92Z" transform="translate(-1.63 -17.17)" fill="#fff"/>
    <path id="Path_63" data-name="Path 63" d="M359,53.29l-10.39,6c-2.08,1.2-3.76.49-3.76-1.59a7.78,7.78,0,0,1,3.76-5.92l10.39-6c2.08-1.2,3.76-.49,3.76,1.59A7.78,7.78,0,0,1,359,53.29Z" transform="translate(-1.63 -17.17)" fill="#fff"/>
    <path id="Path_64" data-name="Path 64" d="M409.07,96.5l-10.39,6c-2.08,1.2-3.76.49-3.76-1.59A7.78,7.78,0,0,1,398.68,95l10.39-6c2.07-1.2,3.75-.49,3.75,1.58a7.8,7.8,0,0,1-3.75,5.92Z" transform="translate(-1.63 -17.17)" fill="#fff"/>
    <path id="Path_65" data-name="Path 65" d="M380.32,25.26l-10.39,6c-2.08,1.2-3.76.49-3.76-1.59a7.78,7.78,0,0,1,3.76-5.92l10.39-6c2.08-1.2,3.76-.49,3.76,1.59a7.78,7.78,0,0,1-3.76,5.92Z" transform="translate(-1.63 -17.17)" fill="#fff"/>
    <path id="Path_66" data-name="Path 66" d="M361.21,86.6l-10.39,6c-2.08,1.19-3.76.48-3.76-1.59a7.77,7.77,0,0,1,3.76-5.92l10.39-6c2.07-1.2,3.75-.49,3.75,1.58a7.8,7.8,0,0,1-3.75,5.93Z" transform="translate(-1.63 -17.17)" fill="#fff"/>
    <path id="Path_67" data-name="Path 67" d="M410,54.65l-10.39,6c-2.08,1.19-3.76.48-3.76-1.59a7.77,7.77,0,0,1,3.76-5.92l10.39-6c2.07-1.2,3.75-.49,3.75,1.58A7.8,7.8,0,0,1,410,54.65Z" transform="translate(-1.63 -17.17)" fill="#fff"/>
  </g>
</svg>
