<svg xmlns="http://www.w3.org/2000/svg" xmlns:xlink="http://www.w3.org/1999/xlink" width="107.256" height="75.748" viewBox="0 0 107.256 75.748">
  <defs>
    <linearGradient id="linear-gradient" x1="-0.363" y1="0.5" x2="1.363" y2="0.5" gradientUnits="objectBoundingBox">
      <stop offset="0" stop-color="#c6d2e7"/>
      <stop offset="0.44" stop-color="#d4deef"/>
      <stop offset="1" stop-color="#e1e9f6"/>
    </linearGradient>
    <linearGradient id="linear-gradient-2" y1="0.5" x2="1" y2="0.5" gradientUnits="objectBoundingBox">
      <stop offset="0" stop-color="#a2acbd"/>
      <stop offset="0.65" stop-color="#c5cddb"/>
      <stop offset="1" stop-color="#d2dae6"/>
    </linearGradient>
    <linearGradient id="linear-gradient-3" x1="0" y1="0.499" x2="1" y2="0.499" xlink:href="#linear-gradient"/>
    <linearGradient id="linear-gradient-4" y1="0.498" x2="1" y2="0.498" gradientUnits="objectBoundingBox">
      <stop offset="0" stop-color="#17968c"/>
      <stop offset="0.53" stop-color="#2db1a8"/>
      <stop offset="1" stop-color="#3dc4bd"/>
    </linearGradient>
    <linearGradient id="linear-gradient-7" x1="0" y1="0.501" x2="1" y2="0.501" xlink:href="#linear-gradient"/>
    <linearGradient id="linear-gradient-8" x1="0" y1="0.5" x2="1" y2="0.5" xlink:href="#linear-gradient-4"/>
    <linearGradient id="linear-gradient-9" x1="0" y1="0.5" y2="0.5" xlink:href="#linear-gradient-2"/>
    <linearGradient id="linear-gradient-10" x1="0" y1="0.5" x2="1" y2="0.5" xlink:href="#linear-gradient"/>
    <linearGradient id="linear-gradient-11" x1="-0.001" y1="0.5" x2="0.999" y2="0.5" gradientUnits="objectBoundingBox">
      <stop offset="0" stop-color="#d2dae6"/>
      <stop offset="0.35" stop-color="#c5cddb"/>
      <stop offset="1" stop-color="#a2acbd"/>
    </linearGradient>
    <linearGradient id="linear-gradient-12" x1="-0.001" y1="0.5" x2="0.999" y2="0.5" xlink:href="#linear-gradient-2"/>
  </defs>
  <g id="_1" data-name="1" transform="translate(-107.884 -339.44)">
    <path id="Path_1176" data-name="Path 1176" d="M142.12,405.48c-23.72,0-44.83,26.78-24.29,26.78h44.74l1.82-26.78Z" transform="translate(-1.63 -17.17)" fill="#003893" opacity="0.5"/>
    <g id="Group_167" data-name="Group 167">
      <path id="Path_1177" data-name="Path 1177" d="M142.56,426.4l1.27,1a18.655,18.655,0,0,0,2,1.35c8.34,4.81,21.82,4.81,30.1,0a19.792,19.792,0,0,0,1.88-1.25l1.28-1Z" transform="translate(-1.63 -17.17)" fill="#a2acbd"/>
      <ellipse id="Ellipse_38" data-name="Ellipse 38" cx="12.33" cy="21.28" rx="12.33" ry="21.28" transform="matrix(0.003, -1, 1, 0.003, 137.934, 405.335)" fill="url(#linear-gradient)"/>
      <path id="Path_1178" data-name="Path 1178" d="M138,411.73v6.68c0,3.42,2.24,6.84,6.75,9.44,9,5.17,23.45,5.17,32.35,0,4.43-2.57,6.64-5.94,6.65-9.3v-6.69Z" transform="translate(-1.63 -17.17)" fill="url(#linear-gradient-2)"/>
      <path id="Path_1179" data-name="Path 1179" d="M179.17,403.87l-1.27-1c5.8,4.47,5.68,10.7-.38,15.08a17.772,17.772,0,0,1-1.54,1c-4.57,2.66-10.73,3.85-16.72,3.57A29.89,29.89,0,0,1,145.88,419c-7.65-4.41-8.31-11.35-2-16.18l-1.28,1c-6.81,5.19-6.09,12.64,2.13,17.39a32.17,32.17,0,0,0,14.4,3.79c6.45.3,13.06-1,18-3.84a17.577,17.577,0,0,0,1.66-1.07C185.28,415.38,185.41,408.68,179.17,403.87Z" transform="translate(-1.63 -17.17)" fill="url(#linear-gradient-3)"/>
    </g>
    <path id="Path_1180" data-name="Path 1180" d="M177.52,418a17.772,17.772,0,0,1-1.54,1c-4.57,2.66-10.73,3.85-16.72,3.57l-.13,2.46c6.45.3,13.06-1,18-3.84a17.584,17.584,0,0,0,1.66-1.07Z" transform="translate(-1.63 -17.17)" fill="#f5f9ff" opacity="0.7"/>
    <path id="Path_1181" data-name="Path 1181" d="M139.58,404v6.23c0,3.17,2.08,6.36,6.28,8.78,8.34,4.82,21.82,4.82,30.11,0,4.12-2.39,6.18-5.52,6.19-8.66v-6.23Z" transform="translate(-1.63 -17.17)" fill="url(#linear-gradient-4)"/>
    <g id="Group_168" data-name="Group 168">
      <path id="Path_1182" data-name="Path 1182" d="M142.56,413.06l1.27,1a18.662,18.662,0,0,0,2,1.35c8.34,4.81,21.82,4.81,30.1,0a19.792,19.792,0,0,0,1.88-1.25l1.28-1Z" transform="translate(-1.63 -17.17)" fill="#a2acbd"/>
      <ellipse id="Ellipse_39" data-name="Ellipse 39" cx="12.33" cy="21.28" rx="12.33" ry="21.28" transform="matrix(0.003, -1, 1, 0.003, 137.934, 391.998)" fill="url(#linear-gradient)"/>
      <path id="Path_1183" data-name="Path 1183" d="M138,398.39v6.69c0,3.41,2.24,6.83,6.75,9.43,9,5.17,23.45,5.17,32.35,0,4.43-2.57,6.64-5.94,6.65-9.3v-6.69Z" transform="translate(-1.63 -17.17)" fill="url(#linear-gradient-2)"/>
      <path id="Path_1184" data-name="Path 1184" d="M179.17,390.53l-1.27-1c5.8,4.47,5.68,10.7-.38,15.08a17.779,17.779,0,0,1-1.54,1c-4.57,2.66-10.73,3.85-16.72,3.57a29.89,29.89,0,0,1-13.38-3.57c-7.65-4.41-8.31-11.35-2-16.18l-1.28,1c-6.81,5.19-6.09,12.64,2.13,17.39a32.17,32.17,0,0,0,14.38,3.84c6.45.3,13.06-1,18-3.84a17.59,17.59,0,0,0,1.66-1.07C185.28,402,185.41,395.34,179.17,390.53Z" transform="translate(-1.63 -17.17)" fill="url(#linear-gradient-7)"/>
    </g>
    <path id="Path_1185" data-name="Path 1185" d="M177.52,404.63a17.772,17.772,0,0,1-1.54,1c-4.57,2.66-10.73,3.85-16.72,3.57l-.13,2.46c6.45.3,13.06-1,18-3.84a17.592,17.592,0,0,0,1.66-1.07Z" transform="translate(-1.63 -17.17)" fill="#f5f9ff" opacity="0.7"/>
    <path id="Path_1186" data-name="Path 1186" d="M139.58,390.62v6.23c0,3.18,2.08,6.36,6.28,8.78,8.34,4.82,21.82,4.82,30.11,0,4.12-2.39,6.18-5.52,6.19-8.66v-6.23Z" transform="translate(-1.63 -17.17)" fill="url(#linear-gradient-8)"/>
    <g id="Group_169" data-name="Group 169">
      <path id="Path_1187" data-name="Path 1187" d="M142.56,399.22l1.27,1a18.659,18.659,0,0,0,2,1.35c8.34,4.81,21.82,4.81,30.1,0a18.08,18.08,0,0,0,1.88-1.26l1.28-1Z" transform="translate(-1.63 -17.17)" fill="#a2acbd"/>
      <path id="Path_1188" data-name="Path 1188" d="M138,384.54v6.69c0,3.41,2.24,6.83,6.75,9.44,9,5.17,23.45,5.17,32.35,0,4.43-2.58,6.64-5.94,6.65-9.31v-6.69Z" transform="translate(-1.63 -17.17)" fill="url(#linear-gradient-9)"/>
      <path id="Path_1189" data-name="Path 1189" d="M179.17,376.69l-1.27-1-34-.09-1.28,1c-6.81,5.2-6.09,12.65,2.13,17.4a32.43,32.43,0,0,0,14.38,3.84c6.45.29,13.06-1,18-3.84.6-.35,1.15-.71,1.66-1.08C185.28,388.19,185.41,381.5,179.17,376.69Z" transform="translate(-1.63 -17.17)" fill="url(#linear-gradient-10)"/>
      <ellipse id="Ellipse_40" data-name="Ellipse 40" cx="12.33" cy="21.28" rx="12.33" ry="21.28" transform="matrix(0.003, -1, 1, 0.003, 137.924, 378.159)" fill="#f5f9ff"/>
    </g>
    <path id="Path_1190" data-name="Path 1190" d="M177.52,390.79c-.48.34-1,.68-1.54,1-4.57,2.65-10.73,3.84-16.72,3.57l-.13,2.46c6.45.29,13.06-1,18-3.84.6-.35,1.15-.71,1.66-1.08Z" transform="translate(-1.63 -17.17)" fill="#f5f9ff" opacity="0.7"/>
    <path id="Path_1191" data-name="Path 1191" d="M183.73,391.36v-6.69c0-2.81-1.52-5.62-4.58-8l-1.27-1a23.587,23.587,0,0,0-2-1.34c-8.34-4.82-21.81-4.82-30.1,0a17.541,17.541,0,0,0-1.85,1.25l-1.31,1a12.16,12.16,0,0,0-3.91,4.74c.95,2.48,3.07,4.85,6.41,6.77,8.41,4.86,21.56,5.3,30.81,1.35l1.87,1.08,1.31,2.12.88,6C182.48,396.41,183.73,393.89,183.73,391.36Z" transform="translate(-1.63 -17.17)" fill="#a6b0c0"/>
    <path id="Path_1192" data-name="Path 1192" d="M191,370.41v4.9c0-3.39-2.22-6.79-6.7-9.37-8.89-5.13-23.31-5.13-32.14,0-4.39,2.55-6.58,5.89-6.59,9.24v-4.9c0-3.35,2.21-6.69,6.59-9.24,8.84-5.13,23.26-5.13,32.15,0,4.47,2.58,6.71,6,6.7,9.37Z" transform="translate(-1.63 -17.17)" fill="url(#linear-gradient-11)"/>
    <path id="Path_1193" data-name="Path 1193" d="M152.12,364c8.84-5.14,23.26-5.14,32.15,0,4.1,2.37,6.32,5.42,6.65,8.53.38-3.65-1.83-7.38-6.65-10.16-8.89-5.13-23.31-5.13-32.15,0-4.75,2.76-6.93,6.46-6.54,10.08C145.9,369.35,148.08,366.33,152.12,364Z" transform="translate(-1.63 -17.17)" fill="#1a9a90"/>
    <path id="Path_1194" data-name="Path 1194" d="M184.27,363.67c-8.89-5.13-23.31-5.13-32.15,0s-8.78,13.49.11,18.62,23.31,5.14,32.14,0S193.16,368.81,184.27,363.67Z" transform="translate(-1.63 -17.17)" fill="#3dc4bd" opacity="0.8"/>
    <path id="Path_1195" data-name="Path 1195" d="M192,370.42v4.9c0,3.49-2.3,7-6.88,9.65-9.22,5.36-24.28,5.36-33.56,0-4.67-2.7-7-6.25-7-9.79v-4.9c0,3.54,2.32,7.09,7,9.79,9.28,5.36,24.34,5.36,33.56,0,4.58-2.66,6.88-6.16,6.89-9.65Z" transform="translate(-1.63 -17.17)" fill="url(#linear-gradient-12)"/>
    <path id="Path_1196" data-name="Path 1196" d="M185,360.63c9.28,5.36,9.33,14.08.11,19.44s-24.28,5.36-33.56,0-9.33-14.08-.11-19.44S175.69,355.27,185,360.63Zm-32.74,19c8.89,5.13,23.31,5.13,32.14,0s8.79-13.49-.1-18.62-23.31-5.13-32.15,0S143.37,374.49,152.26,379.63Z" transform="translate(-1.63 -17.17)" fill="#f5f9ff"/>
    <g id="Axonometric_Cylinder" data-name="Axonometric Cylinder">
      <path id="Cylinder_face" data-name="Cylinder face" d="M189.35,387.23c0,1.22.85,1.71,1.9,1.1a4.18,4.18,0,0,0,1.91-3.3c0-1.21-.85-1.71-1.91-1.1a4.22,4.22,0,0,0-1.9,3.3Z" transform="translate(-1.63 -17.17)" fill="#6c00ac"/>
      <path id="Cylinder_body" data-name="Cylinder body" d="M192.61,383.81l-6.17-3.57a1.34,1.34,0,0,0-1.36.13,4.22,4.22,0,0,0-1.9,3.3,1.37,1.37,0,0,0,.54,1.23l6.17,3.56a1.34,1.34,0,0,1-.54-1.23,4.22,4.22,0,0,1,1.9-3.3,1.32,1.32,0,0,1,1.36-.12Z" transform="translate(-1.63 -17.17)" fill="#f5f9ff"/>
    </g>
    <g id="Axonometric_Cylinder-2" data-name="Axonometric Cylinder">
      <path id="Path_1197" data-name="Path 1197" d="M194.11,382.48a2.27,2.27,0,0,0-2.32.22,7.16,7.16,0,0,0-3.24,5.62,2.3,2.3,0,0,0,.93,2.09L211.21,403l4.63-7.92Z" transform="translate(-1.63 -17.17)" fill="#0656d7"/>
      <path id="Cylinder_face-2" data-name="Cylinder face" d="M210.28,400.86c0,2.07,1.45,2.91,3.24,1.88a7.16,7.16,0,0,0,3.25-5.62c0-1.36-.63-2.19-1.57-2.31a2.79,2.79,0,0,0-1.68.43A7.2,7.2,0,0,0,210.28,400.86Z" transform="translate(-1.63 -17.17)" fill="#0147b8"/>
    </g>
  </g>
</svg>
