<svg xmlns="http://www.w3.org/2000/svg" xmlns:xlink="http://www.w3.org/1999/xlink" width="83.054" height="89.015" viewBox="0 0 83.054 89.015">
  <defs>
    <linearGradient id="linear-gradient" x1="0.409" y1="1.86" x2="0.6" y2="-0.98" gradientUnits="objectBoundingBox">
      <stop offset="0" stop-color="#eaeae5"/>
      <stop offset="1" stop-color="#f9f9f6"/>
    </linearGradient>
    <clipPath id="clip-path">
      <path id="Path_46" data-name="Path 46" d="M182.9,42.9l-.91-.53a8,8,0,0,0-5.23-1.11,8.93,8.93,0,0,0-5.63-1,10.26,10.26,0,0,0-5.28-1.37c-7.25.17-12.77,7.39-14.39,12.5a12.94,12.94,0,0,0-5.79,3.62c-4.89,5.44-6.76,13.59-.1,18a13.33,13.33,0,0,0,1.21.73,8.85,8.85,0,0,0,9.18,0l.11-.08-.11.08L181.5,59.11a12,12,0,0,0,5.44-9C187.08,48.45,186.75,45.27,182.9,42.9Z" transform="translate(-1.63 -17.17)" fill="url(#linear-gradient)"/>
    </clipPath>
    <radialGradient id="radial-gradient" cx="0.549" cy="0.042" r="1.08" gradientTransform="translate(0.105) scale(0.791 1)" gradientUnits="objectBoundingBox">
      <stop offset="0" stop-color="#fff"/>
      <stop offset="0.27" stop-color="#fffffe"/>
      <stop offset="0.64" stop-color="#d7d7d5"/>
      <stop offset="1" stop-color="#a0a09d"/>
    </radialGradient>
    <linearGradient id="linear-gradient-3" x1="0.658" y1="0.519" x2="0.044" y2="0.371" gradientUnits="objectBoundingBox">
      <stop offset="0" stop-color="#fff"/>
      <stop offset="0.17" stop-color="#f8f8f8"/>
      <stop offset="0.42" stop-color="#e5e5e4"/>
      <stop offset="0.71" stop-color="#c5c5c4"/>
      <stop offset="1" stop-color="#a0a09d"/>
    </linearGradient>
    <radialGradient id="radial-gradient-2" cx="0.985" cy="0.916" r="1.545" gradientTransform="translate(0.115) scale(0.77 1)" xlink:href="#radial-gradient"/>
    <linearGradient id="linear-gradient-4" x1="0.852" y1="0.701" x2="-0.414" y2="0.071" gradientTransform="matrix(1, 0, 0, 1, 0, 0)" xlink:href="#radial-gradient"/>
    <radialGradient id="radial-gradient-3" cx="0.835" cy="0.238" r="0.919" gradientTransform="translate(-0.055) scale(1.11 1)" xlink:href="#radial-gradient"/>
    <radialGradient id="radial-gradient-4" cx="0.766" cy="0.177" r="1.496" gradientTransform="translate(0.233) scale(0.534 1)" gradientUnits="objectBoundingBox">
      <stop offset="0" stop-color="#fff"/>
      <stop offset="0.33" stop-color="#dbdbda"/>
      <stop offset="0.78" stop-color="#b0b0ae"/>
      <stop offset="1" stop-color="#a0a09d"/>
    </radialGradient>
    <radialGradient id="radial-gradient-5" cx="0.652" cy="0.318" r="0.612" gradientTransform="matrix(0.506, -0.707, 0.506, 0.707, 0.733, 5.542)" xlink:href="#radial-gradient-4"/>
    <radialGradient id="radial-gradient-6" cx="0.653" cy="0.312" r="0.653" gradientTransform="matrix(0.514, -0.707, 0.514, 0.707, 0.407, 6.255)" xlink:href="#radial-gradient-4"/>
    <radialGradient id="radial-gradient-7" cx="0.529" cy="0.009" r="0.897" gradientTransform="translate(0.172) scale(0.655 1)" xlink:href="#radial-gradient-4"/>
    <radialGradient id="radial-gradient-8" cx="0.817" cy="0.099" r="1.356" gradientTransform="translate(0.1) scale(0.8 1)" gradientUnits="objectBoundingBox">
      <stop offset="0" stop-color="#0c0c0c"/>
      <stop offset="1" stop-color="#080808"/>
    </radialGradient>
    <radialGradient id="radial-gradient-9" cx="0.817" cy="0.099" r="1.357" gradientTransform="translate(0.101) scale(0.799 1)" gradientUnits="objectBoundingBox">
      <stop offset="0" stop-color="#181818"/>
      <stop offset="1" stop-color="#0f0f0f"/>
    </radialGradient>
    <radialGradient id="radial-gradient-10" cx="0.817" cy="0.099" r="1.357" gradientTransform="translate(0.101) scale(0.798 1)" gradientUnits="objectBoundingBox">
      <stop offset="0" stop-color="#242424"/>
      <stop offset="1" stop-color="#171717"/>
    </radialGradient>
    <radialGradient id="radial-gradient-11" cx="0.817" cy="0.098" r="1.358" gradientTransform="translate(0.102) scale(0.796 1)" gradientUnits="objectBoundingBox">
      <stop offset="0" stop-color="#30302f"/>
      <stop offset="1" stop-color="#1f1f1f"/>
    </radialGradient>
    <radialGradient id="radial-gradient-12" cx="0.817" cy="0.099" r="1.359" gradientTransform="translate(0.103) scale(0.794 1)" gradientUnits="objectBoundingBox">
      <stop offset="0" stop-color="#3c3c3b"/>
      <stop offset="1" stop-color="#272726"/>
    </radialGradient>
    <radialGradient id="radial-gradient-13" cx="0.818" cy="0.099" r="1.358" gradientTransform="translate(0.103) scale(0.794 1)" gradientUnits="objectBoundingBox">
      <stop offset="0" stop-color="#484847"/>
      <stop offset="1" stop-color="#2e2e2e"/>
    </radialGradient>
    <radialGradient id="radial-gradient-14" cx="0.816" cy="0.099" r="1.358" gradientTransform="translate(0.104) scale(0.792 1)" gradientUnits="objectBoundingBox">
      <stop offset="0" stop-color="#545453"/>
      <stop offset="1" stop-color="#363636"/>
    </radialGradient>
    <radialGradient id="radial-gradient-15" cx="0.817" cy="0.1" r="1.357" gradientTransform="translate(0.104) scale(0.792 1)" gradientUnits="objectBoundingBox">
      <stop offset="0" stop-color="#60605f"/>
      <stop offset="1" stop-color="#3e3e3d"/>
    </radialGradient>
    <radialGradient id="radial-gradient-16" cx="0.817" cy="0.1" r="1.358" gradientTransform="translate(0.105) scale(0.791 1)" gradientUnits="objectBoundingBox">
      <stop offset="0" stop-color="#6c6c6b"/>
      <stop offset="1" stop-color="#454545"/>
    </radialGradient>
    <radialGradient id="radial-gradient-17" cx="0.818" cy="0.1" r="1.356" gradientTransform="translate(0.105) scale(0.79 1)" gradientUnits="objectBoundingBox">
      <stop offset="0" stop-color="#787877"/>
      <stop offset="1" stop-color="#4d4d4d"/>
    </radialGradient>
    <radialGradient id="radial-gradient-18" cx="0.817" cy="0.1" r="1.358" gradientTransform="translate(0.106) scale(0.788 1)" gradientUnits="objectBoundingBox">
      <stop offset="0" stop-color="#848482"/>
      <stop offset="1" stop-color="#555554"/>
    </radialGradient>
    <radialGradient id="radial-gradient-19" cx="0.817" cy="0.099" r="1.358" gradientTransform="translate(0.107) scale(0.786 1)" gradientUnits="objectBoundingBox">
      <stop offset="0" stop-color="#90908e"/>
      <stop offset="1" stop-color="#5d5d5c"/>
    </radialGradient>
    <radialGradient id="radial-gradient-20" cx="0.816" cy="0.099" r="1.358" gradientTransform="translate(0.107) scale(0.786 1)" gradientUnits="objectBoundingBox">
      <stop offset="0" stop-color="#9c9c9a"/>
      <stop offset="1" stop-color="#646464"/>
    </radialGradient>
    <radialGradient id="radial-gradient-21" cx="0.817" cy="0.099" r="1.358" gradientTransform="translate(0.108) scale(0.785 1)" gradientUnits="objectBoundingBox">
      <stop offset="0" stop-color="#a8a8a6"/>
      <stop offset="1" stop-color="#6c6c6b"/>
    </radialGradient>
    <radialGradient id="radial-gradient-22" cx="0.817" cy="0.098" r="1.36" gradientTransform="translate(0.109) scale(0.782 1)" gradientUnits="objectBoundingBox">
      <stop offset="0" stop-color="#b4b4b2"/>
      <stop offset="1" stop-color="#747473"/>
    </radialGradient>
    <radialGradient id="radial-gradient-23" cx="0.817" cy="0.099" r="1.359" gradientTransform="translate(0.11) scale(0.78 1)" gradientUnits="objectBoundingBox">
      <stop offset="0" stop-color="#c0c0be"/>
      <stop offset="1" stop-color="#7b7b7b"/>
    </radialGradient>
    <radialGradient id="radial-gradient-24" cx="0.817" cy="0.099" r="1.359" gradientTransform="translate(0.111) scale(0.779 1)" gradientUnits="objectBoundingBox">
      <stop offset="0" stop-color="#ccccca"/>
      <stop offset="1" stop-color="#838382"/>
    </radialGradient>
    <radialGradient id="radial-gradient-25" cx="0.818" cy="0.1" r="1.359" gradientTransform="translate(0.111) scale(0.778 1)" gradientUnits="objectBoundingBox">
      <stop offset="0" stop-color="#d8d8d5"/>
      <stop offset="1" stop-color="#8b8b8a"/>
    </radialGradient>
    <radialGradient id="radial-gradient-26" cx="0.817" cy="0.1" r="1.358" gradientTransform="translate(0.112) scale(0.775 1)" gradientUnits="objectBoundingBox">
      <stop offset="0" stop-color="#e4e4e1"/>
      <stop offset="1" stop-color="#939392"/>
    </radialGradient>
    <radialGradient id="radial-gradient-27" cx="0.817" cy="0.1" r="1.358" gradientTransform="translate(0.113) scale(0.773 1)" gradientUnits="objectBoundingBox">
      <stop offset="0" stop-color="#f0f0ed"/>
      <stop offset="1" stop-color="#9a9a99"/>
    </radialGradient>
    <radialGradient id="radial-gradient-28" cx="0.817" cy="0.102" r="1.356" gradientTransform="translate(0.114) scale(0.772 1)" gradientUnits="objectBoundingBox">
      <stop offset="0" stop-color="#fcfcf9"/>
      <stop offset="1" stop-color="#a2a2a1"/>
    </radialGradient>
  </defs>
  <g id="_16" data-name="16" transform="translate(-118.816 -0.093)">
    <path id="Path_9" data-name="Path 9" d="M155.32,78.12a21,21,0,0,0-7.63.14,25,25,0,0,0-7.38-.22c-9.15,1.21-12.63,7.31-12.21,11.29-1.87.71-4.16,1.61-5.59,3.51-7.55,10,7.25,14.67,18.07,13.16a18.24,18.24,0,0,0,6.57-2.35c6.2-3.59,23-13.26,22.91-13.19,2.94-1.88,3.93-4.63,2.53-7.38C170.33,78.65,159.86,77.16,155.32,78.12Z" transform="translate(-1.63 -17.17)" fill="#003893" opacity="0.1"/>
    <path id="Path_10" data-name="Path 10" d="M141.08,89.53a.14.14,0,0,1-.11-.06.12.12,0,0,1,.05-.16l18-10.41V67.61a.12.12,0,0,1,.12-.12.13.13,0,0,1,.12.12V79a.14.14,0,0,1-.06.11L141.1,89.55Z" transform="translate(-1.63 -17.17)" fill="#9ffffa"/>
    <path id="Path_11" data-name="Path 11" d="M170,92.17a.12.12,0,0,1-.12-.12V63.1a.121.121,0,0,1,.24.02V92.05a.12.12,0,0,1-.12.12Z" transform="translate(-1.63 -17.17)" fill="#9ffffa"/>
    <path id="Path_12" data-name="Path 12" d="M180.12,46a.13.13,0,0,1-.12,0,.12.12,0,0,1,0-.16l9.38-5.41v-14a.115.115,0,1,1,.23,0v14a.1.1,0,0,1-.06.1L180.18,46Z" transform="translate(-1.63 -17.17)" fill="#9ffffa"/>
    <path id="Path_13" data-name="Path 13" d="M150.12,57.13A.12.12,0,0,1,150,57V27a.12.12,0,0,1,.12-.11.11.11,0,0,1,.12.11V57a.11.11,0,0,1-.12.13Z" transform="translate(-1.63 -17.17)" fill="#9ffffa"/>
    <path id="Path_14" data-name="Path 14" d="M182.9,42.9l-.91-.53a8,8,0,0,0-5.23-1.11,8.93,8.93,0,0,0-5.63-1,10.26,10.26,0,0,0-5.28-1.37c-7.25.17-12.77,7.39-14.39,12.5a12.94,12.94,0,0,0-5.79,3.62c-4.89,5.44-6.76,13.59-.1,18a13.33,13.33,0,0,0,1.21.73,8.85,8.85,0,0,0,9.18,0l.11-.08-.11.08L181.5,59.11a12,12,0,0,0,5.44-9C187.08,48.45,186.75,45.27,182.9,42.9Z" transform="translate(-1.63 -17.17)" fill="url(#linear-gradient)"/>
    <g id="Group_19" data-name="Group 19" clip-path="url(#clip-path)">
      <g id="Group_9" data-name="Group 9">
        <path id="Path_15" data-name="Path 15" d="M182.9,42.9l-.91-.53a8,8,0,0,0-5.23-1.11,8.93,8.93,0,0,0-5.63-1,10.26,10.26,0,0,0-5.28-1.37c-7.25.17-12.77,7.39-14.39,12.5a12.94,12.94,0,0,0-5.79,3.62c-4.89,5.44-6.76,13.59-.1,18a13.33,13.33,0,0,0,1.21.73,8.85,8.85,0,0,0,9.18,0l.11-.08-.11.08L181.5,59.11a12,12,0,0,0,5.44-9C187.08,48.45,186.75,45.27,182.9,42.9Z" transform="translate(-1.63 -17.17)" opacity="0.5" fill="url(#radial-gradient)"/>
      </g>
      <g id="Group_10" data-name="Group 10">
        <path id="Path_16" data-name="Path 16" d="M175.2,43.88a9,9,0,0,0-3.15-3.05l-.91-.53-.16-.08a10.2,10.2,0,0,0-5.13-1.29c-7.19.17-12.67,7.27-14.35,12.37v.13c1.11.55,7.67,4.48,8.24,6,8.71,12.79,14.49-12.66,16-10.27a3.73,3.73,0,0,0-.54-3.28Z" transform="translate(-1.63 -17.17)" opacity="0.2" fill="url(#linear-gradient-3)"/>
      </g>
      <g id="Group_11" data-name="Group 11">
        <path id="Path_17" data-name="Path 17" d="M181,45a7.63,7.63,0,0,0-3-3l-.92-.53-.38-.19a8.84,8.84,0,0,0-5.61-1l.92.53c2.21,1.36,4.58,4,3.6,6.36,2.51-1.37,4.66-.87,5.65,1A4,4,0,0,0,181,45Z" transform="translate(-1.63 -17.17)" opacity="0.2" fill="url(#radial-gradient-2)"/>
      </g>
      <g id="Group_12" data-name="Group 12">
        <path id="Path_18" data-name="Path 18" d="M182.9,42.9l-.91-.53a8,8,0,0,0-5.23-1.11c2.54,1.1,5.22,3.76,4.67,6.48a.812.812,0,0,1,0,.14,1.155,1.155,0,0,1-.1.35,5.133,5.133,0,0,1,.57-.38c2.5-1.44,4.53-.28,4.54,2.59a9.93,9.93,0,0,1-4.51,7.81,1,1,0,0,1-.4.86,11.91,11.91,0,0,0,5.44-9C187.08,48.45,186.75,45.27,182.9,42.9Z" transform="translate(-1.63 -17.17)" opacity="0.2" fill="url(#linear-gradient-4)"/>
      </g>
      <g id="Group_13" data-name="Group 13">
        <path id="Path_19" data-name="Path 19" d="M162.52,70.07s-3.79-12.72-2.82-12.61c-.57-1.55-7.13-5.48-8.24-6a12.94,12.94,0,0,0-5.79,3.62c-5,5.51-6.7,13.7-.1,18l.3.19.91.53a8.85,8.85,0,0,0,9.18,0l.11-.08-.11.08Z" transform="translate(-1.63 -17.17)" opacity="0.2" fill="url(#radial-gradient-3)"/>
      </g>
      <g id="Group_14" data-name="Group 14">
        <path id="Path_20" data-name="Path 20" d="M171,40.15c3.61,2.11,6.88,6,4.1,7.64s-11.87-.22-14.65-1.83-2.79-4.22,0-5.83a12.09,12.09,0,0,1,10.55.02Z" transform="translate(-1.63 -17.17)" fill="url(#radial-gradient-4)"/>
      </g>
      <g id="Group_15" data-name="Group 15">
        <path id="Path_21" data-name="Path 21" d="M171.76,40.05a2,2,0,0,0-2,1.16,3.91,3.91,0,0,0,1.7,5.18c2.85,1.51,7.33,3.22,9.88,1.84C182.55,44.2,177.11,40.05,171.76,40.05Z" transform="translate(-1.63 -17.17)" fill="url(#radial-gradient-5)"/>
      </g>
      <g id="Group_16" data-name="Group 16">
        <path id="Path_22" data-name="Path 22" d="M177.42,41.11a2.87,2.87,0,0,0-.81.07c2.94,1.34,5.68,4.21,4.69,7,1.91.52,4.3.68,5.66,0C186.41,44.85,182.77,41.11,177.42,41.11Z" transform="translate(-1.63 -17.17)" fill="url(#radial-gradient-6)"/>
      </g>
      <g id="Group_17" data-name="Group 17">
        <path id="Path_23" data-name="Path 23" d="M151.46,51.43c-1.73,0-3.26,1.11-4.58,1.87-2.78,1.61-4.16,6-1.37,7.64s7.7.86,14.2-3.48C157.64,54.87,152.69,52.06,151.46,51.43Z" transform="translate(-1.63 -17.17)" fill="url(#radial-gradient-7)"/>
      </g>
      <g id="Group_18" data-name="Group 18" opacity="0.4">
        <path id="Path_24" data-name="Path 24" d="M153.57,74.71c-2.67,0-4.4-2.12-4.41-5.39A14.77,14.77,0,0,1,156,57.55a6.86,6.86,0,0,1,3.1-1,20.09,20.09,0,0,1,8.37-11.1,8.83,8.83,0,0,1,4.36-1.31,5.22,5.22,0,0,1,4.15,1.92,6.07,6.07,0,0,1,2.41-.54A4,4,0,0,1,181.55,47a4.85,4.85,0,0,1,2.35-.67c2,0,3.37,1.64,3.38,4.08A10.76,10.76,0,0,1,182.34,59L156.86,73.72a6.72,6.72,0,0,1-3.29,1Z" transform="translate(-1.63 -17.17)"/>
        <path id="Path_25" data-name="Path 25" d="M167.49,45.58a9.46,9.46,0,0,1,3.14-1.19,7.14,7.14,0,0,1,1.21-.1,5.47,5.47,0,0,1,1.73.31,6,6,0,0,1,2.27,1.47l.13.13a6,6,0,0,1,1.79-.5,3.12,3.12,0,0,1,.61,0,3.85,3.85,0,0,1,1.19.19,4.61,4.61,0,0,1,1.68,1,3.22,3.22,0,0,1,.32.32l.61-.3a4.36,4.36,0,0,1,1.73-.39,3,3,0,0,1,2.59,1.45,4.79,4.79,0,0,1,.65,2.58,10.6,10.6,0,0,1-4.87,8.39L156.85,73.58a9.209,9.209,0,0,1-1.14.56,5.89,5.89,0,0,1-2.14.44,4,4,0,0,1-3.93-3,7.5,7.5,0,0,1-.35-2.36A14.64,14.64,0,0,1,156,57.66a7.549,7.549,0,0,1,1.92-.8h.45l.73-.09c.17-.46.35-.93.53-1.4a19.61,19.61,0,0,1,7.86-9.79Z" transform="translate(-1.63 -17.17)" fill="url(#radial-gradient-8)"/>
        <path id="Path_26" data-name="Path 26" d="M167.55,45.69a9.32,9.32,0,0,1,3.13-1.18,6.31,6.31,0,0,1,1.21-.08,5.06,5.06,0,0,1,1.71.35,7.52,7.52,0,0,1,1.6.87,7.271,7.271,0,0,1,.67.55l.13.12a6,6,0,0,1,1.79-.5,4.15,4.15,0,0,1,.61,0,3.79,3.79,0,0,1,1.17.22,5.78,5.78,0,0,1,1.68,1l.32.3.61-.29a4.12,4.12,0,0,1,1.72-.4,2.81,2.81,0,0,1,2.5,1.45,4.81,4.81,0,0,1,.61,2.53,10.47,10.47,0,0,1-4.8,8.2L156.84,73.44a9.211,9.211,0,0,1-1.14.56,5.68,5.68,0,0,1-2.13.46,3.91,3.91,0,0,1-3.82-3,7,7,0,0,1-.33-2.32,14.52,14.52,0,0,1,6.65-11.39A7,7,0,0,1,158,57h.45l.73-.09c.18-.45.36-.92.55-1.39a19.51,19.51,0,0,1,7.82-9.83Z" transform="translate(-1.63 -17.17)" fill="url(#radial-gradient-9)"/>
        <path id="Path_27" data-name="Path 27" d="M167.61,45.8a9.08,9.08,0,0,1,3.13-1.17,5,5,0,0,1,1.21-.06,4.91,4.91,0,0,1,1.68.38,10.809,10.809,0,0,1,1.6.88c.24.16.46.33.68.51l.13.1a5.92,5.92,0,0,1,1.77-.5,4.3,4.3,0,0,1,.62,0,3.16,3.16,0,0,1,1.15.25,6.84,6.84,0,0,1,1.67,1l.33.28.6-.29a4.11,4.11,0,0,1,1.72-.42,2.66,2.66,0,0,1,2.4,1.45,4.77,4.77,0,0,1,.57,2.48,10.32,10.32,0,0,1-4.72,8L156.82,73.31a9.871,9.871,0,0,1-1.13.56,5.45,5.45,0,0,1-2.12.46,3.83,3.83,0,0,1-3.72-3,7.191,7.191,0,0,1-.29-2.29,14.37,14.37,0,0,1,6.57-11.2,7.21,7.21,0,0,1,1.94-.79h.44l.74-.09c.19-.44.38-.9.56-1.38a19.43,19.43,0,0,1,7.8-9.78Z" transform="translate(-1.63 -17.17)" fill="url(#radial-gradient-10)"/>
        <path id="Path_28" data-name="Path 28" d="M167.67,45.91a8.73,8.73,0,0,1,3.13-1.16,5.41,5.41,0,0,1,1.2,0,4.57,4.57,0,0,1,1.66.43,16.351,16.351,0,0,1,1.59.87c.24.15.47.31.69.47l.13.1a5.46,5.46,0,0,1,1.77-.5,4.33,4.33,0,0,1,.62,0,3.3,3.3,0,0,1,1.13.29,9.861,9.861,0,0,1,1.66,1l.34.27.6-.29a3.91,3.91,0,0,1,1.71-.43,2.54,2.54,0,0,1,2.31,1.45,4.8,4.8,0,0,1,.53,2.43,10.24,10.24,0,0,1-4.65,7.84L156.81,73.17a9.873,9.873,0,0,1-1.13.56,5.27,5.27,0,0,1-2.11.48,3.72,3.72,0,0,1-3.61-3,7.2,7.2,0,0,1-.27-2.25,14.24,14.24,0,0,1,6.51-11,6.52,6.52,0,0,1,1.93-.78h.45l.73-.09c.21-.43.41-.89.59-1.37a19.29,19.29,0,0,1,7.77-9.81Z" transform="translate(-1.63 -17.17)" fill="url(#radial-gradient-11)"/>
        <path id="Path_29" data-name="Path 29" d="M167.74,46a8.62,8.62,0,0,1,3.12-1.14,4.85,4.85,0,0,1,1.2,0,4.45,4.45,0,0,1,1.63.46l1.58.87c.25.14.48.29.7.43l.14.09a5.4,5.4,0,0,1,1.76-.5,4.181,4.181,0,0,1,.61,0,3,3,0,0,1,1.12.32,16.179,16.179,0,0,1,1.65,1c.12.08.24.16.35.25l.6-.29a3.72,3.72,0,0,1,1.69-.45,2.42,2.42,0,0,1,2.23,1.45,4.78,4.78,0,0,1,.48,2.38,10.06,10.06,0,0,1-4.6,7.6L156.8,73a11.856,11.856,0,0,1-1.12.57,5.35,5.35,0,0,1-2.11.48,3.62,3.62,0,0,1-3.5-2.94,7.41,7.41,0,0,1-.25-2.22,14.17,14.17,0,0,1,6.44-10.83,6.81,6.81,0,0,1,1.94-.77h.45l.73-.1a12.827,12.827,0,0,0,.61-1.35A19.21,19.21,0,0,1,167.74,46Z" transform="translate(-1.63 -17.17)" fill="url(#radial-gradient-12)"/>
        <path id="Path_30" data-name="Path 30" d="M167.8,46.12A8.43,8.43,0,0,1,170.91,45a4.85,4.85,0,0,1,1.2,0,4.17,4.17,0,0,1,1.61.51c.51.29,1.06.59,1.58.86l.7.39.14.08a5.47,5.47,0,0,1,1.76-.5,4.141,4.141,0,0,1,.61,0,3,3,0,0,1,1.1.34c.54.31,1.12.64,1.65,1l.34.22.61-.29a3.71,3.71,0,0,1,1.68-.45,2.3,2.3,0,0,1,2.11,1.4,4.84,4.84,0,0,1,.44,2.33A10,10,0,0,1,182,58.36L156.78,72.9a11.55,11.55,0,0,1-1.11.56,5.18,5.18,0,0,1-2.1.5,3.54,3.54,0,0,1-3.4-2.93,7.27,7.27,0,0,1-.22-2.19,14,14,0,0,1,6.37-10.64,6.59,6.59,0,0,1,1.94-.76h.45l.73-.1a7.861,7.861,0,0,0,.63-1.34,19.13,19.13,0,0,1,7.73-9.88Z" transform="translate(-1.63 -17.17)" fill="url(#radial-gradient-13)"/>
        <path id="Path_31" data-name="Path 31" d="M167.86,46.23A8.28,8.28,0,0,1,171,45.11a4.82,4.82,0,0,1,1.2,0,3.91,3.91,0,0,1,1.58.54,13.838,13.838,0,0,0,1.57.87c.25.12.49.25.72.35l.14.06a5.15,5.15,0,0,1,1.75-.49,3.11,3.11,0,0,1,.61,0,2.67,2.67,0,0,1,1.08.37c.52.33,1.1.66,1.64,1l.35.21.61-.29a3.58,3.58,0,0,1,1.67-.47,2.19,2.19,0,0,1,2.05,1.45,4.93,4.93,0,0,1,.39,2.28,9.79,9.79,0,0,1-4.43,7.29L156.77,72.76c-.26.15-.86.47-1.11.57a5.13,5.13,0,0,1-2.09.5c-1.82,0-2.87-1.32-3.29-2.92a7,7,0,0,1-.19-2.15,13.9,13.9,0,0,1,6.29-10.45,6,6,0,0,1,2-.75h.45l.73-.11a6.239,6.239,0,0,0,.65-1.32,19,19,0,0,1,7.65-9.9Z" transform="translate(-1.63 -17.17)" fill="url(#radial-gradient-14)"/>
        <path id="Path_32" data-name="Path 32" d="M167.92,46.34A8,8,0,0,1,171,45.23a4.72,4.72,0,0,1,1.19,0,3.89,3.89,0,0,1,1.56.59,11.249,11.249,0,0,0,1.56.86c.26.12.5.23.73.31h.14a5.15,5.15,0,0,1,1.75-.49,3.08,3.08,0,0,1,.61,0,2.49,2.49,0,0,1,1.06.4,18.916,18.916,0,0,0,1.63,1l.36.19c.21-.09.41-.19.6-.29a3.58,3.58,0,0,1,1.67-.48,2.07,2.07,0,0,1,2,1.45A4.86,4.86,0,0,1,186.2,51a9.64,9.64,0,0,1-4.35,7.1L156.76,72.62c-.24.14-.87.48-1.11.58a5.15,5.15,0,0,1-2.08.51c-1.8,0-2.8-1.35-3.18-2.91a7.22,7.22,0,0,1-.17-2.12,13.78,13.78,0,0,1,6.23-10.26,5.9,5.9,0,0,1,1.94-.75h.45a5.569,5.569,0,0,0,.73-.11,5.06,5.06,0,0,0,.68-1.31,18.9,18.9,0,0,1,7.67-9.91Z" transform="translate(-1.63 -17.17)" fill="url(#radial-gradient-15)"/>
        <path id="Path_33" data-name="Path 33" d="M168,46.45a7.88,7.88,0,0,1,3.1-1.11,4.7,4.7,0,0,1,1.19,0,3.58,3.58,0,0,1,1.52.62,8,8,0,0,0,1.57.86,5.53,5.53,0,0,0,.73.27h.15A5.16,5.16,0,0,1,178,46.6a3.06,3.06,0,0,1,.61,0,2.25,2.25,0,0,1,1,.43,11.121,11.121,0,0,0,1.63,1l.37.17a5.548,5.548,0,0,0,.6-.29,3.47,3.47,0,0,1,1.66-.5,2,2,0,0,1,1.87,1.46,4.93,4.93,0,0,1,.3,2.17A9.56,9.56,0,0,1,181.77,58l-25,14.44a11.8,11.8,0,0,1-1.11.58,4.82,4.82,0,0,1-2.07.52c-1.78,0-2.72-1.38-3.08-2.9a7.36,7.36,0,0,1-.14-2.08,13.65,13.65,0,0,1,6.16-10.07,5.57,5.57,0,0,1,2-.74h.45a5.84,5.84,0,0,0,.73-.11,4.69,4.69,0,0,0,.7-1.29,18.72,18.72,0,0,1,7.59-9.9Z" transform="translate(-1.63 -17.17)" fill="url(#radial-gradient-16)"/>
        <path id="Path_34" data-name="Path 34" d="M168.05,46.56a7.85,7.85,0,0,1,3.1-1.1,4.19,4.19,0,0,1,1.18,0,3.52,3.52,0,0,1,1.5.67,6.59,6.59,0,0,0,1.56.86,5,5,0,0,0,.74.22h.15A5.16,5.16,0,0,1,178,46.8a3,3,0,0,1,.61,0,2.12,2.12,0,0,1,1,.46,7.43,7.43,0,0,0,1.63,1l.37.15a4.109,4.109,0,0,0,.6-.28,3.29,3.29,0,0,1,1.65-.51,1.87,1.87,0,0,1,1.78,1.45,5,5,0,0,1,.25,2.13,9.44,9.44,0,0,1-4.21,6.74l-25,14.42c-.2.12-.9.5-1.09.58a4.88,4.88,0,0,1-2.07.53c-1.76,0-2.65-1.41-3-2.89a7.19,7.19,0,0,1-.11-2,13.52,13.52,0,0,1,6.08-9.89,5.57,5.57,0,0,1,2-.72H159a3.374,3.374,0,0,0,.73-.12,3.8,3.8,0,0,0,.72-1.28,18.65,18.65,0,0,1,7.6-10.01Z" transform="translate(-1.63 -17.17)" fill="url(#radial-gradient-17)"/>
        <path id="Path_35" data-name="Path 35" d="M168.11,46.66a7.91,7.91,0,0,1,3.09-1.08,4.22,4.22,0,0,1,1.19.07,3.29,3.29,0,0,1,1.47.7,5.13,5.13,0,0,0,1.55.86,4,4,0,0,0,.76.19h.15a4.92,4.92,0,0,1,1.73-.48,2.37,2.37,0,0,1,.6,0,2,2,0,0,1,1,.49,5.88,5.88,0,0,0,1.62,1l.38.13a4.111,4.111,0,0,0,.6-.28,3.2,3.2,0,0,1,1.64-.53c.82,0,1.37.52,1.68,1.46a4.88,4.88,0,0,1,.22,2.07,9.36,9.36,0,0,1-4.14,6.56L156.72,72.21c-.18.11-.91.51-1.09.58a4.72,4.72,0,0,1-2.06.54c-1.74,0-2.57-1.44-2.86-2.88a7,7,0,0,1-.09-2,13.45,13.45,0,0,1,6-9.7,5.61,5.61,0,0,1,2-.72H159a4.281,4.281,0,0,0,.73-.12,3.55,3.55,0,0,0,.74-1.27,18.54,18.54,0,0,1,7.64-9.98Z" transform="translate(-1.63 -17.17)" fill="url(#radial-gradient-18)"/>
        <path id="Path_36" data-name="Path 36" d="M168.17,46.77a7.57,7.57,0,0,1,3.09-1.07,4.14,4.14,0,0,1,1.18.08,3.25,3.25,0,0,1,1.45.75,4.2,4.2,0,0,0,1.55.85,3.1,3.1,0,0,0,.76.15h.15a4.92,4.92,0,0,1,1.73-.48,2.36,2.36,0,0,1,.6,0,1.94,1.94,0,0,1,1,.51,4.57,4.57,0,0,0,1.61,1l.39.11a3.23,3.23,0,0,0,.59-.29,3.28,3.28,0,0,1,1.64-.53c.79,0,1.31.51,1.59,1.45a4.92,4.92,0,0,1,.17,2,9.2,9.2,0,0,1-4.06,6.37l-24.9,14.4c-.17.1-.93.52-1.09.59a4.74,4.74,0,0,1-2.05.55c-1.72,0-2.5-1.47-2.76-2.87a7.59,7.59,0,0,1-.06-2,13.35,13.35,0,0,1,5.94-9.51,5.1,5.1,0,0,1,2-.71h.46a4.16,4.16,0,0,0,.72-.12,3.22,3.22,0,0,0,.77-1.26,18.49,18.49,0,0,1,7.53-9.97Z" transform="translate(-1.63 -17.17)" fill="url(#radial-gradient-19)"/>
        <path id="Path_37" data-name="Path 37" d="M168.24,46.88a7.32,7.32,0,0,1,3.08-1.06,3.8,3.8,0,0,1,1.18.1,3.11,3.11,0,0,1,1.42.78,3.55,3.55,0,0,0,1.54.85,2.14,2.14,0,0,0,.77.11h.16a4.51,4.51,0,0,1,1.72-.49,2.36,2.36,0,0,1,.6,0,1.85,1.85,0,0,1,1,.54,3.89,3.89,0,0,0,1.61,1l.39.1a3.579,3.579,0,0,0,.59-.29,3.19,3.19,0,0,1,1.63-.55c.76,0,1.25.52,1.5,1.46a4.86,4.86,0,0,1,.12,2,9,9,0,0,1-4,6.19L156.7,71.94c-.15.08-.94.53-1.09.58a4.59,4.59,0,0,1-2,.56c-1.7,0-2.42-1.5-2.65-2.86a6.87,6.87,0,0,1,0-1.93,13.19,13.19,0,0,1,5.8-9.29,5.1,5.1,0,0,1,2-.71h.45a2.94,2.94,0,0,0,.73-.13,2.78,2.78,0,0,0,.78-1.24,18.4,18.4,0,0,1,7.52-10.04Z" transform="translate(-1.63 -17.17)" fill="url(#radial-gradient-20)"/>
        <path id="Path_38" data-name="Path 38" d="M168.3,47a7.24,7.24,0,0,1,3.08-1.05,4,4,0,0,1,1.17.11,3,3,0,0,1,1.4.83,3.27,3.27,0,0,0,1.53.85,2.37,2.37,0,0,0,.78.06h.17a4.27,4.27,0,0,1,1.71-.48,2.36,2.36,0,0,1,.6.05,1.72,1.72,0,0,1,.94.57,3.34,3.34,0,0,0,1.6,1,3.06,3.06,0,0,0,.4.07,2.881,2.881,0,0,0,.59-.28,3.1,3.1,0,0,1,1.62-.57c.72,0,1.18.52,1.41,1.46a5.31,5.31,0,0,1,.08,1.93,9,9,0,0,1-3.92,6L156.68,71.8c-.13.08-1,.54-1.07.59a4.65,4.65,0,0,1-2,.57c-1.68,0-2.34-1.53-2.54-2.85a7.09,7.09,0,0,1,0-1.9,13.09,13.09,0,0,1,5.8-9.14,4.94,4.94,0,0,1,2-.7h.45a3.49,3.49,0,0,0,.73-.14,2.66,2.66,0,0,0,.8-1.22A17.589,17.589,0,0,1,168.3,47Z" transform="translate(-1.63 -17.17)" fill="url(#radial-gradient-21)"/>
        <path id="Path_39" data-name="Path 39" d="M168.36,47.1a7.08,7.08,0,0,1,3.07-1,3.72,3.72,0,0,1,1.18.13,2.89,2.89,0,0,1,1.37.86,2.85,2.85,0,0,0,1.53.85,2.3,2.3,0,0,0,.78,0h.17a4.31,4.31,0,0,1,1.71-.48,2,2,0,0,1,.6.06,1.73,1.73,0,0,1,.92.6,2.94,2.94,0,0,0,1.59,1,1.94,1.94,0,0,0,.4.06,2.73,2.73,0,0,0,.6-.28,3,3,0,0,1,1.61-.58c.69,0,1.12.51,1.32,1.46a5.28,5.28,0,0,1,0,1.87,8.86,8.86,0,0,1-3.84,5.83l-24.7,14.18c-.11.07-1,.55-1.07.59a4.41,4.41,0,0,1-2,.59c-1.67,0-2.26-1.57-2.43-2.84a7.33,7.33,0,0,1,0-1.87,13,13,0,0,1,5.73-8.95,4.72,4.72,0,0,1,2-.69h.45a2.86,2.86,0,0,0,.73-.14,2.45,2.45,0,0,0,.83-1.21,18.18,18.18,0,0,1,7.45-10.04Z" transform="translate(-1.63 -17.17)" fill="url(#radial-gradient-22)"/>
        <path id="Path_40" data-name="Path 40" d="M168.42,47.2a6.9,6.9,0,0,1,3.07-1,3.42,3.42,0,0,1,1.17.14,2.88,2.88,0,0,1,1.35.91,2.57,2.57,0,0,0,1.52.84,2,2,0,0,0,.8,0h.17a4.27,4.27,0,0,1,1.7-.48,2.35,2.35,0,0,1,.6.07,1.65,1.65,0,0,1,.9.63,2.63,2.63,0,0,0,1.58.95,2,2,0,0,0,.41,0,2.46,2.46,0,0,0,.59-.28,3,3,0,0,1,1.61-.6c.66,0,1.06.51,1.23,1.47a5.56,5.56,0,0,1,0,1.82,8.81,8.81,0,0,1-3.77,5.64L156.66,71.53l-1.07.59a4.4,4.4,0,0,1-2,.59c-1.66,0-2.2-1.59-2.34-2.83a8.091,8.091,0,0,1,0-1.83,13,13,0,0,1,5.66-8.77,4.87,4.87,0,0,1,2-.68h.45a2.55,2.55,0,0,0,.73-.14,2.35,2.35,0,0,0,.85-1.2,18.11,18.11,0,0,1,7.48-10.06Z" transform="translate(-1.63 -17.17)" fill="url(#radial-gradient-23)"/>
        <path id="Path_41" data-name="Path 41" d="M168.48,47.31a6.79,6.79,0,0,1,3.07-1,3.42,3.42,0,0,1,1.17.16,2.79,2.79,0,0,1,1.32.94,2.38,2.38,0,0,0,1.52.85,1.94,1.94,0,0,0,.8-.06h.17a4.13,4.13,0,0,1,1.7-.47,1.66,1.66,0,0,1,1.48.73,2.43,2.43,0,0,0,1.58,1,2.88,2.88,0,0,0,.41,0,2.46,2.46,0,0,0,.59-.28,2.94,2.94,0,0,1,1.6-.61c.63,0,1,.5,1.14,1.46a5.41,5.41,0,0,1-.06,1.78,8.65,8.65,0,0,1-3.7,5.45L156.65,71.39c-.08,0-1,.57-1.07.59a4.29,4.29,0,0,1-2,.61c-1.64,0-2.12-1.63-2.23-2.82a7.88,7.88,0,0,1,.07-1.8A12.82,12.82,0,0,1,157,59.39a4.52,4.52,0,0,1,2-.67h.45a2.49,2.49,0,0,0,.73-.14,2.14,2.14,0,0,0,.87-1.19A17.935,17.935,0,0,1,168.48,47.31Z" transform="translate(-1.63 -17.17)" fill="url(#radial-gradient-24)"/>
        <path id="Path_42" data-name="Path 42" d="M168.55,47.42a6.73,6.73,0,0,1,3.06-1,3.11,3.11,0,0,1,1.16.18,2.71,2.71,0,0,1,1.3,1,2.18,2.18,0,0,0,1.51.84,1.7,1.7,0,0,0,.81-.1l.18-.06a4,4,0,0,1,1.69-.47,1.59,1.59,0,0,1,.59.08,1.56,1.56,0,0,1,.87.68,2.14,2.14,0,0,0,1.57,1,1.48,1.48,0,0,0,.42,0,1.88,1.88,0,0,0,.59-.28,3,3,0,0,1,1.59-.62c.6,0,.94.5,1,1.47a5.12,5.12,0,0,1-.1,1.72,8.55,8.55,0,0,1-3.62,5.27L156.63,71.25s-1,.58-1.06.6a4.26,4.26,0,0,1-2,.61c-1.62,0-2-1.65-2.12-2.81a7.56,7.56,0,0,1,.09-1.76,12.74,12.74,0,0,1,5.52-8.39,4.6,4.6,0,0,1,2-.67h.45a2.25,2.25,0,0,0,.73-.14,2.08,2.08,0,0,0,.89-1.17C162.34,53.33,165.29,49.3,168.55,47.42Z" transform="translate(-1.63 -17.17)" fill="url(#radial-gradient-25)"/>
        <path id="Path_43" data-name="Path 43" d="M168.61,47.53a6.59,6.59,0,0,1,3-1,3.13,3.13,0,0,1,1.17.19,2.77,2.77,0,0,1,1.27,1,2,2,0,0,0,1.5.84,1.86,1.86,0,0,0,.82-.13l.18-.08a4.13,4.13,0,0,1,1.69-.47,1.83,1.83,0,0,1,.59.09,1.57,1.57,0,0,1,.85.71,2.12,2.12,0,0,0,1.99.95,1.88,1.88,0,0,0,.59-.28,2.86,2.86,0,0,1,1.58-.63c.57,0,.88.5,1,1.46a5.48,5.48,0,0,1-.14,1.68A8.56,8.56,0,0,1,181.15,57L156.62,71.12l-1.05.6a4.35,4.35,0,0,1-2,.62c-1.6,0-2-1.69-2-2.8a8.641,8.641,0,0,1,.12-1.73,12.68,12.68,0,0,1,5.45-8.2,4.48,4.48,0,0,1,2-.66h.45a1.67,1.67,0,0,0,1.65-1.31C162.4,53.45,165.36,49.4,168.61,47.53Z" transform="translate(-1.63 -17.17)" fill="url(#radial-gradient-26)"/>
        <path id="Path_44" data-name="Path 44" d="M168.67,47.64a6.48,6.48,0,0,1,3.05-1,3,3,0,0,1,1.16.21,2.65,2.65,0,0,1,1.25,1.06,1.88,1.88,0,0,0,1.5.84,2,2,0,0,0,.83-.18l.18-.09a4,4,0,0,1,1.68-.47,1.59,1.59,0,0,1,.59.1,1.55,1.55,0,0,1,.83.74,1.88,1.88,0,0,0,1.56,1,2.09,2.09,0,0,0,.43,0,1.73,1.73,0,0,0,.58-.28,2.86,2.86,0,0,1,1.57-.65c.55,0,.84.5.87,1.47a5.47,5.47,0,0,1-.19,1.62,8.44,8.44,0,0,1-3.47,4.91L156.61,71l-1.05.6a4.23,4.23,0,0,1-2,.63c-1.58,0-1.88-1.71-1.91-2.79a8.29,8.29,0,0,1,.15-1.69,12.56,12.56,0,0,1,5.37-8,4.17,4.17,0,0,1,2-.65h.45a1.7,1.7,0,0,0,1.66-1.3C162.47,53.58,165.42,49.51,168.67,47.64Z" transform="translate(-1.63 -17.17)" fill="url(#radial-gradient-27)"/>
        <path id="Path_45" data-name="Path 45" d="M153.58,72.09c-1.56,0-1.8-1.74-1.8-2.78a12.28,12.28,0,0,1,5.48-9.49,4.22,4.22,0,0,1,2-.64h.46a1.75,1.75,0,0,0,1.68-1.29c1.15-4.21,4.11-8.3,7.35-10.18a6.35,6.35,0,0,1,3.05-1,2.63,2.63,0,0,1,2.38,1.32,1.73,1.73,0,0,0,1.49.84,1.78,1.78,0,0,0,.84-.22,4,4,0,0,1,1.86-.56,1.43,1.43,0,0,1,1.39.87,1.76,1.76,0,0,0,1.56.94,1.7,1.7,0,0,0,1-.33,2.77,2.77,0,0,1,1.56-.66c.52,0,.78.49.78,1.46a8.26,8.26,0,0,1-3.63,6.3L155.55,71.45a4.11,4.11,0,0,1-1.97.64Z" transform="translate(-1.63 -17.17)" fill="url(#radial-gradient-28)"/>
      </g>
    </g>
    <path id="Path_47" data-name="Path 47" d="M172.8,53.81a2.17,2.17,0,0,0-1.65-.54.44.44,0,0,0-.41.46.45.45,0,0,0,.47.41,1.29,1.29,0,0,1,1,.31,1.72,1.72,0,0,1,.43,1.27,6.81,6.81,0,0,1-3.28,5.15,2.35,2.35,0,0,1-2.22.32,1.59,1.59,0,0,1-.63-1.43,6.41,6.41,0,0,1,1.78-3.91.44.44,0,0,0,0-.62.43.43,0,0,0-.61,0,7.22,7.22,0,0,0-2,4.5,2.38,2.38,0,0,0,1.08,2.18,2.16,2.16,0,0,0,1.11.28,4,4,0,0,0,2-.6,7.64,7.64,0,0,0,3.73-5.9,2.53,2.53,0,0,0-.8-1.88Z" transform="translate(-1.63 -17.17)" fill="#57d3ca"/>
    <path id="Path_48" data-name="Path 48" d="M169.57,58.61c-.24.14-.43.06-.43-.18V53.61a.91.91,0,0,1,.43-.69c.25-.14.44-.06.44.19v4.81a.88.88,0,0,1-.44.69Z" transform="translate(-1.63 -17.17)" fill="#57d3ca"/>
    <path id="Path_49" data-name="Path 49" d="M199.83,25.17l-10.34,6c-2,1.17-3.67.48-3.67-1.55a7.62,7.62,0,0,1,3.67-5.79l10.34-6c2-1.17,3.67-.47,3.67,1.55a7.6,7.6,0,0,1-3.67,5.79Z" transform="translate(-1.63 -17.17)" fill="#fff"/>
    <path id="Path_50" data-name="Path 50" d="M150.18,28.1l-10.34,6c-2,1.17-3.67.48-3.67-1.55a7.6,7.6,0,0,1,3.67-5.79l10.34-6c2-1.17,3.67-.48,3.67,1.55a7.6,7.6,0,0,1-3.67,5.79Z" transform="translate(-1.63 -17.17)" fill="#fff"/>
    <path id="Path_51" data-name="Path 51" d="M180.34,88.85l-10.34,6c-2,1.17-3.67.48-3.67-1.55A7.63,7.63,0,0,1,170,87.48l10.34-6c2-1.17,3.67-.48,3.67,1.55a7.6,7.6,0,0,1-3.67,5.82Z" transform="translate(-1.63 -17.17)" fill="#fff"/>
    <path id="Path_52" data-name="Path 52" d="M143.78,91.75l-10.34,6c-2,1.17-3.67.48-3.67-1.55a7.62,7.62,0,0,1,3.67-5.79l10.34-6c2-1.17,3.67-.47,3.67,1.55A7.6,7.6,0,0,1,143.78,91.75Z" transform="translate(-1.63 -17.17)" fill="#fff"/>
  </g>
</svg>
