<svg xmlns="http://www.w3.org/2000/svg" xmlns:xlink="http://www.w3.org/1999/xlink" width="88.942" height="83.675" viewBox="0 0 88.942 83.675">
  <defs>
    <linearGradient id="linear-gradient" x1="-0.013" y1="-0.174" x2="0.785" y2="0.874" gradientUnits="objectBoundingBox">
      <stop offset="0"/>
      <stop offset="1" stop-color="#8ff5f0"/>
    </linearGradient>
    <linearGradient id="linear-gradient-2" x1="0.088" y1="0.217" x2="0.715" y2="0.937" gradientUnits="objectBoundingBox">
      <stop offset="0" stop-color="#0147b8"/>
      <stop offset="0.35" stop-color="#0249bc"/>
      <stop offset="0.74" stop-color="#0450ca"/>
      <stop offset="1" stop-color="#0656d7"/>
    </linearGradient>
    <linearGradient id="linear-gradient-3" x1="0.746" y1="-0.183" x2="0.303" y2="1.046" xlink:href="#linear-gradient"/>
    <linearGradient id="linear-gradient-4" x1="0.202" y1="-0.213" x2="0.696" y2="0.955" xlink:href="#linear-gradient"/>
    <linearGradient id="linear-gradient-5" x1="0.657" y1="-0.434" x2="0.415" y2="1.005" xlink:href="#linear-gradient"/>
    <radialGradient id="radial-gradient" cx="0.584" cy="0.221" r="0.612" gradientTransform="translate(-0.223) scale(1.446 1)" gradientUnits="objectBoundingBox">
      <stop offset="0" stop-color="#d9d9d5"/>
      <stop offset="1" stop-color="#fff"/>
    </radialGradient>
  </defs>
  <g id="_5" data-name="5" transform="translate(-18.819 -330.155)">
    <path id="Path_851" data-name="Path 851" d="M61.6,412.45h6.66l-4.42-5.12c-16,.66-24.8.91-29.91,4.38a8.11,8.11,0,0,0-2.72,3c-5.26,10.33,26.69,8,29.79,8C61.82,422.68,61.6,412.45,61.6,412.45Z" transform="translate(-1.63 -17.17)" fill="#003893" opacity="0.5"/>
    <path id="Path_852" data-name="Path 852" d="M78.66,406.83c-8.91-5.14-23.37-5.14-32.28,0s-8.92,13.5,0,18.64,23.37,5.15,32.28,0S87.58,412,78.66,406.83Zm-.25,18.49c-8.78,5.07-23,5.07-31.77,0s-8.78-13.27,0-18.34,23-5.06,31.77,0,8.77,13.28,0,18.34Z" transform="translate(-1.63 -17.17)" fill="url(#linear-gradient)"/>
    <path id="Path_853" data-name="Path 853" d="M76.32,368.87c-.79-.05-4.48-2.16-7.17-3.61a4.79,4.79,0,0,0-2.28-.6,3.18,3.18,0,0,0-2,.44,2.65,2.65,0,0,0-1,2.88,3.71,3.71,0,0,0,2.25,1.87c3.12,1.33,9.39,3.47,10.28,3.38Z" transform="translate(-1.63 -17.17)" fill="#0147b8"/>
    <path id="Path_854" data-name="Path 854" d="M68.2,409.32c-1-.42-2-.45-3-.85a4.2,4.2,0,0,0-2.95.28c-.52.15-1.25.24-1.24.92a1.58,1.58,0,0,0,.35,1,1.28,1.28,0,0,0,.72.43c.86.17,4.85,1.49,6.7,1.55C71.19,412.72,70.22,410.22,68.2,409.32Z" transform="translate(-1.63 -17.17)" fill="#3dc4bd"/>
    <path id="Path_855" data-name="Path 855" d="M68.19,409.26c-1.07-.45-3-1-3.53-1.77a4.5,4.5,0,0,1-.4-.79c-.22-.49-1.28-.43-1.7-.4a1.9,1.9,0,0,0-1.18.41c-.4.43-.22,1.05-.27,1.57s-.29,1.25.15,1.76a1.23,1.23,0,0,0,.72.43c.86.17,4.85,1.49,6.71,1.55C71.1,412.09,69.91,410,68.19,409.26Z" transform="translate(-1.63 -17.17)" fill="#171319"/>
    <path id="Path_856" data-name="Path 856" d="M59.19,416c-.74.38-.81,1.78-.66,2.61.21,1.23,0,3.77.87,5.09a4.33,4.33,0,0,0,3.42,1.54,1.25,1.25,0,0,0,.74-.13,1,1,0,0,0,.37-.67,5.09,5.09,0,0,0-.42-3c-.57-1.48-1-3.21-1.42-4.72C61.78,415.64,60.23,415.47,59.19,416Z" transform="translate(-1.63 -17.17)" fill="#3dc4bd"/>
    <path id="Path_857" data-name="Path 857" d="M59.56,415.27a2.34,2.34,0,0,0-1,2.41,36.682,36.682,0,0,1,.48,3.68,3.58,3.58,0,0,0,2.87,3.07,6.911,6.911,0,0,0,.9.11,1.25,1.25,0,0,0,.74-.13,1,1,0,0,0,.37-.67,6,6,0,0,0-.68-3.19c-.57-1.48-.74-3-1.16-4.52C61.77,414.91,60.62,414.68,59.56,415.27Z" transform="translate(-1.63 -17.17)" fill="#171319"/>
    <path id="Path_858" data-name="Path 858" d="M61.31,398.36c-.23,1.65-.91,1.86-1,3.52s.41,3,.41,5.76c0,1.67,4.63,1.67,4.63,0a46.291,46.291,0,0,1,.82-7.1c.27-.9.52-1.2.82-2.09a48.111,48.111,0,0,0,1.64-8.05,5.18,5.18,0,0,0-2.72-.28c-1.07.08-4.27.12-4.49,1.05C61.24,391.79,61.41,397.62,61.31,398.36Z" transform="translate(-1.63 -17.17)" fill="#12126b"/>
    <path id="Path_859" data-name="Path 859" d="M58.55,401.81c-.23,2.45-.91,2.74-1,5.21s.63,5.48.63,9.56c0,1.31,4.42,1.26,4.42-.05A103.256,103.256,0,0,1,63.49,406c.28-1.32.59-2.63.89-4a65.358,65.358,0,0,0,1.3-10.41A3.67,3.67,0,0,0,63,391.2c-1.07.12-4.27.18-4.49,1.56C58.32,393.73,58.66,400.72,58.55,401.81Z" transform="translate(-1.63 -17.17)" fill="#12126b"/>
    <path id="Path_860" data-name="Path 860" d="M67.84,365.26a1.94,1.94,0,0,0-2.13-.35c-5,2.15-7.56,5.46-7.92,6.84-.65,2.53,1.19,6.27,1,11.64,0,0-.65,5-1.18,8.4.64,2.11,7.28,2.55,8.82,1.53l.7-3.17c.18.61.8,2.39.8,2.39A4,4,0,0,0,69.28,390c-.11-3.3-.41-7.47-.35-8.61C68.94,380.48,70,367.37,67.84,365.26Z" transform="translate(-1.63 -17.17)" fill="#0147b8"/>
    <path id="Path_861" data-name="Path 861" d="M56.78,376.35c.18,1.76,1.13,7.3,1.56,8.07.86,1.56,7.47,4.47,8,4.68,1.24.45,2.86-2,1.81-2.82-.49-.36-5.58-3.18-6.2-3.94s-.28-4.69-.43-8.2a3.72,3.72,0,0,0-.87-2.32,2.07,2.07,0,0,0-2.44-.71C57.39,371.48,56.48,373.57,56.78,376.35Z" transform="translate(-1.63 -17.17)" fill="url(#linear-gradient-2)"/>
    <path id="Path_862" data-name="Path 862" d="M78.66,392.53A28.73,28.73,0,0,0,70,389.4h-.71v.11a28.84,28.84,0,0,1,9.15,3.2c8.77,5.06,8.77,13.28,0,18.34s-23,5.07-31.77,0-8.78-13.28,0-18.34A30,30,0,0,1,58,389.14v-.22a30.52,30.52,0,0,0-11.7,3.61c-8.92,5.15-8.92,13.49,0,18.64s23.37,5.15,32.28,0S87.58,397.68,78.66,392.53Z" transform="translate(-1.63 -17.17)" fill="url(#linear-gradient-3)"/>
    <path id="Path_863" data-name="Path 863" d="M78.66,378.23a29,29,0,0,0-9.48-3.29,1.62,1.62,0,0,0,0,.22,28.741,28.741,0,0,1,9.24,3.22c8.77,5.06,8.77,13.27,0,18.34s-23,5.06-31.77,0-8.78-13.28,0-18.34A28.94,28.94,0,0,1,56.73,375a1.7,1.7,0,0,0,0-.22,29.64,29.64,0,0,0-10.36,3.42c-8.92,5.14-8.92,13.49,0,18.64s23.37,5.14,32.28,0S87.58,383.37,78.66,378.23Z" transform="translate(-1.63 -17.17)" fill="url(#linear-gradient-4)"/>
    <path id="Path_864" data-name="Path 864" d="M78.66,363.92c-8.91-5.14-23.37-5.14-32.28,0s-8.92,13.5,0,18.64,23.37,5.15,32.28,0S87.58,369.07,78.66,363.92Zm-.25,18.49c-8.78,5.07-23,5.07-31.77,0s-8.78-13.27,0-18.34,23-5.06,31.77,0S87.18,377.35,78.41,382.41Z" transform="translate(-1.63 -17.17)" fill="url(#linear-gradient-5)"/>
    <path id="Path_865" data-name="Path 865" d="M82.57,366.17c-2,1.14-5.35,2.76-6.25,2.7s-1.32,3.74.12,4.36c.89-.09,6.4-3.16,7.77-3.86C85.31,368.81,83.44,365.74,82.57,366.17Z" transform="translate(-1.63 -17.17)" fill="#0147b8"/>
    <path id="Path_866" data-name="Path 866" d="M83.05,366.23l-.32.16c-.67.38.61,3.09,1.46,2.62l.22-.11C85.27,368.46,83.73,365.89,83.05,366.23Z" transform="translate(-1.63 -17.17)" fill="#fff"/>
    <path id="Path_867" data-name="Path 867" d="M87.08,367.68a2.51,2.51,0,0,0,1-.74,4,4,0,0,0,.79-1.32,2.849,2.849,0,0,0,0-.29,3.993,3.993,0,0,1,.11-.47c0-.36-.27-.75-.52-.6a9.358,9.358,0,0,0-.89.93,1.84,1.84,0,0,1-.49.38,3.46,3.46,0,0,1-1.18.49,1,1,0,0,1-.79-.6.48.48,0,0,1,0-.24.93.93,0,0,0-.66-1.13.22.22,0,0,0-.14,0,.21.21,0,0,0-.13.2,1.24,1.24,0,0,0,.11.42.79.79,0,0,1-.08.48,2.82,2.82,0,0,1-.77,1.09.51.51,0,0,0-.23.29,1.47,1.47,0,0,0,.27,1.23c.42.68.73.76,1.06.62S86,368,87.08,367.68Z" transform="translate(-1.63 -17.17)" fill="#fbbd9e"/>
    <path id="Path_868" data-name="Path 868" d="M67.94,369.14c-.06-.28-.45-.51-.45-.51a1.7,1.7,0,0,0,0-.71,3.62,3.62,0,0,0-.89-1.27c-.82-.71-2.14-1.58-3.45-.9a11.261,11.261,0,0,0-1.92,1.52c-1.32,1.45-.4,2.58,1.24,4.18a2.719,2.719,0,0,0,.91.16s-.14.58,0,.76a20.23,20.23,0,0,1,4.48,5.84C68,377.17,68.64,372.38,67.94,369.14Z" transform="translate(-1.63 -17.17)" fill="#003893"/>
    <path id="Path_869" data-name="Path 869" d="M67.34,369.64a4.7,4.7,0,0,0-1.61-2.23c-.26-.23-.52-.49-.77-.76a6.539,6.539,0,0,0-1.55.65c-.52.34-1,.75-1.48,1.11.07.13.27.8.37.94a28.52,28.52,0,0,1,4.43,5.94l1.16-.47a17.71,17.71,0,0,0-.55-5.18Z" transform="translate(-1.63 -17.17)" fill="url(#radial-gradient)"/>
    <path id="Path_870" data-name="Path 870" d="M66.26,357.65,65,353.34l-.48.21.57,4.57,1.03,1.78Z" fill="#003893"/>
    <path id="Path_871" data-name="Path 871" d="M65.82,364.72l-4.41-.13a6.3,6.3,0,0,1,.38,2.92c-.35,1.76,2.9,3,4.46,2.13a.66.66,0,0,0,.36-.64,36.142,36.142,0,0,0-.79-4.28Z" transform="translate(-1.63 -17.17)" fill="#f2a883"/>
    <path id="Path_872" data-name="Path 872" d="M66.26,369.49c-.33.21-.77.25-.88.38s.3,1.18,1,1.08S67.06,369,66.26,369.49Z" transform="translate(-1.63 -17.17)" fill="#003893"/>
    <path id="Path_873" data-name="Path 873" d="M66.16,369.55l1.66.17s-.36-.6-1.38-2a1.22,1.22,0,0,1-.28,1.83Z" transform="translate(-1.63 -17.17)" fill="#fff"/>
    <path id="Path_874" data-name="Path 874" d="M67.31,362.38v-.5a6,6,0,0,0-4.58,1.43,6.461,6.461,0,0,1-1.53,1.19c.15.28.32.56.48.83a9.1,9.1,0,0,0,1.76,2.53,8.079,8.079,0,0,0,2.19.95c.81.29,1.68.06,1.78-1a14.579,14.579,0,0,0,.14-2.12,5.8,5.8,0,0,1,.06-1.56c.11-.47-.13-.7-.21-1.13A5.818,5.818,0,0,1,67.31,362.38Z" transform="translate(-1.63 -17.17)" fill="#fcbe9f"/>
    <path id="Path_875" data-name="Path 875" d="M65.9,366.87a1.52,1.52,0,0,1-2-.3,3.34,3.34,0,0,1-.6-1.18c0,.15-.38-.18-.38-.18s-.94.59-1,.62a6.55,6.55,0,0,0,1.47,2,8.08,8.08,0,0,0,2.19.95c.81.29,1.68.06,1.78-1,0-.54.11-1,.13-1.43a1.26,1.26,0,0,0-.63,0A4,4,0,0,0,65.9,366.87Z" transform="translate(-1.63 -17.17)" fill="#ac8979"/>
    <path id="Path_876" data-name="Path 876" d="M60.9,364.15c.13.29.3.2.54.25a1.28,1.28,0,0,1,.68.44,8.461,8.461,0,0,1,.52,1c.21.35.34.33.53.24.36-.16.18-.78.16-1.08-.14-2.16,2.19-2.76,4-2.69a2,2,0,0,0-.18-1.37c-1.42-2.66-5.1-2.74-6.38-.55a3.39,3.39,0,0,0-.35,2.19,5.521,5.521,0,0,0,.29,1.13Q60.795,363.934,60.9,364.15Z" transform="translate(-1.63 -17.17)" fill="#12126b"/>
    <path id="Path_877" data-name="Path 877" d="M60.71,364.58c-.15.77,1,1.86,1.71,1.9.48,0,0-1.12-.3-1.64C61.92,364.51,60.85,364,60.71,364.58Z" transform="translate(-1.63 -17.17)" fill="#fcbe9f"/>
    <path id="Path_878" data-name="Path 878" d="M61.85,367.09l-.17.3a1.08,1.08,0,0,0,0,1.34,19,19,0,0,0,3,2.88l1.18-1.94C63.06,369.7,61.93,368,61.85,367.09Z" transform="translate(-1.63 -17.17)" fill="#fff"/>
    <path id="Path_879" data-name="Path 879" d="M68.44,386.58l-.31-.17c-.69-.34-2.21,2.25-1.34,2.68l.21.12C67.85,389.68,69.11,387,68.44,386.58Z" transform="translate(-1.63 -17.17)" fill="#fff"/>
    <g id="Group_123" data-name="Group 123">
      <path id="Path_880" data-name="Path 880" d="M69.41,388.9l2.38-3.83a1.259,1.259,0,0,1,.2-.21l.13-.09,7.37-4.25c.08,0,.13-.06.14,0l.09.11h-.13l-7.38,4.26-.13.09a1.251,1.251,0,0,0-.2.2L69.5,389v.07l-.09-.11S69.39,388.94,69.41,388.9Z" transform="translate(-1.63 -17.17)" fill="#251e28"/>
      <path id="Path_881" data-name="Path 881" d="M79.58,380.62l-7.37,4.26a1.179,1.179,0,0,0-.33.29L69.5,389c-.06.09,0,.11.12,0L77,384.79a1.21,1.21,0,0,0,.33-.3l2.38-3.83C79.76,380.57,79.71,380.55,79.58,380.62Z" transform="translate(-1.63 -17.17)" fill="#171319"/>
    </g>
    <path id="Path_882" data-name="Path 882" d="M73.24,386.35a.44.44,0,0,0,0-.25c-.09-.38-.74.08-.91.17l-.67.32a2.231,2.231,0,0,1-.58.24c-.4.05-.4-.19-.19-.35l.68-1.09h-.08c-.35.16-.94.2-1.58.51s-.83.87-1.46.85-2,2.21-1,2.4a16.378,16.378,0,0,0,3.55.19,4.842,4.842,0,0,0,.8-.3,1.23,1.23,0,0,0,.59-.66,3.651,3.651,0,0,0,.18-.41.464.464,0,0,1,.09-.33,1.257,1.257,0,0,0,.15-.38l.41-.86a.3.3,0,0,1,.02-.05Z" transform="translate(-1.63 -17.17)" fill="#fabc9d"/>
    <path id="Path_883" data-name="Path 883" d="M44.51,370.77c-.3-1.61-1-2.85-2.47-2.29a4.479,4.479,0,0,0-.79.34l-1.09.63a7.806,7.806,0,0,0-.79.57c-1.44,1.11-2.17,3.19-2.47,5.14Z" transform="translate(-1.63 -17.17)" fill="#0656d7"/>
    <path id="Path_884" data-name="Path 884" d="M39.26,370.48c0,.42.6.42,1.34,0s1.34-1.11,1.34-1.53v-.45a10.2,10.2,0,0,0-2.65,1.61A2.051,2.051,0,0,0,39.26,370.48Z" transform="translate(-1.63 -17.17)" fill="#724733"/>
    <path id="Path_885" data-name="Path 885" d="M39.58,368.65v1.5c0,.66,2-.38,2-1v-1.83Z" transform="translate(-1.63 -17.17)" fill="#603a2b"/>
    <path id="Path_886" data-name="Path 886" d="M42.23,366.44c0-.09-.06-.12-.12-.1,0-1-.68-1.35-1.51-.87A3.27,3.27,0,0,0,39.09,368a.52.52,0,0,0-.16.3.63.63,0,0,0,.43.7.86.86,0,0,0,1.24.34,3.51,3.51,0,0,0,1.26-1.83A2,2,0,0,0,42.23,366.44Z" transform="translate(-1.63 -17.17)" fill="#724733"/>
    <path id="Path_887" data-name="Path 887" d="M41.86,366.46a.46.46,0,0,1,.25-.12v-.28c.1-1.44-.18-2-1.59-1.16-1.83,1.06-1.66,1.93-1.61,2.82a3.249,3.249,0,0,0,.06.45,2.478,2.478,0,0,1,.24-.18,3.29,3.29,0,0,1,0-.63c0-.43.68-.51,1.31-.89s1.18-1,1.25-.67a3.47,3.47,0,0,1,.09.66Z" transform="translate(-1.63 -17.17)" fill="#12126b"/>
    <g id="Group_124" data-name="Group 124">
      <path id="Path_888" data-name="Path 888" d="M36,375.84h-.09a.16.16,0,0,1-.08-.14V365.25a.18.18,0,0,1,.08-.15l9.4-5.43a.17.17,0,0,1,.17,0,.16.16,0,0,1,.09.15v10.42a.16.16,0,0,1-.09.15l-9.4,5.42A.11.11,0,0,1,36,375.84Zm.17-10.49v10l9.06-5.23v-10Z" transform="translate(-1.63 -17.17)" fill="#8ff5f0"/>
    </g>
    <path id="Path_889" data-name="Path 889" d="M85.2,359.12a4.741,4.741,0,0,0-.23-1.21,1.53,1.53,0,0,0-1.24-1,.47.47,0,0,0-.27,0s-.75.31-1.61.73a.9.9,0,0,0-.24.12l-.23.12L79.77,359a1.731,1.731,0,0,0-.27.3,7.13,7.13,0,0,0-1.24,2.48,8,8,0,0,0-.23,1.47Z" transform="translate(-1.63 -17.17)" fill="#0656d7"/>
    <path id="Path_890" data-name="Path 890" d="M83.13,356.44a4.531,4.531,0,0,1,0-.53.48.48,0,0,0-.19-.39.78.78,0,0,0-.49,0,7.919,7.919,0,0,0-2.08,1.1A1.738,1.738,0,0,0,80,357a.65.65,0,0,0-.18.41l.38.29a1.64,1.64,0,0,0,0,1.4.38.38,0,0,0,.11.11.669.669,0,0,0,.54-.1,3.067,3.067,0,0,0,.57-.29,14.377,14.377,0,0,0,1.13-1c.13-.11.26-.2.38-.31a1.281,1.281,0,0,0,.29-.41A1.25,1.25,0,0,0,83.13,356.44Z" transform="translate(-1.63 -17.17)" fill="#af8468"/>
    <path id="Path_891" data-name="Path 891" d="M80.32,359.11c0,.39.57.39,1.27,0s1.26-1,1.26-1.44v-.42a11.461,11.461,0,0,0-2.5,1.52A1.719,1.719,0,0,0,80.32,359.11Z" transform="translate(-1.63 -17.17)" fill="#ffc7ae"/>
    <path id="Path_892" data-name="Path 892" d="M80.63,357.86v.88c0,.62,1.92-.45,1.92-1.08v-.91Z" transform="translate(-1.63 -17.17)" fill="#f2a883"/>
    <path id="Path_893" data-name="Path 893" d="M83.13,355.24a.092.092,0,0,0-.12-.1c0-.93-.64-1.27-1.43-.82a3.13,3.13,0,0,0-1.42,2.43A.51.51,0,0,0,80,357a.57.57,0,0,0,.41.66.8.8,0,0,0,1.16.33,3.28,3.28,0,0,0,1.19-1.74A1.94,1.94,0,0,0,83.13,355.24Z" transform="translate(-1.63 -17.17)" fill="#ffc7ae"/>
    <path id="Path_894" data-name="Path 894" d="M82.85,358.27c0,.27.94-.85,1-1.3s-.29-3.07-1-3.72a.688.688,0,0,0-.76,0,8.787,8.787,0,0,0-.79.46,3.241,3.241,0,0,0-.7.6c-1.22,1.46-.79,3.14-1.16,5.16-.08.45.88.56,1,.34V357.3c0-1.81.86-1.86,1.39-2.26.25-.19.61-.39.71-.17a13.5,13.5,0,0,1,.31,3.4Z" transform="translate(-1.63 -17.17)" fill="#af8468"/>
    <g id="Group_125" data-name="Group 125">
      <path id="Path_895" data-name="Path 895" d="M77,364a.11.11,0,0,1-.08,0,.16.16,0,0,1-.09-.15V353.42a.15.15,0,0,1,.09-.14l9.4-5.43a.17.17,0,0,1,.17,0,.16.16,0,0,1,.08.15v10.42a.16.16,0,0,1-.08.14L77.11,364a.15.15,0,0,1-.11,0Zm.17-10.49v10l9.06-5.23v-10Z" transform="translate(-1.63 -17.17)" fill="#8ff5f0"/>
    </g>
    <path id="Path_896" data-name="Path 896" d="M88.46,406c0-.12.06-.28,0-.36s-.19,0-.29.09c-.62.44-.24.19-.75.4-.32.13-1.73.81-1.78,1.16a.42.42,0,0,0,0,.2c.18.6-.25,1.12-.09,2,.07.39,1.27-.36,1.7-.66.17-.11.34-.27.5-.38a3.565,3.565,0,0,0,.46-.26C89.08,407.5,88.45,406.69,88.46,406Z" transform="translate(-1.63 -17.17)" fill="#af8468"/>
    <path id="Path_897" data-name="Path 897" d="M90.82,409.21a4.629,4.629,0,0,0-.23-1.2,1.57,1.57,0,0,0-.91-1,1.14,1.14,0,0,0-.87.08,20.472,20.472,0,0,0-2.88,1.64,4.59,4.59,0,0,0-1.4,1.53,6.781,6.781,0,0,0-.65,1.58,8,8,0,0,0-.23,1.48Z" transform="translate(-1.63 -17.17)" fill="#0656d7"/>
    <path id="Path_898" data-name="Path 898" d="M85.86,409.18c0,.39.57.39,1.26,0s1.27-1.05,1.27-1.44v-.37a10.811,10.811,0,0,0-2.51,1.47A1.432,1.432,0,0,0,85.86,409.18Z" transform="translate(-1.63 -17.17)" fill="#ffc7ae"/>
    <path id="Path_899" data-name="Path 899" d="M86.19,407.94v.87c0,.61,1.88-.44,1.88-1.06v-1.31Z" transform="translate(-1.63 -17.17)" fill="#f2a883"/>
    <path id="Path_900" data-name="Path 900" d="M88.54,405.43a.09.09,0,0,0-.12-.09c0-.91-.62-1.25-1.4-.8a3,3,0,0,0-1.39,2.37.58.58,0,0,0-.15.29.57.57,0,0,0,.4.64.79.79,0,0,0,1.14.32,3.24,3.24,0,0,0,1.17-1.7,1.89,1.89,0,0,0,.35-1.03Z" transform="translate(-1.63 -17.17)" fill="#ffc7ae"/>
    <path id="Path_901" data-name="Path 901" d="M88.6,404a1.15,1.15,0,0,0-.33-.49c-.46-.33-1.24.19-1.77.62a2.54,2.54,0,0,0-.86,1.07,2.41,2.41,0,0,0-.21,1.1,3.11,3.11,0,0,0,.1.78.275.275,0,0,1,.11-.08c.05-.01.11.08.14.14s0,.31.11.24,0-.39,0-.59a1.53,1.53,0,0,1,.24-.65,1.64,1.64,0,0,1,.93-.94.72.72,0,0,1,.9-.12.48.48,0,0,1,.23.39c0,.21-.11.65,0,.61s.06-.24.1-.36a.89.89,0,0,1,.15-.31.11.11,0,0,1,.1,0A3.13,3.13,0,0,0,88.6,404Z" transform="translate(-1.63 -17.17)" fill="#af8468"/>
    <g id="Group_126" data-name="Group 126">
      <path id="Path_902" data-name="Path 902" d="M82.62,414.12a.11.11,0,0,1-.08,0,.17.17,0,0,1-.09-.14V403.53a.17.17,0,0,1,.09-.15l9.4-5.43a.17.17,0,0,1,.17,0,.19.19,0,0,1,.09.15v10.42a.19.19,0,0,1-.09.15l-9.4,5.42a.16.16,0,0,1-.09.03Zm.17-10.49v10l9.06-5.23v-10Z" transform="translate(-1.63 -17.17)" fill="#8ff5f0"/>
    </g>
    <path id="Path_903" data-name="Path 903" d="M47.57,413.83l3.26-1.9c0-1.69-.38-3-1.6-2.65a11.7,11.7,0,0,0-1.66.73h-.05a17.492,17.492,0,0,0-1.67,1.19s-1.44,1.2-1.6,4.5l3.27-1.86h.05Z" transform="translate(-1.63 -17.17)" fill="#0656d7"/>
    <path id="Path_904" data-name="Path 904" d="M46.18,411.34c0,.42.59.41,1.33,0s1.37-1.13,1.34-1.53v-.39A11.872,11.872,0,0,0,46.19,411,3.126,3.126,0,0,0,46.18,411.34Z" transform="translate(-1.63 -17.17)" fill="#ffc7ae"/>
    <path id="Path_905" data-name="Path 905" d="M46.53,410v1c0,.64,2-.47,2-1.13v-.94Z" transform="translate(-1.63 -17.17)" fill="#f2a883"/>
    <path id="Path_906" data-name="Path 906" d="M49.11,407.32c0-.09-.06-.12-.12-.1,0-1-.66-1.32-1.47-.85A3.22,3.22,0,0,0,46,408.88a.57.57,0,0,0-.15.3.6.6,0,0,0,.42.68.84.84,0,0,0,1.21.34,3.52,3.52,0,0,0,1.23-1.8A2,2,0,0,0,49.11,407.32Z" transform="translate(-1.63 -17.17)" fill="#ffc7ae"/>
    <path id="Path_907" data-name="Path 907" d="M48.72,407.33a1.21,1.21,0,0,0,0,.48c.07-.31.3-.5.37-.78a3.35,3.35,0,0,0,.07-1.18c-.06-.26-.29-.6-.63-.55a1.44,1.44,0,0,0-.93.44C46,406,45.17,408.28,46,409a.59.59,0,0,1,.44.3,1.33,1.33,0,0,1,.11-1.31c0-.05.35-.2.36-.23l-.11.33c.21-.26,1.51-1.83,1.9-1.35a.75.75,0,0,1,.02.59Z" transform="translate(-1.63 -17.17)" fill="#12126b"/>
    <g id="Group_127" data-name="Group 127">
      <path id="Path_908" data-name="Path 908" d="M42.94,416.64h-.08a.16.16,0,0,1-.09-.15V406.05a.16.16,0,0,1,.09-.15l9.4-5.42a.17.17,0,0,1,.17,0,.16.16,0,0,1,.08.14V411a.18.18,0,0,1-.08.15L43,416.62Zm.17-10.49v10l9.06-5.23v-10Z" transform="translate(-1.63 -17.17)" fill="#8ff5f0"/>
    </g>
    <path id="Path_909" data-name="Path 909" d="M100.08,379.66c-.33-.43-1-.4-1.93.15l-.67.38v1.6L97,380.5l-.67.39A4.38,4.38,0,0,0,94.34,383a7.31,7.31,0,0,0-.47,2.7l3.61-2.08.25-.14.35-.2,2.48-1.44A4.06,4.06,0,0,0,100.08,379.66Z" transform="translate(-1.63 -17.17)" fill="#0656d7"/>
    <path id="Path_910" data-name="Path 910" d="M95.88,381.15c0,1.11.64,1.49,1.48,1.24.55-.43,1.51-1.92,1.22-2.79a18.562,18.562,0,0,0-2.7,1.55Z" transform="translate(-1.63 -17.17)" fill="#ffc7ae"/>
    <path id="Path_911" data-name="Path 911" d="M98.53,374.92c.16.53-.33,1.42-1.09,2s-1.51.59-1.67.06.33-1.42,1.09-2S98.37,374.39,98.53,374.92Z" transform="translate(-1.63 -17.17)" fill="#ffe9b3"/>
    <path id="Path_912" data-name="Path 912" d="M96.34,380.19v.87c0,.61,1.88-.44,1.88-1.06v-1.31Z" transform="translate(-1.63 -17.17)" fill="#f2a883"/>
    <path id="Path_913" data-name="Path 913" d="M98.69,377.68a.085.085,0,0,0-.11-.09c0-.91-.63-1.25-1.4-.8a3,3,0,0,0-1.4,2.37.57.57,0,0,0,.25.93.8.8,0,0,0,1.15.32,3.23,3.23,0,0,0,1.16-1.7,1.89,1.89,0,0,0,.35-1.03Z" transform="translate(-1.63 -17.17)" fill="#ffc7ae"/>
    <path id="Path_914" data-name="Path 914" d="M95.73,379.24a.27.27,0,0,1,.16-.06c.08,0,.09.08.11.15s0,.33.07.26,0-.42.06-.63a2,2,0,0,1,.31-.69,2,2,0,0,0,.39-1.22,1.23,1.23,0,0,0,.11.34c.1.19.23.16.4.21.74.18.78.65.9,1.11a2.49,2.49,0,0,1,.26-1,.26.26,0,0,1,.19-.06C99.24,374,95.09,376.28,95.73,379.24Z" transform="translate(-1.63 -17.17)" fill="#ffe9b3"/>
    <g id="Group_128" data-name="Group 128">
      <path id="Path_915" data-name="Path 915" d="M92.86,386.43h-.09a.18.18,0,0,1-.08-.15V375.84a.18.18,0,0,1,.08-.15l9.4-5.42a.17.17,0,0,1,.17,0,.15.15,0,0,1,.09.14v10.42a.16.16,0,0,1-.09.15l-9.4,5.43ZM93,375.94v10l9.06-5.22v-10Z" transform="translate(-1.63 -17.17)" fill="#8ff5f0"/>
    </g>
    <path id="Path_916" data-name="Path 916" d="M33.51,392.88c0-.21-.14-.3-.37-.24l-1.34.41a11.531,11.531,0,0,0-3.59,2.11l-1.37,1.21a1.26,1.26,0,0,0-.46.87l-.05,2.58,7.24-4.19Z" transform="translate(-1.63 -17.17)" fill="#0656d7"/>
    <path id="Path_917" data-name="Path 917" d="M28.48,395.31c0,.41.6.41,1.34,0s1.34-1.11,1.34-1.53v-.45a12.359,12.359,0,0,0-2.65,1.61A1.205,1.205,0,0,0,28.48,395.31Z" transform="translate(-1.63 -17.17)" fill="#fbbd9e"/>
    <path id="Path_918" data-name="Path 918" d="M28.8,393.42v1.5c0,.66,2-.38,2-1.05V392Z" transform="translate(-1.63 -17.17)" fill="#f2a883"/>
    <path id="Path_919" data-name="Path 919" d="M31.56,391.11c0-.1-.06-.13-.13-.11h0c0-1.2-.18-2.08-1.6-1.27a3.17,3.17,0,0,0-1.6,3.12.69.69,0,0,0-.16.32.66.66,0,0,0,.45.74.91.91,0,0,0,1.31.37,3.76,3.76,0,0,0,1.34-2,2.12,2.12,0,0,0,.39-1.17Z" transform="translate(-1.63 -17.17)" fill="#ffc7ae"/>
    <path id="Path_920" data-name="Path 920" d="M30.33,392.32c-.14.08-.26,0-.26-.1v-.3a.53.53,0,0,0-.39.23v.29a.52.52,0,0,1-.25.4l-.64.37c-.14.08-.25,0-.25-.11v-.35a.37.37,0,0,1,.16-.27l.81-.46h.17a.7.7,0,0,1,.39-.19.37.37,0,0,1,.17-.26l.81-.47a.1.1,0,0,1,.17.07v.36A.52.52,0,0,1,31,392Zm-.09-.65a.2.2,0,0,0-.09.15v.35c0,.1.08.14.18.08l.64-.37a.4.4,0,0,0,.18-.28v-.36c0-.05,0-.07-.1,0Zm-1.54.89a.19.19,0,0,0-.09.15v.35c0,.1.08.13.18.08l.64-.37a.39.39,0,0,0,.18-.28v-.36c0-.05,0-.07-.1,0Z" transform="translate(-1.63 -17.17)" fill="#12126b"/>
    <path id="Path_921" data-name="Path 921" d="M29.55,374.07l.01.18.24-.42.01-.13Z" fill="#12126b"/>
    <path id="Path_922" data-name="Path 922" d="M26.91,375.64l.01.18-.32-.14-.01-.1Z" fill="#12126b"/>
    <g id="Group_129" data-name="Group 129">
      <path id="Path_923" data-name="Path 923" d="M25.25,400.61a.127.127,0,0,1-.17-.14V390a.16.16,0,0,1,.08-.15l9.4-5.43a.17.17,0,0,1,.17,0,.16.16,0,0,1,.09.15V395a.16.16,0,0,1-.09.15l-9.4,5.42A.11.11,0,0,1,25.25,400.61Zm.17-10.5v10l9.06-5.23v-10Z" transform="translate(-1.63 -17.17)" fill="#8ff5f0"/>
    </g>
    <path id="Path_924" data-name="Path 924" d="M85.09,390.39h-.06l-.27-.16a.1.1,0,0,1,0-.14.09.09,0,0,1,.14,0l.28.16a.1.1,0,0,1,0,.14.11.11,0,0,1-.09,0Z" transform="translate(-1.63 -17.17)" fill="#8ff5f0"/>
    <path id="Path_925" data-name="Path 925" d="M99.64,398.79h-.06l-.56-.32a.12.12,0,0,1,0-.15.13.13,0,0,1,.15,0l.56.33a.1.1,0,0,1,0,.14.11.11,0,0,1-.09,0Zm-1.12-.65h-.06l-.55-.33a.09.09,0,0,1,0-.14.1.1,0,0,1,.14,0l.56.32a.11.11,0,0,1,0,.15.12.12,0,0,1-.09,0Zm-1.12-.65h-.05l-.56-.32a.1.1,0,1,1,.14-.15l.56.32a.11.11,0,0,1,0,.15.09.09,0,0,1-.09,0Zm-1.12-.64h0l-.56-.32a.11.11,0,0,1,0-.15.09.09,0,0,1,.14,0l.56.32a.1.1,0,0,1-.14.15Zm-1.12-.65h0l-.56-.32a.11.11,0,0,1,0-.15.1.1,0,0,1,.14,0l.56.32a.11.11,0,0,1,0,.2ZM94,395.56h-.05l-.56-.32a.106.106,0,0,1,.15-.15l.55.33a.09.09,0,0,1,0,.14.1.1,0,0,1-.09,0Zm-1.12-.65h0l-.56-.33a.1.1,0,0,1,0-.14.11.11,0,0,1,.15,0l.56.32a.093.093,0,1,1-.11.15Zm-1.12-.65h0l-.56-.32a.11.11,0,0,1,.11-.19l.56.32a.11.11,0,0,1,0,.15.12.12,0,0,1-.07.04Zm-1.12-.64h-.05l-.56-.32a.11.11,0,0,1,0-.15.12.12,0,0,1,.15,0l.56.33a.1.1,0,0,1,0,.14.11.11,0,0,1-.06,0ZM89.56,393h0l-.56-.33a.1.1,0,0,1,0-.14.11.11,0,0,1,.15,0l.56.32a.11.11,0,0,1,0,.15.12.12,0,0,1-.15,0Zm-1.11-.65h-.06l-.56-.32a.11.11,0,0,1,.11-.19l.56.33a.081.081,0,0,1-.05.15Zm-1.12-.64h-.06l-.56-.33a.1.1,0,1,1,.15-.14l.56.32a.11.11,0,0,1,0,.15.12.12,0,0,1-.09-.03ZM86.21,391h-.06l-.56-.32a.106.106,0,0,1,.15-.15l.56.32a.11.11,0,0,1,0,.15A.12.12,0,0,1,86.21,391Z" transform="translate(-1.63 -17.17)" fill="#8ff5f0"/>
    <path id="Path_926" data-name="Path 926" d="M100.48,399.27h-.06l-.28-.16a.12.12,0,0,1,0-.15.11.11,0,0,1,.15,0l.23.13.22-.13a.11.11,0,0,1,.15,0,.12.12,0,0,1,0,.15l-.28.16Z" transform="translate(-1.63 -17.17)" fill="#8ff5f0"/>
    <path id="Path_927" data-name="Path 927" d="M101.31,398.79a.12.12,0,0,1-.1-.05.11.11,0,0,1,0-.15l.55-.32a.11.11,0,0,1,.11.19l-.55.32Zm1.1-.64a.087.087,0,1,1-.09-.15l.55-.32a.106.106,0,0,1,.15.15l-.56.32Zm1.11-.64a.12.12,0,0,1-.1-.19L104,397a.11.11,0,0,1,.15,0,.1.1,0,0,1,0,.14l-.55.32Zm1.1-.63a.132.132,0,0,1-.09-.2l.55-.32a.1.1,0,1,1,.15.14l-.56.32Zm1.11-.64a.12.12,0,0,1-.1-.05.11.11,0,0,1,0-.15l.55-.32a.106.106,0,0,1,.15.15l-.55.32Zm1.1-.64a.125.125,0,0,1-.09-.2l.55-.32a.11.11,0,0,1,.15,0,.12.12,0,0,1,0,.15l-.56.32Zm1.11-.64a.12.12,0,0,1-.1,0,.11.11,0,0,1,0-.15l.55-.32a.12.12,0,0,1,.15,0,.11.11,0,0,1,0,.15L108,395Z" transform="translate(-1.63 -17.17)" fill="#8ff5f0"/>
    <path id="Path_928" data-name="Path 928" d="M109,394.32a.09.09,0,0,1-.09-.05.1.1,0,0,1,0-.14l.11-.07L109,394a.11.11,0,0,1,.1-.19l.28.16a.12.12,0,0,1,0,.1.11.11,0,0,1,0,.09l-.28.16Z" transform="translate(-1.63 -17.17)" fill="#8ff5f0"/>
    <path id="Path_929" data-name="Path 929" d="M108.46,393.67h0l-.58-.34a.1.1,0,0,1,0-.14.11.11,0,0,1,.15,0l.58.33a.11.11,0,0,1,0,.15.12.12,0,0,1-.15,0Zm-1.15-.67h0l-.58-.33a.11.11,0,1,1,.11-.19l.57.34a.1.1,0,0,1,0,.14.09.09,0,0,1-.1.04Zm-1.15-.66h-.06l-.57-.34a.1.1,0,1,1,.1-.18l.58.33a.11.11,0,0,1,0,.15.12.12,0,0,1-.05.04Zm-1.16-.67h0l-.58-.33a.12.12,0,0,1,0-.15.11.11,0,0,1,.15,0l.58.33a.106.106,0,0,1-.15.15Zm-1.15-.66h-.06l-.57-.33a.11.11,0,0,1,0-.15.1.1,0,0,1,.14,0l.58.34a.1.1,0,0,1,0,.14.11.11,0,0,1-.09-.01Zm-1.16-.67h0l-.58-.34a.1.1,0,0,1,.15-.14l.58.33a.11.11,0,0,1,0,.15.12.12,0,0,1-.15,0Zm-1.15-.67h-.05l-.58-.33a.11.11,0,0,1,.11-.19l.57.33a.11.11,0,0,1,0,.15.09.09,0,0,1-.05.04Zm-1.15-.66h-.06l-.57-.33a.11.11,0,0,1,0-.15.1.1,0,0,1,.14,0l.58.33a.11.11,0,0,1,0,.15.12.12,0,0,1-.09-.01Zm-1.16-.67h0L98.6,388a.11.11,0,0,1,.11-.19l.58.33a.11.11,0,0,1-.06.2Zm-1.15-.66h0l-.58-.33a.11.11,0,0,1,0-.15.1.1,0,0,1,.14,0l.58.34a.1.1,0,0,1-.14.14ZM96.92,387h0l-.58-.34a.11.11,0,0,1,0-.14.1.1,0,0,1,.15,0l.58.33a.11.11,0,0,1,0,.15.12.12,0,0,1-.15,0Z" transform="translate(-1.63 -17.17)" fill="#8ff5f0"/>
    <path id="Path_930" data-name="Path 930" d="M95.77,386.34h0l-.28-.16a.11.11,0,0,1,.11-.19l.27.16a.11.11,0,0,1,0,.2Z" transform="translate(-1.63 -17.17)" fill="#8ff5f0"/>
    <path id="Path_931" data-name="Path 931" d="M81.78,429.9a.11.11,0,0,1-.09-.06.1.1,0,0,1,0-.14l.55-.32a.11.11,0,0,1,.15,0,.1.1,0,0,1,0,.14l-.55.32Zm-.55-.27h-.06l-.55-.32a.11.11,0,0,1,0-.15.1.1,0,0,1,.14,0l.56.32a.11.11,0,0,1,0,.15.1.1,0,0,1-.09,0Zm1.66-.37a.11.11,0,0,1-.09-.06.1.1,0,0,1,0-.14l.56-.32a.09.09,0,0,1,.14,0,.1.1,0,0,1,0,.14l-.55.32ZM80.12,429h-.06l-.55-.32a.11.11,0,0,1,0-.15.1.1,0,0,1,.14,0l.56.32a.11.11,0,0,1,0,.15.12.12,0,0,1-.09,0Zm3.88-.38a.12.12,0,0,1-.09-.19l.56-.33a.11.11,0,0,1,.1.19l-.55.32Zm-5-.26h0l-.6-.36a.11.11,0,0,1,0-.15.1.1,0,0,1,.14,0l.56.32a.11.11,0,0,1,0,.15.12.12,0,0,1-.1.03Zm6.1-.38a.1.1,0,0,1-.09-.05.11.11,0,0,1,0-.15l.56-.32a.1.1,0,0,1,.14,0,.11.11,0,0,1,0,.15l-.55.32Zm-7.21-.26h-.06l-.55-.32a.1.1,0,0,1,.14-.15l.56.32a.11.11,0,0,1,0,.15.12.12,0,0,1-.08-.01Zm8.33-.38a.12.12,0,0,1-.1-.05.11.11,0,0,1,0-.15l.56-.32a.1.1,0,0,1,.14,0,.11.11,0,0,1,0,.15l-.55.32Zm-9.45-.26h0l-.55-.32a.1.1,0,1,1,.14-.15l.56.32a.11.11,0,0,1,0,.15.12.12,0,0,1-.14-.01Zm10.56-.38a.12.12,0,0,1-.1-.05.11.11,0,0,1,0-.15l.56-.32a.1.1,0,1,1,.14.15l-.55.32Zm.58-.94a.11.11,0,0,1-.11-.11V425a.11.11,0,0,1,.22,0v.64a.11.11,0,0,1-.1.11Zm0-1.29a.11.11,0,0,1-.11-.1v-.65a.11.11,0,0,1,.22,0v.65a.11.11,0,0,1-.1.09Zm0-1.28a.11.11,0,0,1-.11-.11v-.64a.11.11,0,0,1,.22,0v.64a.11.11,0,0,1-.1.1Zm0-1.28a.11.11,0,0,1-.11-.11v-.64a.11.11,0,0,1,.22,0v.64a.11.11,0,0,1-.1.1Zm0-1.28a.11.11,0,0,1-.11-.11v-.64a.11.11,0,0,1,.22,0v.64a.11.11,0,0,1-.1.1Zm0-1.29a.11.11,0,0,1-.11-.1v-.65a.11.11,0,0,1,.22,0v.65a.11.11,0,0,1-.1.09Zm0-1.28a.11.11,0,0,1-.11-.11v-.64a.11.11,0,0,1,.22,0v.64a.11.11,0,0,1-.1.1Zm0-1.28a.11.11,0,0,1-.11-.11V416a.11.11,0,0,1,.22,0v.64a.11.11,0,0,1-.1.13Zm0-1.29a.1.1,0,0,1-.11-.1v-.64a.11.11,0,0,1,.22,0v.64a.1.1,0,0,1-.1.09Zm0-1.28a.11.11,0,0,1-.11-.1v-.64a.11.11,0,0,1,.22,0v.64a.11.11,0,0,1-.1.09Zm0-1.28a.11.11,0,0,1-.11-.11v-.64a.11.11,0,0,1,.22,0v.64a.11.11,0,0,1-.1.1Zm0-1.28a.11.11,0,0,1-.11-.11v-.64a.11.11,0,0,1,.22,0v.64a.11.11,0,0,1-.1.1Z" transform="translate(-1.63 -17.17)" fill="#8ff5f0"/>
    <path id="Path_932" data-name="Path 932" d="M33.55,431h0a.12.12,0,0,1,0-.09v-.34a.1.1,0,0,1,.1-.11.11.11,0,0,1,.11.11v.15l.1-.06a.11.11,0,0,1,.11.19l-.26.15Zm.82-.47a.125.125,0,0,1-.09-.2l.55-.32a.11.11,0,1,1,.11.19l-.56.32Zm-.82-.51a.09.09,0,0,1-.1-.1v-.64a.1.1,0,0,1,.1-.11.11.11,0,0,1,.11.11V430a.1.1,0,0,1-.11.06Zm1.93-.13a.12.12,0,0,1-.09-.05.11.11,0,0,1,0-.15l.55-.32a.11.11,0,0,1,.15,0,.1.1,0,0,1,0,.14l-.55.33Zm1.11-.64a.12.12,0,0,1-.09-.05.11.11,0,0,1,0-.15l.55-.32a.11.11,0,0,1,.15,0,.1.1,0,0,1,0,.14l-.55.32Zm-3-.51a.1.1,0,0,1-.1-.11V428a.09.09,0,0,1,.1-.1.1.1,0,0,1,.11.1v.64a.11.11,0,0,1-.15.14Zm4.15-.13a.11.11,0,0,1-.09-.06.1.1,0,0,1,0-.14l.56-.32a.1.1,0,0,1,.14.14l-.55.32Zm1.11-.64a.11.11,0,0,1-.09-.06.1.1,0,0,1,0-.14l.56-.32a.09.09,0,0,1,.14,0,.1.1,0,0,1,0,.14l-.55.32Zm-5.26-.51a.1.1,0,0,1-.1-.11v-.64a.1.1,0,0,1,.1-.11.11.11,0,0,1,.11.11v.64a.11.11,0,0,1-.15.15Zm6.37-.14a.12.12,0,0,1-.09-.19l.56-.33a.11.11,0,0,1,.1.19l-.55.32Zm1.12-.64a.1.1,0,0,1-.1-.05.11.11,0,0,1,0-.15l.56-.32a.1.1,0,0,1,.14,0,.11.11,0,0,1,0,.15l-.55.32Zm-7.49-.5a.1.1,0,0,1-.1-.11v-.64a.1.1,0,0,1,.1-.11.11.11,0,0,1,.11.11v.64a.11.11,0,0,1-.15.15Zm8.6-.14a.12.12,0,0,1-.1-.05.11.11,0,0,1,0-.15l.56-.32a.1.1,0,1,1,.14.15l-.55.32Zm1.11-.64a.12.12,0,0,1-.1-.05.11.11,0,0,1,0-.15l.56-.32a.1.1,0,0,1,.14,0,.11.11,0,0,1,0,.15l-.56.32Zm-9.71-.51a.09.09,0,0,1-.1-.1v-.64a.1.1,0,0,1,.1-.11.11.11,0,0,1,.11.11v.64a.1.1,0,1,1-.15.14Zm0-1.28a.1.1,0,0,1-.1-.11v-.64a.09.09,0,0,1,.1-.1.1.1,0,0,1,.11.1v.64a.11.11,0,0,1-.15.15Zm0-1.28a.1.1,0,0,1-.1-.11v-.64a.1.1,0,0,1,.1-.11.11.11,0,0,1,.11.11v.64a.11.11,0,0,1-.15.15Zm0-1.28a.1.1,0,0,1-.1-.11v-.64a.1.1,0,0,1,.1-.11.11.11,0,0,1,.11.11v.7a.11.11,0,0,1-.15.09Zm0-1.29a.09.09,0,0,1-.1-.1v-.64a.1.1,0,0,1,.1-.11.11.11,0,0,1,.11.11v.64a.1.1,0,1,1-.15.14Zm0-1.28a.1.1,0,0,1-.1-.1v-.65a.09.09,0,0,1,.1-.1.1.1,0,0,1,.11.1v.65a.11.11,0,0,1-.15.14Zm0-1.28a.1.1,0,0,1-.1-.11v-.06a.11.11,0,0,1,0-.09l.5-.29a.11.11,0,0,1,.15,0,.1.1,0,0,1,0,.14l-.45.26a.118.118,0,0,1-.14.19Zm1.06-.67a.132.132,0,0,1-.09-.2l.55-.32a.11.11,0,0,1,.15,0,.1.1,0,0,1,0,.14l-.56.32Zm1.11-.64a.11.11,0,0,1-.09-.06.1.1,0,0,1,0-.14l.55-.32a.1.1,0,0,1,.15.14l-.55.32Zm1.11-.64a.11.11,0,0,1-.09-.06.1.1,0,0,1,0-.14l.56-.33a.1.1,0,1,1,.14.15l-.55.32Zm1.11-.65a.1.1,0,0,1-.09-.05.11.11,0,0,1,0-.15l.56-.32a.1.1,0,0,1,.14,0,.11.11,0,0,1,0,.15l-.55.32Zm1.11-.64A.12.12,0,0,1,39,414a.11.11,0,0,1,0-.15l.56-.32a.1.1,0,0,1,.14,0,.11.11,0,0,1,0,.15l-.55.32Zm1.11-.64a.12.12,0,0,1-.09-.05.11.11,0,0,1,0-.15l.56-.32a.1.1,0,1,1,.14.15l-.55.32Zm1.12-.64a.12.12,0,0,1-.1-.05.11.11,0,0,1,0-.15l.56-.32a.1.1,0,1,1,.14.15l-.55.32Zm1.11-.64a.12.12,0,0,1-.1-.05.11.11,0,0,1,0-.15l.56-.32a.1.1,0,0,1,.14.14l-.56.32Z" transform="translate(-1.63 -17.17)" fill="#8ff5f0"/>
    <path id="Path_933" data-name="Path 933" d="M30.65,401.83h-.06a.11.11,0,0,1-.05-.09v-.56a.11.11,0,0,1,.11-.11.1.1,0,0,1,.1.11v.42a.13.13,0,0,1,.06.05.1.1,0,0,1,0,.14h-.07Zm.62-.35a.1.1,0,0,1-.09-.06.09.09,0,0,1,0-.14l.55-.32a.1.1,0,0,1,.15.14l-.56.32Zm1.11-.65a.09.09,0,0,1-.09-.05.1.1,0,0,1,0-.15l.55-.32a.106.106,0,1,1,.15.15l-.56.32Zm-1.73-.2a.11.11,0,0,1-.11-.11v-.64a.1.1,0,0,1,.11-.1.09.09,0,0,1,.1.1v.64a.1.1,0,0,1-.1.11Zm2.84-.44a.125.125,0,0,1-.09-.2l.55-.32a.11.11,0,0,1,.11.19l-.56.32Zm1.11-.64a.125.125,0,0,1-.09-.2l.55-.32a.11.11,0,0,1,.11.19l-.56.32Zm-4-.2a.11.11,0,0,1-.11-.11v-.64a.11.11,0,0,1,.11-.11.1.1,0,0,1,.1.11v.64a.1.1,0,0,1-.05.11Zm5.06-.44a.125.125,0,0,1-.09-.2l.55-.32a.11.11,0,0,1,.11.19l-.56.32Zm1.11-.64a.087.087,0,0,1-.09-.15l.55-.32a.11.11,0,0,1,.11.19l-.55.32Zm-6.17-.2a.11.11,0,0,1-.11-.11v-.64a.11.11,0,0,1,.11-.11.1.1,0,0,1,.1.11V398a.1.1,0,0,1-.05.07Zm7.28-.44a.12.12,0,0,1-.09-.05.11.11,0,0,1,0-.15l.56-.32a.1.1,0,1,1,.1.18l-.55.32ZM39,397a.11.11,0,0,1-.09-.06.1.1,0,0,1,0-.14l.55-.32a.11.11,0,0,1,.15,0,.1.1,0,0,1,0,.14l-.55.32Zm1.11-.64a.11.11,0,0,1-.09-.06.1.1,0,0,1,0-.14l.56-.32a.09.09,0,0,1,.14,0,.1.1,0,0,1,0,.14l-.55.32Zm1.11-.65a.1.1,0,0,1-.09-.05.11.11,0,0,1,0-.15l.56-.32a.1.1,0,0,1,.14,0,.11.11,0,0,1,0,.15l-.55.32Zm1.12-.64a.12.12,0,0,1-.1-.05.11.11,0,0,1,0-.15l.41-.23a.1.1,0,0,1,.15.14l-.41.24Z" transform="translate(-1.63 -17.17)" fill="#8ff5f0"/>
    <path id="Path_934" data-name="Path 934" d="M93.91,374.2a.1.1,0,0,1-.11-.1v-.64a.11.11,0,0,1,.11-.11.1.1,0,0,1,.1.11v.64a.09.09,0,0,1-.1.1Zm0-1.28a.11.11,0,0,1-.11-.1v-.65a.11.11,0,0,1,.11-.1.1.1,0,0,1,.1.1v.65a.1.1,0,0,1-.1.1Zm0-1.28a.11.11,0,0,1-.11-.11v-.64a.1.1,0,0,1,.11-.1.09.09,0,0,1,.1.1v.64a.1.1,0,0,1-.1.11Zm0-1.28a.11.11,0,0,1-.11-.11v-.64a.11.11,0,0,1,.11-.11.1.1,0,0,1,.1.11v.64a.1.1,0,0,1-.1.11Zm0-1.29a.1.1,0,0,1-.11-.1v-.64a.11.11,0,0,1,.11-.11.1.1,0,0,1,.1.11V369A.09.09,0,0,1,93.91,369.07Zm0-1.28a.11.11,0,0,1-.11-.11V367a.11.11,0,0,1,.11-.1.1.1,0,0,1,.1.1v.64a.1.1,0,0,1-.1.15Zm0-1.28a.11.11,0,0,1-.11-.11v-.64a.1.1,0,0,1,.11-.1.09.09,0,0,1,.1.1v.64a.1.1,0,0,1-.1.11Zm0-1.28a.11.11,0,0,1-.11-.11v-.64a.11.11,0,0,1,.11-.11.1.1,0,0,1,.1.11v.64a.1.1,0,0,1-.1.11Zm0-1.29a.1.1,0,0,1-.11-.1v-.64a.11.11,0,0,1,.11-.11.1.1,0,0,1,.1.11v.64a.09.09,0,0,1-.1.1Zm0-1.28a.11.11,0,0,1-.11-.11v-.64a.11.11,0,0,1,.11-.1.1.1,0,0,1,.1.1v.64a.1.1,0,0,1-.1.11Zm0-1.28a.11.11,0,0,1-.11-.11v-.64a.11.11,0,0,1,.11-.11.1.1,0,0,1,.1.11v.64a.1.1,0,0,1-.1.11Zm0-1.28a.11.11,0,0,1-.11-.11v-.64a.11.11,0,0,1,.11-.11.1.1,0,0,1,.1.11V360A.1.1,0,0,1,93.91,360.1Zm0-1.29a.1.1,0,0,1-.11-.1v-.64a.11.11,0,0,1,.11-.11.1.1,0,0,1,.1.11v.64a.09.09,0,0,1-.1.1Zm0-1.28a.11.11,0,0,1-.11-.11v-.64a.11.11,0,0,1,.11-.1.1.1,0,0,1,.1.1v.64a.1.1,0,0,1-.1.11Zm0-1.28a.11.11,0,0,1-.11-.11v-.64a.11.11,0,0,1,.11-.11.1.1,0,0,1,.1.11v.64a.1.1,0,0,1-.1.11Zm0-1.28a.11.11,0,0,1-.11-.11v-.64a.11.11,0,0,1,.11-.11.1.1,0,0,1,.1.11v.64a.1.1,0,0,1-.1.14Zm0-1.29a.1.1,0,0,1-.11-.1v-.64a.11.11,0,0,1,.11-.11.1.1,0,0,1,.1.11v.64a.09.09,0,0,1-.1.1Zm-6.78-.43a.11.11,0,0,1-.1-.06.1.1,0,0,1,0-.14l.56-.32a.1.1,0,1,1,.14.15l-.55.32Zm1.11-.65a.11.11,0,0,1-.06-.2l.56-.32a.11.11,0,0,1,.15,0,.12.12,0,0,1,0,.15l-.56.32Zm5.67-.2a.11.11,0,0,1-.11-.11v-.64a.1.1,0,0,1,.11-.1.09.09,0,0,1,.1.1v.64a.1.1,0,0,1-.1.11Zm-4.56-.4a.09.09,0,0,1-.09,0,.11.11,0,0,1,0-.15l.56-.32a.11.11,0,0,1,.11.19l-.56.32Zm1.11-.64a.11.11,0,0,1,0-.2l.55-.32a.11.11,0,1,1,.11.19l-.56.32Zm3.45-.2a.11.11,0,0,1-.11-.11v-.64a.11.11,0,0,1,.11-.11.1.1,0,0,1,.1.11V351a.1.1,0,0,1-.1.12Zm-2.34-.44a.11.11,0,0,1,0-.2l.55-.32a.11.11,0,1,1,.11.19l-.56.32Zm1.11-.64a.125.125,0,0,1-.09-.2l.55-.32a.11.11,0,0,1,.15,0,.1.1,0,0,1,0,.14l-.56.33Zm1.23-.2a.11.11,0,0,1-.11-.11v-.33a.13.13,0,0,1-.1-.06.1.1,0,0,1,0-.14l.11-.07a.11.11,0,0,1,.11,0,.12.12,0,0,1,.05.09v.51a.1.1,0,0,1-.06.07Z" transform="translate(-1.63 -17.17)" fill="#8ff5f0"/>
    <path id="Path_935" data-name="Path 935" d="M50.51,360.89a.1.1,0,0,1-.11-.1v-.64a.11.11,0,0,1,.11-.11.1.1,0,0,1,.1.11v.64a.09.09,0,0,1-.1.1Zm-7.21-.72a.11.11,0,0,1-.11-.11v-.64a.11.11,0,0,1,.11-.11.1.1,0,0,1,.1.11v.64a.1.1,0,0,1-.1.11Zm7.21-.56a.11.11,0,0,1-.11-.1v-.65a.11.11,0,0,1,.11-.1.1.1,0,0,1,.1.1v.65A.1.1,0,0,1,50.51,359.61Zm-7.21-.73a.11.11,0,0,1-.11-.1v-.65a.11.11,0,0,1,.11-.1.1.1,0,0,1,.1.1v.65A.1.1,0,0,1,43.3,358.88Zm7.21-.55a.11.11,0,0,1-.11-.11v-.64a.1.1,0,0,1,.11-.1.09.09,0,0,1,.1.1v.64a.1.1,0,0,1-.1.11Zm-7.21-.73a.11.11,0,0,1-.11-.11v-.64a.1.1,0,0,1,.11-.1.09.09,0,0,1,.1.1v.64a.1.1,0,0,1-.1.11Zm7.21-.55a.11.11,0,0,1-.11-.11v-.64a.11.11,0,0,1,.11-.11.1.1,0,0,1,.1.11v.64a.1.1,0,0,1-.1.11Zm-7.21-.73a.11.11,0,0,1-.11-.11v-.64a.11.11,0,0,1,.11-.11.1.1,0,0,1,.1.11v.64a.1.1,0,0,1-.1.11Zm7.21-.56a.1.1,0,0,1-.11-.1V355a.11.11,0,0,1,.11-.11.1.1,0,0,1,.1.11v.64a.09.09,0,0,1-.1.12ZM43.3,355a.11.11,0,0,1-.11-.11v-.64a.11.11,0,0,1,.11-.11.1.1,0,0,1,.1.11v.64a.1.1,0,0,1-.1.11Zm7.21-.56a.11.11,0,0,1-.11-.1v-.65a.11.11,0,0,1,.11-.1.1.1,0,0,1,.1.1v.65a.1.1,0,0,1-.1.14Zm-7.21-.73a.1.1,0,0,1-.11-.1V353a.11.11,0,0,1,.11-.1.1.1,0,0,1,.1.1v.65a.09.09,0,0,1-.1.1Zm7.21-.55a.11.11,0,0,1-.11-.11v-.64a.1.1,0,0,1,.11-.1.09.09,0,0,1,.1.1v.64a.1.1,0,0,1-.1.15Zm-7.21-.73a.11.11,0,0,1-.11-.11v-.64a.1.1,0,0,1,.11-.1.09.09,0,0,1,.1.1v.64a.1.1,0,0,1-.1.15Zm7.21-.55a.11.11,0,0,1-.11-.11v-.64a.11.11,0,0,1,.11-.11.1.1,0,0,1,.1.11v.64a.1.1,0,0,1-.1.15Zm-6.76-.47a.11.11,0,0,1-.1-.06.1.1,0,0,1,0-.14l.56-.32a.1.1,0,1,1,.1.18l-.55.32Zm1.11-.64a.11.11,0,0,1-.1-.06.1.1,0,0,1,0-.14l.56-.32a.1.1,0,0,1,.14,0,.11.11,0,0,1,0,.15l-.56.32Zm5.65-.18a.1.1,0,0,1-.11-.1v-.64a.11.11,0,0,1,.11-.11.1.1,0,0,1,.1.11v.64a.09.09,0,0,1-.1.14ZM46,350.16a.1.1,0,0,1-.1-.05.11.11,0,0,1,0-.15l.56-.32a.1.1,0,0,1,.14,0,.11.11,0,0,1,0,.15l-.56.32Zm1.11-.64a.11.11,0,0,1-.06-.2l.56-.32a.11.11,0,0,1,.15,0,.12.12,0,0,1,0,.15l-.56.32Zm3.43-.17a.11.11,0,0,1-.11-.1v-.65a.11.11,0,0,1,.11-.1.1.1,0,0,1,.1.1v.65a.1.1,0,0,1-.13.1Zm-2.32-.47a.125.125,0,0,1-.09-.2l.56-.32a.11.11,0,1,1,.11.19l-.56.32Zm1.11-.64a.11.11,0,0,1,0-.2l.55-.32a.11.11,0,1,1,.11.19l-.56.32Zm1.21-.17a.11.11,0,0,1-.11-.11v-.36a.11.11,0,0,1,0-.2l.09-.06a.11.11,0,0,1,.11,0,.12.12,0,0,1,0,.1V348a.1.1,0,0,1-.12.07Z" transform="translate(-1.63 -17.17)" fill="#8ff5f0"/>
    <path id="Path_936" data-name="Path 936" d="M32.27,385.24a.11.11,0,0,1-.11-.11v-.28a.1.1,0,0,1,.11-.1.09.09,0,0,1,.1.1v.28a.1.1,0,0,1-.1.11Zm0-.92a.11.11,0,0,1-.11-.11v-.64a.11.11,0,0,1,.11-.11.1.1,0,0,1,.1.11v.64a.1.1,0,0,1-.1.11Zm0-1.29a.1.1,0,0,1-.11-.1v-.64a.11.11,0,0,1,.11-.11.1.1,0,0,1,.1.11v.64a.09.09,0,0,1-.1.07Zm0-1.28a.11.11,0,0,1-.11-.11V381a.11.11,0,0,1,.11-.1.1.1,0,0,1,.1.1v.64a.1.1,0,0,1-.1.11Zm0-1.28a.11.11,0,0,1-.11-.11v-.64a.11.11,0,0,1,.11-.11.1.1,0,0,1,.1.11v.64a.1.1,0,0,1-.1.11Zm0-1.28a.11.11,0,0,1-.11-.11v-.64a.11.11,0,0,1,.11-.11.1.1,0,0,1,.1.11v.64a.1.1,0,0,1-.1.11Zm0-1.29a.1.1,0,0,1-.11-.1v-.64a.11.11,0,0,1,.11-.11.1.1,0,0,1,.1.11v.64a.09.09,0,0,1-.1.1Zm0-1.28a.11.11,0,0,1-.11-.11v-.64a.11.11,0,0,1,.11-.1.1.1,0,0,1,.1.1v.64a.1.1,0,0,1-.1.11Zm.28-1.12a.12.12,0,0,1-.1-.05.11.11,0,0,1,0-.15l.56-.32a.1.1,0,1,1,.14.15l-.55.32Zm1.11-.64a.12.12,0,0,1-.1-.05.11.11,0,0,1,0-.15l.56-.32a.1.1,0,0,1,.14,0,.09.09,0,0,1,0,.14l-.55.32Zm1.11-.64a.11.11,0,0,1-.06-.2l.56-.32a.1.1,0,1,1,.14.14l-.56.32Z" transform="translate(-1.63 -17.17)" fill="#8ff5f0"/>
    <path id="Path_937" data-name="Path 937" d="M35.56,390.13a.12.12,0,0,1-.09-.19l.55-.32a.1.1,0,0,1,.15,0,.11.11,0,0,1,0,.15l-.55.32Zm1.11-.64a.1.1,0,0,1-.09-.05.12.12,0,0,1,0-.15l.55-.32a.106.106,0,1,1,.15.15l-.55.32Zm1.11-.64a.12.12,0,0,1-.09-.05.11.11,0,0,1,0-.15l.56-.32a.1.1,0,0,1,.14,0,.11.11,0,0,1,0,.15l-.55.32Zm1.11-.64a.12.12,0,0,1-.09,0,.11.11,0,0,1,0-.15l.56-.32a.1.1,0,0,1,.14,0,.11.11,0,0,1,0,.15l-.55.32Zm1.11-.64a.12.12,0,0,1-.09-.05.11.11,0,0,1,0-.15l.56-.32a.1.1,0,0,1,.14,0,.11.11,0,0,1,0,.15l-.55.32Zm1.12-.64a.12.12,0,0,1-.1-.05.11.11,0,0,1,0-.15l.56-.32a.1.1,0,1,1,.14.14l-.55.33Zm1.11-.64a.11.11,0,0,1-.1-.06.1.1,0,0,1,0-.14l.56-.32a.1.1,0,1,1,.1.18l-.55.32Zm1.11-.64a.11.11,0,0,1-.1-.06.1.1,0,0,1,0-.14l.56-.32a.09.09,0,0,1,.14,0,.1.1,0,0,1,0,.14l-.56.32Zm1.11-.65a.1.1,0,0,1-.1-.05.11.11,0,0,1,0-.14l.56-.32a.11.11,0,0,1,.15,0,.12.12,0,0,1,0,.15l-.56.32Zm1.11-.64a.125.125,0,0,1-.09-.2l.56-.32a.11.11,0,0,1,.11.19l-.56.32Zm1.11-.64a.125.125,0,0,1-.09-.2l.56-.32a.11.11,0,0,1,.11.19l-.56.32Zm1.11-.64a.11.11,0,0,1-.05-.2l.55-.32a.11.11,0,0,1,.11.19l-.56.32Zm1.11-.64a.125.125,0,0,1-.09-.2l.55-.32a.11.11,0,0,1,.11.19l-.56.32ZM50,381.8a.125.125,0,0,1-.09-.2l.55-.32a.11.11,0,0,1,.15,0,.1.1,0,0,1,0,.14l-.56.33Zm1.11-.64a.132.132,0,0,1-.09-.2l.55-.32a.11.11,0,0,1,.15,0,.1.1,0,0,1,0,.14l-.56.32Zm1.11-.64a.11.11,0,0,1-.09-.06.1.1,0,0,1,0-.14l.55-.32a.1.1,0,0,1,.15.14l-.55.32Zm1.11-.64a.11.11,0,0,1-.09-.06.1.1,0,0,1,0-.14l.55-.33a.11.11,0,0,1,.11.19l-.55.32Zm1.11-.65a.12.12,0,0,1-.09-.05.11.11,0,0,1,0-.15l.56-.32a.1.1,0,0,1,.14,0,.11.11,0,0,1,0,.15l-.55.32Zm1.11-.64a.12.12,0,0,1-.09,0,.1.1,0,0,1,0-.14l-.24-.14a.11.11,0,0,1,0-.15.1.1,0,0,1,.14,0l.4.23a.105.105,0,0,1,0,.19l-.15.09Zm-.79-.64H54.7l-.55-.32a.11.11,0,0,1,0-.15.1.1,0,0,1,.14,0l.56.32a.11.11,0,0,1,0,.15.12.12,0,0,1-.09.05Zm-1.12-.64h0L53,377a.1.1,0,0,1,.14-.15l.56.32a.11.11,0,0,1,0,.15.12.12,0,0,1-.06-.01Zm-1.11-.64h-.05l-.55-.32a.09.09,0,0,1,0-.14.1.1,0,0,1,.14,0l.56.32a.11.11,0,0,1,0,.15.12.12,0,0,1-.1-.01ZM51.42,376h-.05l-.56-.32a.11.11,0,0,1,0-.14.12.12,0,0,1,.15,0l.56.32a.1.1,0,0,1,0,.14.11.11,0,0,1-.1,0Zm-1.11-.64h-.05l-.56-.32a.11.11,0,0,1,0-.14.1.1,0,0,1,.15,0l.56.32a.11.11,0,0,1-.06.2Zm-1.11-.64h-.05l-.56-.32a.11.11,0,0,1,0-.15.12.12,0,0,1,.15,0l.56.33a.1.1,0,0,1-.1.17Zm-1.11-.65H48l-.56-.32a.11.11,0,1,1,.11-.19l.55.32a.11.11,0,0,1,0,.2ZM47,373.46h0l-.56-.32a.11.11,0,1,1,.11-.19l.55.32a.11.11,0,0,1-.05.2Zm-1.11-.64h0l-.56-.32a.11.11,0,0,1,.11-.19l.55.32a.118.118,0,0,1-.12.19Zm-1.11-.64h0l-.56-.32a.11.11,0,0,1,.11-.19l.55.32a.118.118,0,0,1-.12.19Z" transform="translate(-1.63 -17.17)" fill="#8ff5f0"/>
    <path id="Path_938" data-name="Path 938" d="M90.61,398h0l-.55-.32a.1.1,0,0,1,.14-.15l.56.32a.11.11,0,0,1,0,.15.12.12,0,0,1-.15,0Zm-1.11-.64h0l-.6-.36a.09.09,0,0,1,0-.14.1.1,0,0,1,.14,0l.56.32a.11.11,0,0,1,0,.15.12.12,0,0,1-.1.01Zm-1.11-.64h0l-.56-.32a.1.1,0,0,1,.15-.14l.56.32a.11.11,0,0,1,0,.15.12.12,0,0,1-.15-.03Zm-1.11-.64h0l-.56-.32a.1.1,0,1,1,.15-.14l.56.32a.11.11,0,0,1,0,.14.12.12,0,0,1-.15-.02Zm-1.11-.64h0l-.56-.32a.11.11,0,1,1,.11-.18l.56.32a.1.1,0,0,1-.11.16Zm-1.11-.65h0l-.56-.32a.106.106,0,0,1,.15-.15l.55.33a.1.1,0,0,1,0,.14.09.09,0,0,1-.14-.02ZM84,394.13h0l-.56-.32a.11.11,0,1,1,.11-.19l.55.32a.116.116,0,0,1-.1.19Zm-1.11-.64h0l-.56-.32a.11.11,0,1,1,.11-.19l.55.32a.125.125,0,0,1-.15.19Zm-1.11-.64h0l-.56-.32a.11.11,0,1,1,.11-.19l.55.32a.125.125,0,0,1-.15.19Zm-1.11-.64h-.06l-.55-.32a.12.12,0,0,1,0-.15.11.11,0,0,1,.15,0l.55.32a.11.11,0,0,1,0,.15.12.12,0,0,1-.14,0Zm-1.11-.64H79.5l-.55-.32a.1.1,0,0,1,.14-.14l.56.32a.11.11,0,0,1,0,.15.12.12,0,0,1-.14-.01Zm-1.11-.64h-.06l-.55-.32a.1.1,0,0,1,.1-.18l.56.32a.1.1,0,0,1,0,.14.11.11,0,0,1-.1.04Zm-1.11-.64h-.06l-.55-.32a.1.1,0,0,1,0-.14.09.09,0,0,1,.14,0l.56.32a.1.1,0,0,1,0,.14.11.11,0,0,1-.14,0Zm-1.11-.65h-.06l-.55-.32a.11.11,0,0,1,0-.15.1.1,0,0,1,.14,0l.56.32a.1.1,0,0,1-.14.15ZM75.06,389h0l-.55-.32a.1.1,0,0,1,.14-.15l.56.32a.11.11,0,0,1,0,.15.1.1,0,0,1-.15,0ZM74,388.36h0l-.15-.09a.1.1,0,0,1,0-.14.11.11,0,0,1,.15,0l.15.08a.11.11,0,0,1,0,.15.12.12,0,0,1-.15,0Z" transform="translate(-1.63 -17.17)" fill="#8ff5f0"/>
    <path id="Path_939" data-name="Path 939" d="M99.31,408.36a.11.11,0,0,1-.11-.11v-.64a.11.11,0,0,1,.22,0v.64A.11.11,0,0,1,99.31,408.36Zm0-1.29a.1.1,0,0,1-.11-.1v-.64a.11.11,0,0,1,.22,0V407a.1.1,0,0,1-.11.07Zm-6.7-.12a.12.12,0,0,1-.1-.05.11.11,0,0,1,0-.15l.17-.09a.1.1,0,0,1,.14,0,.11.11,0,0,1,0,.15l-.17.1Zm.72-.42a.1.1,0,0,1-.1,0,.12.12,0,0,1,0-.15l.56-.32a.106.106,0,0,1,.15.15l-.56.32Zm1.11-.64a.125.125,0,0,1-.09-.2l.56-.32a.11.11,0,0,1,.11.19l-.56.32Zm4.87-.1a.11.11,0,0,1-.11-.11V405a.11.11,0,0,1,.22,0v.64a.11.11,0,0,1-.11.15Zm-3.76-.54a.125.125,0,0,1-.09-.2l.56-.32a.11.11,0,1,1,.11.19l-.56.32Zm1.11-.64a.11.11,0,0,1,0-.2l.55-.32a.11.11,0,0,1,.11.19l-.56.32Zm2.65-.1a.11.11,0,0,1-.11-.11v-.64a.11.11,0,0,1,.22,0v.64a.11.11,0,0,1-.11.11ZM97.77,404a.125.125,0,0,1-.09-.2l.55-.32a.11.11,0,0,1,.15,0,.1.1,0,0,1,0,.14l-.56.33Zm1.11-.64a.125.125,0,0,1-.09-.2l.43-.25a.09.09,0,0,1,.1,0,.11.11,0,0,1,.06.09v.15a.11.11,0,0,1-.11.11.1.1,0,0,1-.1-.07l-.28.15Z" transform="translate(-1.63 -17.17)" fill="#8ff5f0"/>
    <path id="Path_940" data-name="Path 940" d="M20.55,400H20.5a.12.12,0,0,1-.05-.1v-.43a.1.1,0,0,1,.1-.11.11.11,0,0,1,.11.11v.25h.16a.11.11,0,0,1,0,.15l-.18.11Zm.74-.43a.09.09,0,0,1-.09-.05.11.11,0,0,1,0-.15l.56-.32a.106.106,0,1,1,.15.15l-.56.32Zm1.11-.64a.11.11,0,0,1,0-.2l.55-.32a.11.11,0,1,1,.11.19l-.56.32Zm-1.85,0a.09.09,0,0,1-.1-.1v-.64a.1.1,0,0,1,.1-.11.11.11,0,0,1,.11.11v.64a.1.1,0,0,1-.11.1Zm3-.63a.11.11,0,0,1-.05-.2l.55-.32a.11.11,0,0,1,.11.19l-.56.32Zm-3-.65a.1.1,0,0,1-.1-.1v-.65a.1.1,0,0,1,.1-.1.11.11,0,0,1,.11.1v.65a.11.11,0,0,1-.11.1Zm0-1.28a.1.1,0,0,1-.1-.11v-.64a.09.09,0,0,1,.1-.1.1.1,0,0,1,.11.1v.64A.11.11,0,0,1,20.55,396.37Zm0-1.28a.1.1,0,0,1-.1-.11v-.64a.1.1,0,0,1,.1-.11.11.11,0,0,1,.11.11V395a.11.11,0,0,1-.11.09Zm0-1.29a.09.09,0,0,1-.1-.1v-.64a.1.1,0,0,1,.1-.11.11.11,0,0,1,.11.11v.64a.1.1,0,0,1-.11.1Zm0-1.28a.1.1,0,0,1-.1-.1v-.65a.1.1,0,0,1,.1-.1.11.11,0,0,1,.11.1v.65a.11.11,0,0,1-.11.1Zm0-1.28a.1.1,0,0,1-.1-.11v-.64a.09.09,0,0,1,.1-.1.1.1,0,0,1,.11.1v.64a.11.11,0,0,1-.11.11Zm0-1.28a.1.1,0,0,1-.1-.11v-.64a.1.1,0,0,1,.1-.11.11.11,0,0,1,.11.11v.64a.11.11,0,0,1-.11.15Zm0-1.29a.09.09,0,0,1-.1-.1v-.64a.1.1,0,0,1,.1-.11.11.11,0,0,1,.11.11v.64a.1.1,0,0,1-.11.1Zm0-1.28a.1.1,0,0,1-.1-.1v-.65a.1.1,0,0,1,.1-.1.11.11,0,0,1,.11.1v.65A.11.11,0,0,1,20.55,387.39Zm0-1.28a.1.1,0,0,1-.1-.11v-.64a.09.09,0,0,1,.1-.1.1.1,0,0,1,.11.1V386A.11.11,0,0,1,20.55,386.11Zm0-1.28a.1.1,0,0,1-.1-.11v-.64a.1.1,0,0,1,.1-.11.11.11,0,0,1,.11.11v.64A.11.11,0,0,1,20.55,384.83Zm0-1.29a.09.09,0,0,1-.1-.1v-.64a.1.1,0,0,1,.1-.11.11.11,0,0,1,.11.11v.64a.1.1,0,0,1-.11.1Zm0-1.28a.1.1,0,0,1-.1-.1v-.65a.1.1,0,0,1,.1-.1.11.11,0,0,1,.11.1v.65a.11.11,0,0,1-.11.1Zm0-1.28a.1.1,0,0,1-.1-.11v-.64a.09.09,0,0,1,.1-.1.1.1,0,0,1,.11.1v.64a.11.11,0,0,1-.11.13Zm0-1.28a.1.1,0,0,1-.1-.11V379a.1.1,0,0,1,.1-.11.11.11,0,0,1,.11.11v.64a.11.11,0,0,1-.11.06Zm0-1.28a.1.1,0,0,1-.1-.11v-.64a.1.1,0,0,1,.1-.11.11.11,0,0,1,.11.11v.64A.11.11,0,0,1,20.55,378.42Zm0-1.29a.1.1,0,0,1-.1-.1v-.65a.1.1,0,0,1,.1-.1.11.11,0,0,1,.11.1V377a.11.11,0,0,1-.11.13Zm0-1.28a.1.1,0,0,1-.1-.11v-.07a.1.1,0,0,1,.1-.11.11.11,0,0,1,.11.11v.07A.11.11,0,0,1,20.55,375.85Z" transform="translate(-1.63 -17.17)" fill="#8ff5f0"/>
    <path id="Path_941" data-name="Path 941" d="M103,378.67a.125.125,0,0,1-.09-.2l.55-.32a.11.11,0,1,1,.11.19l-.56.32Zm1.11-.64a.087.087,0,0,1-.09-.15l.55-.32a.11.11,0,1,1,.11.19l-.56.32Zm1.11-.64a.125.125,0,0,1-.09-.2l.55-.32a.11.11,0,0,1,.15,0,.1.1,0,0,1,0,.14l-.56.33Zm1.11-.64a.12.12,0,0,1-.09-.05.11.11,0,0,1,0-.15l.55-.32a.11.11,0,0,1,.15,0,.1.1,0,0,1,0,.14l-.55.32Zm.86-.79a.11.11,0,0,1-.11-.11v-.64a.11.11,0,0,1,.22,0v.64a.11.11,0,0,1-.13.15Zm0-1.28a.11.11,0,0,1-.11-.11v-.64a.11.11,0,0,1,.22,0v.64a.11.11,0,0,1-.13.11Zm0-1.28a.11.11,0,0,1-.11-.11v-.64a.11.11,0,0,1,.22,0v.64a.11.11,0,0,1-.13.11Zm0-1.29a.1.1,0,0,1-.11-.1v-.64a.11.11,0,0,1,.22,0V372a.1.1,0,0,1-.13.11Zm0-1.28a.11.11,0,0,1-.11-.11v-.64a.11.11,0,0,1,.22,0v.64a.11.11,0,0,1-.13.11Zm0-1.28a.11.11,0,0,1-.11-.11v-.64a.11.11,0,0,1,.22,0v.64a.11.11,0,0,1-.13.11Zm0-1.28a.11.11,0,0,1-.11-.11v-.64a.11.11,0,0,1,.22,0v.64a.11.11,0,0,1-.13.11Zm0-1.29a.1.1,0,0,1-.11-.1v-.64a.11.11,0,0,1,.22,0v.64a.1.1,0,0,1-.13.12Zm0-1.28a.11.11,0,0,1-.11-.11V365a.11.11,0,0,1,.22,0v.64a.11.11,0,0,1-.13.06Zm0-1.28a.11.11,0,0,1-.11-.11v-.64a.11.11,0,0,1,.22,0v.64a.11.11,0,0,1-.13.11Zm0-1.28a.11.11,0,0,1-.11-.11v-.64a.11.11,0,0,1,.22,0V363a.11.11,0,0,1-.13.14Zm0-1.29a.1.1,0,0,1-.11-.1v-.39a.11.11,0,0,1,.22,0v.39a.1.1,0,0,1-.13.1Z" transform="translate(-1.63 -17.17)" fill="#8ff5f0"/>
  </g>
</svg>
