<svg xmlns="http://www.w3.org/2000/svg" xmlns:xlink="http://www.w3.org/1999/xlink" width="610.732" height="354.155" viewBox="0 0 610.732 354.155">
  <defs>
    <linearGradient id="linear-gradient" y1="0.5" x2="1" y2="0.5" gradientUnits="objectBoundingBox">
      <stop offset="0" stop-color="#132b35"/>
      <stop offset="1" stop-color="#2d88ae"/>
    </linearGradient>
  </defs>
  <path id="_tMLbDoPeHYDf8vvgFsJ3A" d="M590.452,159.845a21.319,21.319,0,1,0-19.916-13.919l-62.008,52.823-78.565-46.215A23.641,23.641,0,0,0,392.854,127.9L321.868,71.539a17.467,17.467,0,1,0-30,7.414l-35.637,76.269a28.559,28.559,0,0,0-4.886-.452,28.083,28.083,0,0,0-14.358,3.951L142.7,116.489a26.3,26.3,0,1,0-25.95,22.109,26.252,26.252,0,0,0,20.435-9.747l89.669,40.162a28.081,28.081,0,0,0-3.707,13.949,27.46,27.46,0,0,0,4.239,13.986L177.1,247.254a41.861,41.861,0,0,0-61.593,14.6l-.586-.2c-.006.073-.024.14-.031.214l-70.1-31.856a21.1,21.1,0,0,0,.153-2.5,22.058,22.058,0,1,0-5.765,14.8l71.6,32.546c-.031.079-.055.153-.092.226l.342.116a41.658,41.658,0,0,0-.66,6.443,42.14,42.14,0,0,0,12.917,30.384l-.1.079a1.058,1.058,0,0,0,.073.085L86.776,365.957a16.959,16.959,0,0,0-2.919-.269,16.4,16.4,0,1,0,14.035,7.988l32.76-48.273,4.336-5.356a42.128,42.128,0,0,0,47.5-8.4l42.709,30.482a27.635,27.635,0,0,0-2.04,10.022,28.183,28.183,0,0,0,55.5,6.932l97.205-30.067a35.275,35.275,0,0,0,51.925,11.824l43.485,40.376a18.881,18.881,0,0,0-.36,3.646,19.223,19.223,0,1,0,7.677-15.317l-41.6-38.617a35.217,35.217,0,0,0,5.454-18.628c0-17.192-10.144-31.514-28.467-34.672V169.562c6.107-1.05,6.608-2.919,9.24-5.362l81.424,47.931,68.274,95.611a12.226,12.226,0,0,0-.892,4.55,12.435,12.435,0,1,0,12.422-12.441c-.183,0-.366.018-.55.031l-65.532-91.733,60.652-51.662A21.079,21.079,0,0,0,590.452,159.845ZM371.643,312.292a35.229,35.229,0,0,0,.214,3.787l-93.29,28.851a28.176,28.176,0,0,0-27.227-20.979,27.8,27.8,0,0,0-17.791,6.8l-42.984-30.671a41.44,41.44,0,0,0-3.5-42.849l50.282-50.307a27.482,27.482,0,0,0,13.992,4.239,28.127,28.127,0,0,0,23.8-13.113l105.181,91.086A35.225,35.225,0,0,0,371.643,312.292Zm30.109-34.672c-6.107.611-6.932,1.667-9.747,3.066L279.874,183.908c.012-.318-.14-.623-.14-.941A28.2,28.2,0,0,0,268.7,160.7L304.12,84.8c.281.012.537.043.818.043a17.3,17.3,0,0,0,8.85-2.437l70.974,56.365c-.922,2.535-.69,5.258-.69,8.111,0,10.731,5.466,19.776,17.681,22.689Z" transform="translate(-0.961 -49.888)" fill="url(#linear-gradient)"/>
</svg>
