<svg xmlns="http://www.w3.org/2000/svg" width="129.354" height="135.404" viewBox="0 0 129.354 135.404">
  <g id="Group_40160" data-name="Group 40160" transform="translate(3442.031 628.767)">
    <g id="Layer_58" transform="translate(-3441.524 -593.198)">
      <g id="Group_40145" data-name="Group 40145" transform="translate(6.911 90.195)">
        <path id="Path_7493" data-name="Path 7493" d="M647.97,1277.59q.569-.584,1.15-1.158c.385-.384.775-.763,1.165-1.142l.584-.568.59-.562,1.182-1.123,1.191-1.111q.6-.557,1.2-1.105c.8-.73,1.6-1.468,2.409-2.192l.124-.11h.172c1.551-.015,3.1-.014,4.654-.008s3.1.026,4.655.061,3.1.077,4.654.141,3.1.135,4.654.252c-1.551.116-3.1.189-4.654.251s-3.1.1-4.654.141-3.1.049-4.655.061-3.1.007-4.654-.008l.293-.111c-.817.716-1.648,1.415-2.471,2.123-.411.354-.828.7-1.245,1.052l-1.25,1.045-1.26,1.035-.63.517-.636.51c-.424.341-.847.681-1.275,1.015S648.4,1277.261,647.97,1277.59Z" transform="translate(-647.97 -1268.506)" fill="none" stroke="#dbc883" stroke-width="1"/>
      </g>
      <g id="Group_40146" data-name="Group 40146" transform="translate(91.142 3.238)">
        <path id="Path_7494" data-name="Path 7494" d="M1396.008,507.75c-.815,1.121-1.658,2.22-2.5,3.317s-1.7,2.184-2.567,3.263-1.735,2.156-2.608,3.228q-.653.806-1.317,1.6l-1.327,1.595.106-.293q.005,2.243-.016,4.484c-.017,1.495-.034,2.989-.074,4.484l-.057,2.242-.078,2.243c-.064,1.5-.126,2.989-.23,4.484-.106-1.5-.167-2.989-.231-4.484l-.078-2.243-.057-2.242c-.039-1.5-.057-2.989-.074-4.484s-.021-2.989-.016-4.484V520.3l.106-.126,1.341-1.583q.672-.79,1.351-1.575c.905-1.046,1.807-2.095,2.727-3.129s1.839-2.068,2.769-3.094S1395.044,508.748,1396.008,507.75Z" transform="translate(-1384.879 -507.75)" fill="none" stroke="#dbc883" stroke-width="1"/>
      </g>
      <g id="Group_40147" data-name="Group 40147" transform="translate(0)">
        <path id="Path_7495" data-name="Path 7495" d="M639.507,566.4c-11.086,0-22.174.032-33.26-.029a7.97,7.97,0,0,0-5.394,2c-3.3,2.748-6.654,5.429-9.989,8.135-.845.685-1.692,1.368-2.562,2.019-.175.131-.584.233-.677.139-.286-.286.017-.5.225-.706,4.179-4.082,8.381-8.14,12.53-12.252q8.8-8.717,17.526-17.5c1.347-1.348,2.685-2.7,4-4.082a4.382,4.382,0,0,1,3.386-1.418c8.4.036,16.8.03,25.2.038.661,0,.747-.088.749-.816q0-9.173,0-18.345c0-2.467.053-4.935.051-7.4a3.558,3.558,0,0,1,1.127-2.659q9.341-9.363,18.645-18.762l14.536-14.638a8.187,8.187,0,0,1,.626-.6,1,1,0,0,1,.369-.1,1.026,1.026,0,0,1-.1.359c-1.883,2.392-3.778,4.776-5.66,7.168-1.647,2.094-3.3,4.186-4.913,6.3a5.034,5.034,0,0,0-1,3.154c.008,5.552-.011,11.1-.016,16.656q-.024,26.046-.043,52.093c0,1.256,0,1.256-1.288,1.256H639.508A.044.044,0,0,1,639.507,566.4Z" transform="translate(-587.509 -479.42)" fill="none" stroke="#dbc883" stroke-width="1"/>
      </g>
    </g>
    <g id="Layer_59" transform="translate(-3415.685 -628.211)">
      <g id="Group_40148" data-name="Group 40148" transform="translate(0 64.188)">
        <path id="Path_7496" data-name="Path 7496" d="M826.966,734.66c.1,1.608.157,3.217.217,4.825s.1,3.217.131,4.825.056,3.217.077,4.825.027,3.217.031,4.825v.167l-.11.129q-1.671,1.961-3.361,3.906c-1.129,1.294-2.259,2.588-3.405,3.868l-1.718,1.922-1.733,1.909c-1.166,1.263-2.327,2.53-3.524,3.768,1.037-1.374,2.107-2.719,3.174-4.066l1.616-2.008,1.631-2c1.086-1.332,2.189-2.648,3.292-3.965s2.218-2.625,3.335-3.927l-.11.3c0-1.608.008-3.217.031-4.824s.037-3.217.076-4.825.08-3.216.132-4.825S826.868,736.269,826.966,734.66Z" transform="translate(-814.57 -734.66)" fill="none" stroke="#dbc883" stroke-width="1"/>
      </g>
      <g id="Group_40149" data-name="Group 40149" transform="translate(67.795 2.66)">
        <path id="Path_7497" data-name="Path 7497" d="M1440.3,196.37c-.477.556-.965,1.1-1.455,1.644s-.984,1.08-1.486,1.611l-.749.8-.756.793q-.759.789-1.523,1.573l-.111.113-.174,0q-2.327.046-4.654.05c-1.551,0-3.1-.008-4.654-.038s-3.1-.07-4.654-.139l-1.164-.05-1.164-.064c-.776-.045-1.551-.1-2.327-.163.776-.067,1.551-.119,2.327-.164l1.164-.064,1.164-.05c1.551-.07,3.1-.11,4.654-.139s3.1-.038,4.654-.038,3.1.019,4.654.05l-.284.117q.8-.751,1.6-1.493l.809-.74.815-.733c.54-.49,1.09-.972,1.64-1.454S1439.736,196.835,1440.3,196.37Z" transform="translate(-1415.43 -196.37)" fill="none" stroke="#dbc883" stroke-width="1"/>
      </g>
      <path id="Path_7498" data-name="Path 7498" d="M890.477,185.4c11.086,0,22.174-.032,33.26.029a7.971,7.971,0,0,0,5.394-2c3.3-2.748,6.654-5.429,9.989-8.135.845-.685,1.692-1.368,2.562-2.019.175-.132.584-.233.677-.139.286.286-.017.5-.225.706-4.179,4.082-8.381,8.14-12.53,12.252q-8.8,8.717-17.526,17.5c-1.346,1.348-2.685,2.7-4,4.082a4.382,4.382,0,0,1-3.386,1.419c-8.4-.037-16.8-.03-25.2-.038-.66,0-.747.088-.749.816q0,9.173,0,18.345c0,2.467-.054,4.934-.052,7.4a3.558,3.558,0,0,1-1.127,2.659q-9.341,9.363-18.645,18.762l-14.536,14.638a8.2,8.2,0,0,1-.626.6.994.994,0,0,1-.369.1,1.015,1.015,0,0,1,.1-.359c1.883-2.392,3.778-4.776,5.66-7.168,1.647-2.094,3.3-4.186,4.913-6.3a5.038,5.038,0,0,0,1-3.154c-.008-5.552.011-11.1.016-16.656q.024-26.046.043-52.093c0-1.256,0-1.256,1.288-1.256h34.077A.031.031,0,0,1,890.477,185.4Z" transform="translate(-839.973 -173.101)" fill="none" stroke="#dbc883" stroke-width="1"/>
    </g>
  </g>
</svg>
