<svg xmlns="http://www.w3.org/2000/svg" version="1.1" xmlns:xlink="http://www.w3.org/1999/xlink" width="512" height="512" x="0" y="0" viewBox="0 0 512 512" style="enable-background:new 0 0 512 512" xml:space="preserve"><g><path d="M509.194 247.265c-26.937-37.595-86.108-98.94-152.178-131.299C323.19 99.4 289.54 91 257 91c-32.527 0-66.271 8.394-100.294 24.949C95.294 145.831 34.504 203.821 2.883 247.158a14.999 14.999 0 0 0 0 17.683c1.16 1.589 28.916 39.363 73.673 77.567C127.152 385.598 189.899 421 257 421c66.863 0 129.135-35.152 179.509-78.646 44.273-38.227 71.546-76.028 72.686-77.618a15.003 15.003 0 0 0-.001-17.471zM257 391.2c-84.921 0-169.796-69.607-222.962-135.195C59.457 224.694 151.617 120.8 257 120.8c84.956 0 168.906 69.703 221.088 135.195C453.219 287.161 362.426 391.2 257 391.2z" fill="#000000" opacity="1" data-original="#000000"></path><path d="M257 151c-58.111 0-107 47.003-107 105 0 57.891 48.765 105 107 105 57.897 0 105-47.103 105-105s-47.103-105-105-105zm0 180.2c-41.738 0-77.2-34.746-77.2-75.4s35.462-75 77.2-75c41.355 0 75.2 33.645 75.2 75s-33.845 75.4-75.2 75.4z" fill="#000000" opacity="1" data-original="#000000"></path><path d="M257 211c-25.477 0-47 20.607-47 45s21.523 45 47 45c24.813 0 45-20.187 45-45s-20.187-45-45-45zm0 60.2c-8.738 0-17-7.49-17-15.2s8.262-15 17-15c8.271 0 15 6.729 15 15s-6.729 15.2-15 15.2z" fill="#000000" opacity="1" data-original="#000000"></path></g></svg>