<svg xmlns="http://www.w3.org/2000/svg" xmlns:xlink="http://www.w3.org/1999/xlink" width="62.684" height="65.591" viewBox="0 0 62.684 65.591">
  <defs>
    <radialGradient id="radial-gradient" cx="0.495" cy="0.519" r="1.175" gradientTransform="translate(0.34) scale(0.32 1)" gradientUnits="objectBoundingBox">
      <stop offset="0.068" stop-color="#d6c077"/>
      <stop offset="0.249" stop-color="#cbb16a"/>
      <stop offset="0.594" stop-color="#af8b48"/>
      <stop offset="0.875" stop-color="#956729"/>
    </radialGradient>
    <radialGradient id="radial-gradient-2" cx="0.516" cy="0.495" r="0.381" gradientTransform="translate(-0.877) scale(2.754 1)" xlink:href="#radial-gradient"/>
    <radialGradient id="radial-gradient-3" cx="0.509" cy="0.555" r="0.5" gradientTransform="translate(-0.001)" xlink:href="#radial-gradient"/>
  </defs>
  <g id="Group_40159" data-name="Group 40159" transform="translate(7964.062 782)">
    <g id="Layer_58" transform="translate(-7964.062 -764.899)">
      <g id="Group_40145" data-name="Group 40145" transform="translate(3.375 44.053)">
        <path id="Path_7493" data-name="Path 7493" d="M647.97,1272.943q.278-.285.562-.566c.188-.187.378-.373.569-.558l.285-.277.288-.275.577-.548.582-.543q.291-.272.585-.54c.392-.357.781-.717,1.177-1.071l.06-.054h.084c.758-.007,1.516-.007,2.273,0s1.516.013,2.273.03,1.516.037,2.273.069,1.516.066,2.273.123c-.758.057-1.516.093-2.273.123s-1.516.05-2.273.069-1.516.024-2.273.03-1.516,0-2.273,0l.143-.054c-.4.349-.805.691-1.207,1.037q-.3.26-.608.514l-.61.511-.615.505-.308.252-.31.249c-.207.166-.414.333-.623.5S648.182,1272.782,647.97,1272.943Z" transform="translate(-647.97 -1268.506)" fill="url(#radial-gradient)"/>
      </g>
      <g id="Group_40146" data-name="Group 40146" transform="translate(44.515 1.582)">
        <path id="Path_7494" data-name="Path 7494" d="M1390.314,507.75c-.4.548-.81,1.084-1.222,1.62s-.831,1.067-1.254,1.594-.848,1.053-1.274,1.577q-.319.394-.643.783l-.648.779.052-.143q0,1.1-.008,2.19c-.008.73-.017,1.46-.036,2.19l-.028,1.1-.038,1.1c-.031.73-.061,1.46-.113,2.19-.052-.73-.081-1.46-.113-2.19l-.038-1.1-.028-1.1c-.019-.73-.028-1.46-.036-2.19s-.01-1.46-.008-2.19v-.082l.052-.061.655-.773q.328-.386.66-.769c.442-.511.883-1.023,1.332-1.529s.9-1.01,1.352-1.511S1389.843,508.237,1390.314,507.75Z" transform="translate(-1384.879 -507.75)" fill="url(#radial-gradient-2)"/>
      </g>
      <g id="Group_40147" data-name="Group 40147" transform="translate(0 0)">
        <path id="Path_7495" data-name="Path 7495" d="M612.905,521.9c-5.415,0-10.83.016-16.245-.014a3.893,3.893,0,0,0-2.635.977c-1.612,1.342-3.25,2.652-4.879,3.973-.413.334-.826.668-1.251.986-.085.064-.285.114-.331.068-.14-.14.008-.246.11-.345,2.041-1.994,4.093-3.975,6.12-5.984q4.3-4.257,8.56-8.546c.658-.658,1.311-1.32,1.954-1.994a2.14,2.14,0,0,1,1.654-.693c4.1.018,8.207.015,12.31.018.323,0,.365-.043.366-.4q0-4.48,0-8.96c0-1.2.026-2.41.025-3.615a1.738,1.738,0,0,1,.55-1.3q4.562-4.573,9.107-9.164l7.1-7.149a4.006,4.006,0,0,1,.306-.294.485.485,0,0,1,.18-.05.5.5,0,0,1-.049.175c-.919,1.168-1.845,2.332-2.765,3.5-.8,1.023-1.61,2.044-2.4,3.079a2.46,2.46,0,0,0-.487,1.54c0,2.712-.006,5.424-.008,8.135q-.012,12.721-.021,25.443c0,.614,0,.614-.629.614H612.906A.019.019,0,0,1,612.905,521.9Z" transform="translate(-587.509 -479.42)"/>
      </g>
    </g>
    <g id="Layer_59" transform="translate(-7951.441 -782)">
      <g id="Group_40148" data-name="Group 40148" transform="translate(0 31.351)">
        <path id="Path_7496" data-name="Path 7496" d="M820.113,734.66c.047.785.076,1.571.106,2.356s.05,1.571.064,2.357.027,1.571.037,2.357.013,1.571.015,2.357v.081l-.054.063q-.816.958-1.642,1.908c-.552.632-1.1,1.264-1.663,1.889l-.839.938-.846.932c-.569.617-1.137,1.235-1.721,1.84.506-.671,1.029-1.328,1.55-1.986l.789-.981.8-.975c.53-.65,1.069-1.294,1.608-1.937s1.083-1.282,1.629-1.918l-.054.145c0-.786,0-1.571.015-2.357s.018-1.571.037-2.357.039-1.571.064-2.356S820.065,735.445,820.113,734.66Z" transform="translate(-813.57 -734.66)"/>
      </g>
      <g id="Group_40149" data-name="Group 40149" transform="translate(33.6 1.299)">
        <path id="Path_7497" data-name="Path 7497" d="M1427.577,196.37c-.233.271-.471.538-.71.8s-.481.528-.726.787l-.366.391-.369.387q-.371.385-.744.768l-.054.055-.085,0q-1.136.023-2.273.025c-.758,0-1.516,0-2.273-.018s-1.516-.034-2.273-.068l-.568-.025-.568-.031c-.379-.022-.758-.047-1.137-.08.379-.033.758-.058,1.137-.08l.568-.031.568-.025c.758-.034,1.516-.054,2.273-.068s1.516-.018,2.273-.018,1.516.009,2.273.025l-.139.057q.389-.367.783-.729l.395-.361.4-.358c.264-.24.533-.475.8-.71S1427.3,196.6,1427.577,196.37Z" transform="translate(-1415.43 -196.37)"/>
      </g>
      <path id="Path_7498" data-name="Path 7498" d="M866.383,179.109c5.415,0,10.83-.016,16.245.014a3.893,3.893,0,0,0,2.635-.977c1.612-1.342,3.25-2.652,4.879-3.973.413-.334.826-.668,1.251-.986.085-.064.285-.114.331-.068.14.14-.008.246-.11.345-2.041,1.994-4.093,3.975-6.12,5.984q-4.3,4.257-8.56,8.546c-.658.658-1.311,1.32-1.954,1.994a2.141,2.141,0,0,1-1.654.693c-4.1-.018-8.207-.015-12.31-.018-.323,0-.365.043-.366.4q0,4.48,0,8.96c0,1.2-.026,2.41-.025,3.615a1.738,1.738,0,0,1-.55,1.3q-4.562,4.573-9.107,9.164l-7.1,7.149a3.994,3.994,0,0,1-.306.294.485.485,0,0,1-.18.05.5.5,0,0,1,.049-.175c.919-1.168,1.845-2.332,2.765-3.5.8-1.023,1.61-2.044,2.4-3.079a2.46,2.46,0,0,0,.487-1.54c0-2.712.006-5.424.008-8.135q.012-12.721.021-25.443c0-.614,0-.614.629-.614h16.644A.019.019,0,0,1,866.383,179.109Z" transform="translate(-841.716 -173.101)" fill="url(#radial-gradient-3)"/>
    </g>
  </g>
</svg>
